<svg viewBox="0 0 65 65" xmlns="http://www.w3.org/2000/svg"><g fill="#1a9ed4"><path d="m42.4 57.151h-19.8a5.457 5.457 0 0 1 -5.451-5.45v-2.457a1.4 1.4 0 0 1 1.4-1.4h27.904a1.4 1.4 0 0 1 1.4 1.4v2.456a5.457 5.457 0 0 1 -5.453 5.451zm-22.458-6.511v1.06a2.662 2.662 0 0 0 2.658 2.66h19.8a2.662 2.662 0 0 0 2.66-2.659v-1.061z"/><path d="m45.523 37.616h-26.046a4.19 4.19 0 0 1 -4.186-4.186v-2.79a4.191 4.191 0 0 1 4.186-4.187h26.046a4.191 4.191 0 0 1 4.186 4.187v2.79a4.19 4.19 0 0 1 -4.186 4.186zm-26.046-8.372a1.4 1.4 0 0 0 -1.4 1.4v2.79a1.4 1.4 0 0 0 1.4 1.4h26.046a1.4 1.4 0 0 0 1.4-1.4v-2.794a1.4 1.4 0 0 0 -1.4-1.4z"/><path d="m43.131 46.919a4.126 4.126 0 0 1 -4.053-4.186 1.269 1.269 0 1 0 -2.525 0 4.055 4.055 0 1 1 -8.106 0 1.269 1.269 0 1 0 -2.525 0 4.056 4.056 0 1 1 -8.107 0 1.268 1.268 0 1 0 -2.524 0 1.4 1.4 0 0 1 -2.791 0 4.055 4.055 0 1 1 8.106 0 1.269 1.269 0 1 0 2.525 0 4.055 4.055 0 1 1 8.106 0 1.269 1.269 0 1 0 2.526 0 4.055 4.055 0 1 1 8.106 0 1.269 1.269 0 1 0 2.525 0 4.055 4.055 0 1 1 8.106 0 1.4 1.4 0 0 1 -2.791 0 1.268 1.268 0 1 0 -2.524 0 4.127 4.127 0 0 1 -4.054 4.186z"/><path d="m48.314 24.593h-31.628a1.4 1.4 0 0 1 0-2.791h31.628a1.4 1.4 0 0 1 0 2.791z"/><path d="m46.453 19.942h-27.906a1.4 1.4 0 0 1 -1.4-1.395c0-4.881 2.663-10.7 15.349-10.7s15.349 5.817 15.349 10.7a1.4 1.4 0 0 1 -1.392 1.395zm-26.437-2.791h24.968c-.337-2.519-2.2-6.511-12.484-6.511s-12.147 3.992-12.484 6.511z"/><path d="m60 3a2 2 0 0 1 2 2v55a2 2 0 0 1 -2 2h-55a2 2 0 0 1 -2-2v-55a2 2 0 0 1 2-2zm0-3h-55a5 5 0 0 0 -5 5v55a5 5 0 0 0 5 5h55a5 5 0 0 0 5-5v-55a5 5 0 0 0 -5-5z"/></g></svg>