<svg xmlns="http://www.w3.org/2000/svg" viewBox="0 0 542.636 685.899"><defs><style>.a{fill:#0092d5;}</style></defs><path class="a" d="M406.968,685.9h-271.3A75.347,75.347,0,0,1,60.408,610.64V569.8a18.731,18.731,0,0,1,18.731-18.731H463.5A18.731,18.731,0,0,1,482.228,569.8V610.64A75.346,75.346,0,0,1,406.968,685.9ZM97.87,588.535V610.64a37.843,37.843,0,0,0,37.8,37.8h271.3a37.839,37.839,0,0,0,37.8-37.8V588.535Z"/><path class="a" d="M418.272,416.262H124.364a64.029,64.029,0,0,1-63.956-63.956V329.7a64.028,64.028,0,0,1,63.956-63.956H418.272A64.028,64.028,0,0,1,482.228,329.7v22.611A64.029,64.029,0,0,1,418.272,416.262ZM124.364,303.2A26.523,26.523,0,0,0,97.87,329.7v22.611A26.523,26.523,0,0,0,124.364,378.8H418.272a26.523,26.523,0,0,0,26.494-26.494V329.7A26.523,26.523,0,0,0,418.272,303.2Z"/><path class="a" d="M415.654,535.859a54.876,54.876,0,0,1-54.814-54.815,17.353,17.353,0,0,0-34.7,0,54.815,54.815,0,1,1-109.63,0,17.352,17.352,0,0,0-34.7,0,54.815,54.815,0,1,1-109.63,0,17.355,17.355,0,0,0-34.709,0,18.731,18.731,0,0,1-37.462,0,54.817,54.817,0,0,1,109.633,0,17.353,17.353,0,1,0,34.705,0,54.815,54.815,0,1,1,109.63,0,17.352,17.352,0,1,0,34.7,0,54.815,54.815,0,1,1,109.63,0,17.353,17.353,0,1,0,34.7,0,54.815,54.815,0,1,1,109.629,0,18.731,18.731,0,0,1-37.462,0,17.353,17.353,0,0,0-34.7,0A54.876,54.876,0,0,1,415.654,535.859Z"/><path class="a" d="M489.185,242.586H53.455a18.731,18.731,0,1,1,0-37.462h435.73a18.731,18.731,0,0,1,0,37.462Z"/><path class="a" d="M469.176,180.729H73.46A18.731,18.731,0,0,1,54.729,162c0-73.9,37.579-162,216.591-162S487.907,88.094,487.907,162A18.731,18.731,0,0,1,469.176,180.729ZM93.251,143.267H449.385c-8.4-71.147-66.881-105.8-178.065-105.8S101.656,72.12,93.251,143.267Z"/></svg>