<svg viewBox="0 0 65 65" xmlns="http://www.w3.org/2000/svg"><g fill="#1a9ed4"><path d="m60 3a2 2 0 0 1 2 2v55a2 2 0 0 1 -2 2h-55a2 2 0 0 1 -2-2v-55a2 2 0 0 1 2-2zm0-3h-55a5 5 0 0 0 -5 5v55a5 5 0 0 0 5 5h55a5 5 0 0 0 5-5v-55a5 5 0 0 0 -5-5z"/><path d="m32.5 7.5a25 25 0 1 0 25 25 25.028 25.028 0 0 0 -25-25zm0 47.17a22.17 22.17 0 1 1 22.17-22.17 22.195 22.195 0 0 1 -22.17 22.17z"/><path d="m32.5 13.632a18.868 18.868 0 1 0 18.868 18.868 18.889 18.889 0 0 0 -18.868-18.868zm0 34.906a16.038 16.038 0 1 1 16.038-16.038 16.057 16.057 0 0 1 -16.038 16.038z"/><path d="m32.5 18.821a13.679 13.679 0 1 0 13.679 13.679 13.694 13.694 0 0 0 -13.679-13.679zm-1.214 24.456a10.682 10.682 0 0 1 -1.5-.285l13.2-13.2a10.841 10.841 0 0 1 .284 1.5zm-9.563-9.562 11.991-11.992a10.827 10.827 0 0 1 1.5.284l-13.2 13.2a10.841 10.841 0 0 1 -.291-1.492zm16.311-10.529a10.78 10.78 0 0 1 1.06.719l-15.189 15.189a10.968 10.968 0 0 1 -.72-1.06zm3.061 2.72a10.78 10.78 0 0 1 .719 1.06l-14.848 14.848a10.78 10.78 0 0 1 -1.06-.719zm-11.795-3.773-7.17 7.17a10.9 10.9 0 0 1 7.17-7.17zm6.4 20.734 7.17-7.17a10.9 10.9 0 0 1 -7.17 7.17z"/></g></svg>