<svg viewBox="0 0 43 53" xmlns="http://www.w3.org/2000/svg"><g fill="#1a9ed4"><path d="m32.141 53h-21.282a5.866 5.866 0 0 1 -5.859-5.859v-2.641a1.5 1.5 0 0 1 1.5-1.5h30a1.5 1.5 0 0 1 1.5 1.5v2.641a5.866 5.866 0 0 1 -5.859 5.859zm-24.141-7v1.141a2.862 2.862 0 0 0 2.859 2.859h21.282a2.862 2.862 0 0 0 2.859-2.859v-1.141z"/><path d="m35.5 32h-28a4.505 4.505 0 0 1 -4.5-4.5v-3a4.505 4.505 0 0 1 4.5-4.5h28a4.505 4.505 0 0 1 4.5 4.5v3a4.505 4.505 0 0 1 -4.5 4.5zm-28-9a1.5 1.5 0 0 0 -1.5 1.5v3a1.5 1.5 0 0 0 1.5 1.5h28a1.5 1.5 0 0 0 1.5-1.5v-3a1.5 1.5 0 0 0 -1.5-1.5z"/><path d="m32.929 42a4.436 4.436 0 0 1 -4.358-4.5 1.364 1.364 0 1 0 -2.714 0 4.359 4.359 0 1 1 -8.714 0 1.364 1.364 0 1 0 -2.714 0 4.436 4.436 0 0 1 -4.358 4.5 4.436 4.436 0 0 1 -4.357-4.5 1.436 1.436 0 0 0 -1.357-1.5 1.436 1.436 0 0 0 -1.357 1.5 1.5 1.5 0 0 1 -3 0 4.436 4.436 0 0 1 4.357-4.5 4.435 4.435 0 0 1 4.357 4.5 1.436 1.436 0 0 0 1.357 1.5 1.437 1.437 0 0 0 1.358-1.5 4.359 4.359 0 1 1 8.714 0 1.364 1.364 0 1 0 2.714 0 4.359 4.359 0 1 1 8.714 0 1.364 1.364 0 1 0 2.715 0 4.359 4.359 0 1 1 8.714 0 1.5 1.5 0 0 1 -3 0 1.364 1.364 0 1 0 -2.714 0 4.436 4.436 0 0 1 -4.357 4.5z"/><path d="m38.5 18h-34a1.5 1.5 0 0 1 0-3h34a1.5 1.5 0 0 1 0 3z"/><path d="m36.5 13h-30a1.5 1.5 0 0 1 -1.5-1.5c0-5.246 2.862-11.5 16.5-11.5s16.5 6.254 16.5 11.5a1.5 1.5 0 0 1 -1.5 1.5zm-28.42-3h26.84c-.362-2.708-2.363-7-13.42-7s-13.058 4.292-13.42 7z"/></g></svg>