<svg viewBox="0 0 65 65" xmlns="http://www.w3.org/2000/svg"><g fill="#1a9ed4"><path d="m45.236 32.028h-31.136a1.414 1.414 0 0 0 -1.387 1.7l4.276 20.942h-2.889a1.415 1.415 0 0 0 0 2.83h28.3a1.415 1.415 0 0 0 0-2.83h-3.1l1.823-8.491h4.118a7.076 7.076 0 0 0 0-14.151zm-25.359 22.642-4.04-19.812h24.817l-2.064 9.614v.013l-2.19 10.185zm25.359-11.321h-3.51l1.823-8.491h1.687a4.246 4.246 0 0 1 0 8.491z"/><path d="m28.621 19.764a3.3 3.3 0 0 1 0 6.6 1.415 1.415 0 0 0 0 2.83 6.132 6.132 0 1 0 0-12.264 3.3 3.3 0 0 1 0-6.6 1.415 1.415 0 1 0 0-2.83 6.132 6.132 0 1 0 0 12.264z"/><path d="m60 3a2 2 0 0 1 2 2v55a2 2 0 0 1 -2 2h-55a2 2 0 0 1 -2-2v-55a2 2 0 0 1 2-2zm0-3h-55a5 5 0 0 0 -5 5v55a5 5 0 0 0 5 5h55a5 5 0 0 0 5-5v-55a5 5 0 0 0 -5-5z"/></g></svg>