<svg viewBox="0 0 65 65" xmlns="http://www.w3.org/2000/svg"><g fill="#1a9ed4"><path d="m60 3a2 2 0 0 1 2 2v55a2 2 0 0 1 -2 2h-55a2 2 0 0 1 -2-2v-55a2 2 0 0 1 2-2zm0-3h-55a5 5 0 0 0 -5 5v55a5 5 0 0 0 5 5h55a5 5 0 0 0 5-5v-55a5 5 0 0 0 -5-5z"/><path d="m48.7 33.5a1.417 1.417 0 0 0 -1.1-.527h-.526c.026-.314.054-.628.054-.943a11.772 11.772 0 0 0 -19.758-8.675l-5.815-14.955a1.415 1.415 0 0 0 -2.638 1.026l6.018 15.474a9.922 9.922 0 0 0 -6.944 8.068h-.585a1.415 1.415 0 0 0 -1.383 1.716l4.717 21.7a1.415 1.415 0 0 0 1.383 1.116h20.754a1.415 1.415 0 0 0 1.383-1.115l4.717-21.7a1.414 1.414 0 0 0 -.277-1.185zm-4.4-1.47a9 9 0 0 1 -.054.943h-6.67a9.917 9.917 0 0 0 -7.472-8.2 8.942 8.942 0 0 1 14.188 7.261zm-16.517-4.718a7.086 7.086 0 0 1 6.933 5.66h-13.866a7.087 7.087 0 0 1 6.933-5.66zm13.954 27.358h-18.474l-4.101-18.87h26.676z"/></g></svg>