<svg viewBox="0 0 65 65" xmlns="http://www.w3.org/2000/svg"><g fill="#1a9ed4"><path d="m48.241 28.4a1.418 1.418 0 0 0 -1.089-.511h-1.792c0-.1.021-.194.021-.292a7.535 7.535 0 0 0 -5.348-7.206c-.155-4.647-2.567-11.981-11.162-12.888a1.432 1.432 0 0 0 -1.411.769 1.417 1.417 0 0 0 .216 1.592c1.308 1.438 1.459 1.838 1.347 3.564-.063.97-.561 1.544-1.511 2.557-.247.263-.5.532-.752.826a7.536 7.536 0 0 0 -1.654 3.478 7.574 7.574 0 0 0 -5.734 7.311c0 .1.017.194.021.292h-1.546a1.415 1.415 0 0 0 -1.393 1.664l4.783 26.778a1.415 1.415 0 0 0 1.393 1.166h19.488a1.416 1.416 0 0 0 1.391-1.153l5.034-26.778a1.417 1.417 0 0 0 -.302-1.169zm-5.691-.8c0 .1-.014.194-.02.292h-6.83a14.1 14.1 0 0 0 4.12-4.54 4.689 4.689 0 0 1 2.73 4.248zm-12.973-9.676a6.7 6.7 0 0 0 2.271-4.309 8.334 8.334 0 0 0 -.139-2.476 8.66 8.66 0 0 1 4.419 4.68 7.531 7.531 0 0 1 -1.036 2 6.228 6.228 0 0 1 -3.687 2.173 14.622 14.622 0 0 1 -3.358.241 4.644 4.644 0 0 1 .864-1.576c.22-.257.445-.499.666-.733zm-7.377 9.676a4.707 4.707 0 0 1 4.008-4.625 1.461 1.461 0 0 0 .257.037c.708.028 1.425.058 2.15.058a15.952 15.952 0 0 0 3.385-.315 9.126 9.126 0 0 0 5.122-2.97 12.821 12.821 0 0 1 .071 1.671 1.412 1.412 0 0 0 .112.622c-1.15 2.43-5.992 6-8.683 5.8a1.376 1.376 0 0 0 -.328.019h-6.071c-.006-.097-.023-.197-.023-.297zm18.745 27.07h-17.13l-4.277-23.948h25.908z"/><path d="m60 3a2 2 0 0 1 2 2v55a2 2 0 0 1 -2 2h-55a2 2 0 0 1 -2-2v-55a2 2 0 0 1 2-2zm0-3h-55a5 5 0 0 0 -5 5v55a5 5 0 0 0 5 5h55a5 5 0 0 0 5-5v-55a5 5 0 0 0 -5-5z"/></g></svg>