<svg viewBox="0 0 38.906 53" xmlns="http://www.w3.org/2000/svg"><path d="m37.921 4.221-11.276-4.129a1.5 1.5 0 0 0 -1.9.834l-4.73 11.419h-18.515a1.5 1.5 0 0 0 -1.48 1.741l3.294 20.193.612 17.274c0 .037.01.071.014.107a1.484 1.484 0 0 0 .022.163 1.391 1.391 0 0 0 .044.143c.014.043.026.087.044.129a1.365 1.365 0 0 0 .073.136 1.006 1.006 0 0 0 .066.115 1.448 1.448 0 0 0 .092.115 1.318 1.318 0 0 0 .092.106c.037.037.079.067.119.1s.066.057.1.082a1.522 1.522 0 0 0 .252.135 1.479 1.479 0 0 0 .58.116h19.2a1.5 1.5 0 0 0 1.5-1.447l.612-17.274 3.294-20.193a1.5 1.5 0 0 0 -1.48-1.741h-5.288l3.7-8.941 9.928 3.634a1.5 1.5 0 0 0 1.031-2.817zm-19.148 11.124-1.109 2.678h-13.964l-.437-2.678zm5.186 17.342a12.368 12.368 0 0 0 -8.932 4.465 9.418 9.418 0 0 0 -1.416-1.5l6.057-14.629h6.194zm-17.592 3.047a11.208 11.208 0 0 1 3.533 1.038l-3.22 7.777zm6.013 2.891a4.369 4.369 0 0 1 1.147 2.836v8.539h-5.857zm-1.332-4.625a14.244 14.244 0 0 0 -4.954-1.313l-1.9-11.664h12.228zm5.479 16v-8.539c0-2.8 3.147-5.219 7.159-5.727l-.506 14.266zm10.261-34.655-.437 2.678h-5.44l1.108-2.678z" fill="#1a9ed4"/></svg>