<svg viewBox="0 0 65 65" xmlns="http://www.w3.org/2000/svg"><g fill="#1a9ed4"><path d="m49.923 11.483-10.638-3.9a1.415 1.415 0 0 0 -1.794.786l-4.461 10.777h-17.466a1.415 1.415 0 0 0 -1.4 1.643l3.107 19.049.578 16.3c0 .034.01.067.014.1a1.307 1.307 0 0 0 .02.153c.01.047.027.09.041.135s.025.082.042.122.045.086.068.128.039.074.063.109.057.072.087.108.055.069.086.1a1.251 1.251 0 0 0 .113.094c.033.026.062.054.1.077a1.4 1.4 0 0 0 .238.128 1.331 1.331 0 0 0 .267.081 1.411 1.411 0 0 0 .273.027h18.121a1.414 1.414 0 0 0 1.418-1.365l.578-16.3 3.108-19.049a1.415 1.415 0 0 0 -1.4-1.643h-4.993l3.493-8.435 9.364 3.432a1.415 1.415 0 1 0 .973-2.657zm-18.065 10.493-1.046 2.524h-13.172l-.412-2.526zm4.893 16.36a11.675 11.675 0 0 0 -8.427 4.213 8.885 8.885 0 0 0 -1.335-1.416l5.714-13.8h5.843zm-16.6 2.875a10.56 10.56 0 0 1 3.333.979l-3.034 7.337zm5.672 2.728a4.112 4.112 0 0 1 1.082 2.675v8.056h-5.521zm-1.256-4.364a13.457 13.457 0 0 0 -4.667-1.239l-1.795-11h11.535zm5.168 15.1v-8.061c0-2.646 2.97-4.924 6.754-5.4l-.473 13.456zm9.685-32.699-.412 2.524h-5.133l1.046-2.526z"/><path d="m60 3a2 2 0 0 1 2 2v55a2 2 0 0 1 -2 2h-55a2 2 0 0 1 -2-2v-55a2 2 0 0 1 2-2zm0-3h-55a5 5 0 0 0 -5 5v55a5 5 0 0 0 5 5h55a5 5 0 0 0 5-5v-55a5 5 0 0 0 -5-5z"/></g></svg>