<svg viewBox="0 0 52.153 53" xmlns="http://www.w3.org/2000/svg"><g fill="#1a9ed4"><path d="m50.1 30.518a1.5 1.5 0 0 0 -2.057-.511l-8.657 5.2h-.005l-4.652 2.803-4 2.406-4.65 2.795a1.5 1.5 0 0 0 -.512 2.059 14.323 14.323 0 1 0 24.533-14.752zm-9.24 12.432a5.9 5.9 0 0 1 -7.142-.832l1.508-.907a4.2 4.2 0 0 0 6.734-4.049l1.515-.911a5.9 5.9 0 0 1 -2.615 6.699zm7.952-2.314a11.325 11.325 0 0 1 -19.836 4.333l2.124-1.275a8.878 8.878 0 0 0 15-9.021l2.117-1.273a11.237 11.237 0 0 1 .595 7.236z"/><path d="m28.868 39.711c1.261-1.229 5.13-5.861 1.96-13.87-2.656-6.713-8.481-7.11-10.7-7.26a11.357 11.357 0 0 0 -11.323 6.193c-3.876 7.668-.44 12.651.705 13.994 3.053 3.592 6.893 3.554 8.946 3.533.25 0 .482-.006.692 0h.175c.275.005.581.012.913.012a15.124 15.124 0 0 0 4.675-.675c.165-.052.338-.1.514-.154a7.648 7.648 0 0 0 3.443-1.773zm-4.279-1.1c-.2.06-.4.117-.589.177a13.17 13.17 0 0 1 -4.61.521h-.177c-.1 0-.211 0-.324 0h-.462c-1.9.025-4.489.045-6.633-2.477-.842-.988-3.352-4.68-.311-10.7a8.36 8.36 0 0 1 8.468-4.552c1.989.136 6.128.417 8.088 5.369 2.487 6.286-.339 9.717-1.265 10.618a4.873 4.873 0 0 1 -2.185 1.04z"/><path d="m18.051 24.354a1.5 1.5 0 0 0 -.449-.009c-.032 0-.064.009-.095.015-3.6.666-6.115 3.289-6.115 6.384s2.522 5.725 6.132 6.387a1.551 1.551 0 0 0 .271.024 1.5 1.5 0 0 0 1.5-1.5v-9.822a1.5 1.5 0 0 0 -1.244-1.479zm-1.757 9.193a3.373 3.373 0 0 1 -1.9-2.8 3.37 3.37 0 0 1 1.9-2.8z"/><path d="m21.533 24.357a1.5 1.5 0 0 0 -1.77 1.476v9.822a1.5 1.5 0 0 0 1.5 1.5 1.551 1.551 0 0 0 .271-.024c3.61-.662 6.132-3.288 6.132-6.387s-2.522-5.726-6.133-6.387zm1.23 9.19v-5.606a3.369 3.369 0 0 1 1.9 2.8 3.37 3.37 0 0 1 -1.9 2.806z"/><path d="m5 39.317a4.24 4.24 0 1 0 4.239 4.239 4.245 4.245 0 0 0 -4.239-4.239zm0 5.483a1.24 1.24 0 1 1 1.239-1.241 1.242 1.242 0 0 1 -1.239 1.241z"/><path d="m17.218 43.51a3.4 3.4 0 1 0 3.4 3.4 3.4 3.4 0 0 0 -3.4-3.4zm0 3.8a.4.4 0 1 1 .4-.4.4.4 0 0 1 -.4.4z"/><path d="m10.678 48.452a2.274 2.274 0 1 0 2.275 2.273 2.275 2.275 0 0 0 -2.275-2.273zm0 3a.726.726 0 1 1 .727-.727.727.727 0 0 1 -.727.727z"/><path d="m32.761 27.423c.088.469.532 1.729 2.749 3.289a6.652 6.652 0 0 0 3.666 1.49 2.213 2.213 0 0 0 .364-.028 1.5 1.5 0 0 0 .958-.584l1.632-2.2a4.464 4.464 0 0 0 4.644.392 4.532 4.532 0 0 0 2.362-3.782c.151-2.588-1.6-5.382-4.81-7.668a1.981 1.981 0 0 0 -.179-.129c-3.227-2.229-6.441-2.924-8.822-1.907a4.538 4.538 0 0 0 -2.77 3.511 4.468 4.468 0 0 0 1.945 4.227l-1.516 2.284a1.5 1.5 0 0 0 -.223 1.105zm2.758-7.156a1.55 1.55 0 0 1 .981-1.217c.524-.222 2.5-.767 5.961 1.631.035.03.088.07.118.09 3.431 2.443 3.591 4.483 3.557 5.049a1.545 1.545 0 0 1 -.81 1.336 1 1 0 0 1 -.481.116 1.83 1.83 0 0 0 .1-.187 2.417 2.417 0 0 0 -.617-2.476 1.5 1.5 0 0 0 -1.19-.586h-.011a1.5 1.5 0 0 0 -1.192.605l-3.29 4.423a8.167 8.167 0 0 1 -2.64-1.851l3.046-4.59a1.5 1.5 0 0 0 -.786-2.255 2.406 2.406 0 0 0 -2.538.244 1.548 1.548 0 0 0 -.153.162.983.983 0 0 1 -.055-.494z"/><path d="m5.6 21.133a9.627 9.627 0 0 0 3.383-.612c1.946-.789 1.781-2.106 1.684-2.494a3.272 3.272 0 0 0 -.148-.438c.358.105.7.2 1.017.257.865.171 3.79.649 5.025-.3a1.792 1.792 0 0 0 .714-1.317 2.174 2.174 0 0 0 -.387-1.318 1.8 1.8 0 0 0 .215-.07c2.527-1 3.612-1.708 4.01-2.627a1.821 1.821 0 0 0 .029-1.408 2 2 0 0 0 -1.051-1.07 10.655 10.655 0 0 0 1.336-.711 8.3 8.3 0 0 0 2.858-4.56 2.425 2.425 0 0 0 -.278-1.9c-.247-.365-1.007-1.476-7.059-1.747-1.292-.028-2.115.857-2.792 1.933a2.8 2.8 0 0 0 -.5-2.042 1.991 1.991 0 0 0 -2.02-.652c-1.582.363-3.236 2.558-3.653 4.268 0 .009 0 .02-.007.032a2.984 2.984 0 0 0 -.4-.723 1.711 1.711 0 0 0 -1.661-.662c-1.2.209-1.782 1.417-2.641 4.045a6.731 6.731 0 0 0 0 2.445c0 .038.006.077.01.118a1.941 1.941 0 0 0 -2.16-.416 1.829 1.829 0 0 0 -.978 1.162c-.577 1.817.711 7.493 1.7 9.2.687 1.202 2.217 1.607 3.754 1.607zm-1.013-6.733a1.694 1.694 0 0 0 1.223-.579c.662-.745.669-1.9.478-4.281a7.441 7.441 0 0 0 .381 1.143 1.678 1.678 0 0 0 1.791 1.044c1.307-.2 1.679-1.395 2.183-4.887a1.6 1.6 0 0 0 .444.731 2.429 2.429 0 0 0 2.1.748c1.419-.219 2.194-1.619 2.943-2.985a10.243 10.243 0 0 1 .934-1.506 28.315 28.315 0 0 1 4.143.515 5.659 5.659 0 0 1 -1.414 2.166 17.816 17.816 0 0 1 -2.246 1.062c-1.744.739-2.619 1.11-2.958 1.961a1.729 1.729 0 0 0 .011 1.231 2.137 2.137 0 0 0 1.709 1.163l-.07.028c-.238-.059-.647-.206-.911-.3-1.009-.365-1.88-.681-2.692-.166a1.633 1.633 0 0 0 -.752 1.234c-.082.838.422 1.5 1.175 2.324-.307-.033-.629-.08-.948-.143a18.819 18.819 0 0 1 -1.894-.559c-1.832-.608-2.843-.943-3.7-.236a1.623 1.623 0 0 0 -.575 1.465 4.6 4.6 0 0 0 1.058 2.019c.072.1.162.218.255.348a5.406 5.406 0 0 1 -2.859.016 17.764 17.764 0 0 1 -1.139-4.072 1.9 1.9 0 0 0 1.33.516z"/><path d="m23.124 14.835a1.5 1.5 0 0 0 2.334 1.885 9.534 9.534 0 0 1 2.461-2.3 11.854 11.854 0 0 0 5.716 1.321c.139 0 .266 0 .379-.007 1.832-.071 2.932-.561 3.367-1.508a2.441 2.441 0 0 0 .048-1.945 7.614 7.614 0 0 0 3.553-.128c2.153-.762 5.76-5.035 6.782-7.552a3.218 3.218 0 0 0 .132-2.7 2.425 2.425 0 0 0 -1.48-1.201c-2.77-.952-10.493.531-11.531 1.04-.831.4-1.414 1.342-2.249 2.827a2.875 2.875 0 0 0 -1.261-1.627 1.8 1.8 0 0 0 -2.178.449 15.078 15.078 0 0 0 -2.8 8.441 12.5 12.5 0 0 0 -3.273 3.005zm7.251-7.511c.307.842.777 1.627 1.767 1.731 1.322.163 1.989-1.013 2.981-2.789a14.571 14.571 0 0 1 1.147-1.856 31.45 31.45 0 0 1 8.758-.983c-.614 1.665-3.768 5.447-5.042 5.9a7.565 7.565 0 0 1 -2.936-.141c-1.331-.223-3.336-.558-3.7 1.268a2.778 2.778 0 0 0 .834 2.288c-1.51.11-4.232-.307-4.8-.943-.215-.694.349-2.846.991-4.475z"/></g></svg>