<svg viewBox="0 0 65 65" xmlns="http://www.w3.org/2000/svg"><g fill="#1a9ed4"><path d="m55.162 36.291a1.415 1.415 0 0 0 -1.941-.483l-8.164 4.909h-.008l-.007.005-4.375 2.631h-.008l-.007.005-3.774 2.269-4.388 2.638a1.414 1.414 0 0 0 -.49 1.953 13.513 13.513 0 1 0 23.162-13.927zm-8.716 11.728a5.563 5.563 0 0 1 -6.737-.784l1.423-.856a3.963 3.963 0 0 0 6.353-3.82l1.428-.859a5.563 5.563 0 0 1 -2.467 6.319zm7.5-2.182a10.683 10.683 0 0 1 -18.713 4.087l2-1.2a8.376 8.376 0 0 0 14.154-8.51l2-1.2a10.605 10.605 0 0 1 .561 6.823z"/><path d="m35.133 44.963c1.189-1.159 4.84-5.528 1.849-13.085-2.506-6.333-8-6.707-10.093-6.849a10.714 10.714 0 0 0 -10.683 5.843c-3.656 7.233-.415 11.935.665 13.2 2.879 3.387 6.5 3.357 8.439 3.331h.652.155c.265.007.558.013.877.013a14.239 14.239 0 0 0 4.406-.636c.156-.049.318-.1.484-.144a7.225 7.225 0 0 0 3.249-1.673zm-4.039-1.039c-.19.055-.377.11-.553.166a12.5 12.5 0 0 1 -4.358.49h-.159c-.1 0-.2 0-.3 0h-.437c-1.78.021-4.233.044-6.257-2.335-.794-.933-3.161-4.417-.293-10.093a7.884 7.884 0 0 1 7.989-4.294c1.877.128 5.781.393 7.63 5.065 2.346 5.931-.32 9.167-1.193 10.017a4.622 4.622 0 0 1 -2.069.984z"/><path d="m24.928 30.476a1.343 1.343 0 0 0 -.425-.008.868.868 0 0 0 -.089.014c-3.4.629-5.767 3.1-5.767 6.022s2.379 5.4 5.785 6.025a1.374 1.374 0 0 0 .255.023 1.415 1.415 0 0 0 1.413-1.415v-9.266a1.416 1.416 0 0 0 -1.172-1.395zm-1.657 8.672a3.178 3.178 0 0 1 -1.794-2.648 3.177 3.177 0 0 1 1.795-2.644z"/><path d="m28.214 30.479a1.415 1.415 0 0 0 -1.67 1.392v9.266a1.415 1.415 0 0 0 1.415 1.415 1.356 1.356 0 0 0 .254-.023c3.407-.624 5.787-3.101 5.787-6.029s-2.38-5.4-5.786-6.021zm1.16 8.669v-5.288a3.179 3.179 0 0 1 1.8 2.644 3.177 3.177 0 0 1 -1.8 2.644z"/><path d="m12.618 44.593a4 4 0 1 0 4 4 4 4 0 0 0 -4-4zm0 5.168a1.169 1.169 0 1 1 1.169-1.169 1.17 1.17 0 0 1 -1.169 1.169z"/><path d="m24.142 48.547a3.208 3.208 0 1 0 3.208 3.208 3.212 3.212 0 0 0 -3.208-3.208zm0 3.586a.378.378 0 1 1 .378-.378.378.378 0 0 1 -.378.378z"/><path d="m17.973 53.21a2.145 2.145 0 1 0 2.146 2.145 2.146 2.146 0 0 0 -2.146-2.145zm0 2.83a.685.685 0 1 1 .686-.685.685.685 0 0 1 -.686.685z"/><path d="m38.806 33.371c.083.443.5 1.631 2.594 3.1a6.268 6.268 0 0 0 3.457 1.405 2.115 2.115 0 0 0 .344-.026 1.416 1.416 0 0 0 .9-.551l1.539-2.069a4.215 4.215 0 0 0 4.382.369 4.276 4.276 0 0 0 2.228-3.577c.142-2.443-1.513-5.078-4.529-7.227a1.563 1.563 0 0 0 -.184-.133c-3.042-2.1-6.07-2.755-8.316-1.8a4.28 4.28 0 0 0 -2.613 3.312 4.214 4.214 0 0 0 1.836 3.993l-1.43 2.155a1.42 1.42 0 0 0 -.208 1.049zm2.6-6.751a1.462 1.462 0 0 1 .929-1.148c.495-.209 2.36-.723 5.623 1.54.035.027.081.062.109.082 3.237 2.3 3.387 4.228 3.356 4.764a1.461 1.461 0 0 1 -.765 1.26.942.942 0 0 1 -.453.11 1.956 1.956 0 0 0 .09-.177 2.281 2.281 0 0 0 -.581-2.337 1.414 1.414 0 0 0 -1.122-.552h-.011a1.41 1.41 0 0 0 -1.124.57l-3.1 4.172a6.358 6.358 0 0 1 -1.332-.75 6.449 6.449 0 0 1 -1.161-1l2.873-4.33a1.415 1.415 0 0 0 -.737-2.124 2.283 2.283 0 0 0 -2.395.231 1.687 1.687 0 0 0 -.143.152.916.916 0 0 1 -.054-.463z"/><path d="m13.185 27.437a9.116 9.116 0 0 0 3.192-.577c1.836-.744 1.68-1.987 1.588-2.353a3.356 3.356 0 0 0 -.139-.414c.337.1.662.187.96.245.817.16 3.577.609 4.74-.288a1.692 1.692 0 0 0 .673-1.242 2.047 2.047 0 0 0 -.364-1.243 1.648 1.648 0 0 0 .2-.067c2.384-.94 3.409-1.611 3.783-2.478a1.722 1.722 0 0 0 .028-1.327 1.886 1.886 0 0 0 -.992-1.01 10.141 10.141 0 0 0 1.261-.671 7.844 7.844 0 0 0 2.7-4.3 2.287 2.287 0 0 0 -.261-1.791c-.236-.345-.956-1.395-6.662-1.647a3.1 3.1 0 0 0 -2.639 1.826 2.641 2.641 0 0 0 -.474-1.927 1.869 1.869 0 0 0 -1.907-.614c-1.487.342-3.045 2.413-3.441 4.026 0 .008 0 .018-.007.03a2.829 2.829 0 0 0 -.377-.684 1.615 1.615 0 0 0 -1.566-.622c-1.128.2-1.68 1.336-2.491 3.816a6.354 6.354 0 0 0 -.005 2.306c0 .035.006.073.01.112a1.836 1.836 0 0 0 -2.04-.393 1.72 1.72 0 0 0 -.92 1.1c-.544 1.716.671 7.069 1.6 8.676.654 1.129 2.098 1.511 3.55 1.511zm-.959-6.352a1.6 1.6 0 0 0 1.155-.546c.624-.7.631-1.791.45-4.039a6.971 6.971 0 0 0 .36 1.079 1.583 1.583 0 0 0 1.689.985c1.234-.188 1.585-1.316 2.06-4.609a1.515 1.515 0 0 0 .418.688 2.3 2.3 0 0 0 1.982.706c1.339-.2 2.069-1.532 2.776-2.817a9.505 9.505 0 0 1 .884-1.419 26.274 26.274 0 0 1 3.911.485 5.225 5.225 0 0 1 -1.338 2.043 16.792 16.792 0 0 1 -2.12 1c-1.644.7-2.468 1.046-2.789 1.849a1.638 1.638 0 0 0 .011 1.162 2.015 2.015 0 0 0 1.612 1.1l-.066.027c-.225-.056-.611-.2-.859-.285-.952-.345-1.774-.641-2.54-.157a1.542 1.542 0 0 0 -.71 1.164c-.076.791.4 1.418 1.11 2.193-.29-.031-.594-.075-.894-.134a17.182 17.182 0 0 1 -1.786-.528c-1.729-.571-2.684-.889-3.492-.223a1.534 1.534 0 0 0 -.543 1.384 4.347 4.347 0 0 0 1 1.9c.068.092.153.208.24.33a5.1 5.1 0 0 1 -2.7.015 16.7 16.7 0 0 1 -1.074-3.838 1.8 1.8 0 0 0 1.253.485z"/><path d="m29.714 21.5a1.415 1.415 0 1 0 2.2 1.778 9.017 9.017 0 0 1 2.322-2.168 11.173 11.173 0 0 0 5.394 1.246c.131 0 .25 0 .356-.006 1.753-.068 2.76-.517 3.177-1.422a2.311 2.311 0 0 0 .045-1.836 7.2 7.2 0 0 0 3.352-.121c2.03-.718 5.434-4.75 6.4-7.123a3.038 3.038 0 0 0 .124-2.548 2.286 2.286 0 0 0 -1.4-1.14c-2.6-.9-9.9.5-10.879.98-.784.381-1.334 1.266-2.121 2.668a2.711 2.711 0 0 0 -1.184-1.534 1.693 1.693 0 0 0 -2.054.423 14.224 14.224 0 0 0 -2.639 7.964 11.808 11.808 0 0 0 -3.093 2.839zm6.841-7.085c.29.794.733 1.534 1.667 1.634 1.247.149 1.876-.956 2.812-2.631a13.522 13.522 0 0 1 1.082-1.752 29.578 29.578 0 0 1 8.262-.928c-.578 1.562-3.555 5.134-4.756 5.562a7.13 7.13 0 0 1 -2.77-.133c-1.253-.211-3.148-.529-3.491 1.2a2.615 2.615 0 0 0 .786 2.157c-1.422.107-3.991-.289-4.527-.889-.203-.657.329-2.688.935-4.225z"/><path d="m60 3a2 2 0 0 1 2 2v55a2 2 0 0 1 -2 2h-55a2 2 0 0 1 -2-2v-55a2 2 0 0 1 2-2zm0-3h-55a5 5 0 0 0 -5 5v55a5 5 0 0 0 5 5h55a5 5 0 0 0 5-5v-55a5 5 0 0 0 -5-5z"/></g></svg>