<svg xmlns="http://www.w3.org/2000/svg" viewBox="0 0 52.153 53"><defs><style>.a{fill:#1a9ed4;}</style></defs><path class="a" d="M50.1,30.518a1.5,1.5,0,0,0-2.057-.511l-8.657,5.2-.005,0,0,0L34.729,38.01l0,0,0,0-4,2.406,0,0,0,0-4.65,2.795a1.5,1.5,0,0,0-.512,2.059A14.323,14.323,0,1,0,50.1,30.518ZM40.86,42.95a5.9,5.9,0,0,1-7.142-.832l1.508-.907a4.2,4.2,0,0,0,6.734-4.049l1.515-.911A5.9,5.9,0,0,1,40.86,42.95Zm7.952-2.314a11.325,11.325,0,0,1-19.836,4.333L31.1,43.694a8.878,8.878,0,0,0,15-9.021L48.217,33.4A11.237,11.237,0,0,1,48.812,40.636Z"/><path class="a" d="M28.868,39.711c1.261-1.229,5.13-5.861,1.96-13.87-2.656-6.713-8.481-7.11-10.7-7.26A11.357,11.357,0,0,0,8.805,24.774c-3.876,7.668-.44,12.651.705,13.994,3.053,3.592,6.893,3.554,8.946,3.533.25,0,.482-.006.692,0l.175,0c.275.005.581.012.913.012a15.124,15.124,0,0,0,4.675-.675c.165-.052.338-.1.514-.154A7.648,7.648,0,0,0,28.868,39.711Zm-4.279-1.1c-.2.06-.4.117-.589.177a13.17,13.17,0,0,1-4.61.521l-.177,0c-.1,0-.211,0-.324,0l-.462,0c-1.9.025-4.489.045-6.633-2.477-.842-.988-3.352-4.68-.311-10.7a8.36,8.36,0,0,1,8.468-4.552c1.989.136,6.128.417,8.088,5.369,2.487,6.286-.339,9.717-1.265,10.618A4.873,4.873,0,0,1,24.589,38.607Z"/><path class="a" d="M18.051,24.354a1.5,1.5,0,0,0-.449-.009c-.032,0-.064.009-.095.015-3.6.666-6.115,3.289-6.115,6.384s2.522,5.725,6.132,6.387a1.551,1.551,0,0,0,.271.024,1.5,1.5,0,0,0,1.5-1.5V25.833A1.5,1.5,0,0,0,18.051,24.354Zm-1.757,9.193a3.373,3.373,0,0,1-1.9-2.8,3.37,3.37,0,0,1,1.9-2.8Z"/><path class="a" d="M21.533,24.357a1.5,1.5,0,0,0-1.77,1.476v9.822a1.5,1.5,0,0,0,1.5,1.5,1.551,1.551,0,0,0,.271-.024c3.61-.662,6.132-3.288,6.132-6.387S25.144,25.018,21.533,24.357Zm1.23,9.19V27.941a3.369,3.369,0,0,1,1.9,2.8A3.37,3.37,0,0,1,22.763,33.547Z"/><path class="a" d="M5,39.317a4.24,4.24,0,1,0,4.239,4.239A4.245,4.245,0,0,0,5,39.317ZM5,44.8a1.24,1.24,0,1,1,1.239-1.241A1.242,1.242,0,0,1,5,44.8Z"/><path class="a" d="M17.218,43.51a3.4,3.4,0,1,0,3.4,3.4A3.4,3.4,0,0,0,17.218,43.51Zm0,3.8a.4.4,0,1,1,.4-.4A.4.4,0,0,1,17.218,47.31Z"/><path class="a" d="M10.678,48.452a2.274,2.274,0,1,0,2.275,2.273A2.275,2.275,0,0,0,10.678,48.452Zm0,3a.726.726,0,1,1,.727-.727A.727.727,0,0,1,10.678,51.452Z"/><path class="a" d="M32.761,27.423c.088.469.532,1.729,2.749,3.289a6.652,6.652,0,0,0,3.666,1.49,2.213,2.213,0,0,0,.364-.028,1.5,1.5,0,0,0,.958-.584l1.632-2.2a4.464,4.464,0,0,0,4.644.392A4.532,4.532,0,0,0,49.136,26c.151-2.588-1.6-5.382-4.81-7.668a1.981,1.981,0,0,0-.179-.129c-3.227-2.229-6.441-2.924-8.822-1.907a4.538,4.538,0,0,0-2.77,3.511A4.468,4.468,0,0,0,34.5,24.034l-1.516,2.284A1.5,1.5,0,0,0,32.761,27.423Zm2.758-7.156A1.55,1.55,0,0,1,36.5,19.05c.524-.222,2.5-.767,5.961,1.631h0c.035.03.088.07.118.09,3.431,2.443,3.591,4.483,3.557,5.049a1.545,1.545,0,0,1-.81,1.336,1,1,0,0,1-.481.116,1.83,1.83,0,0,0,.1-.187,2.417,2.417,0,0,0-.617-2.476,1.5,1.5,0,0,0-1.19-.586h-.011a1.5,1.5,0,0,0-1.192.605l-3.29,4.423A8.167,8.167,0,0,1,36.005,27.2l3.046-4.59a1.5,1.5,0,0,0-.786-2.255,2.406,2.406,0,0,0-2.538.244,1.548,1.548,0,0,0-.153.162A.983.983,0,0,1,35.519,20.267Z"/><path class="a" d="M5.6,21.133a9.627,9.627,0,0,0,3.383-.612c1.946-.789,1.781-2.106,1.684-2.494a3.272,3.272,0,0,0-.148-.438c.358.105.7.2,1.017.257.865.171,3.79.649,5.025-.3a1.792,1.792,0,0,0,.714-1.317,2.174,2.174,0,0,0-.387-1.318,1.8,1.8,0,0,0,.215-.07c2.527-1,3.612-1.708,4.01-2.627a1.821,1.821,0,0,0,.029-1.408,2,2,0,0,0-1.051-1.07,10.655,10.655,0,0,0,1.336-.711,8.3,8.3,0,0,0,2.858-4.56,2.425,2.425,0,0,0-.278-1.9C23.76,2.2,23,1.089,16.948.818c-1.292-.028-2.115.857-2.792,1.933a2.8,2.8,0,0,0-.5-2.042,1.991,1.991,0,0,0-2.02-.652C10.054.42,8.4,2.615,7.983,4.325c0,.009,0,.02-.007.032a2.984,2.984,0,0,0-.4-.723,1.711,1.711,0,0,0-1.661-.662c-1.2.209-1.782,1.417-2.641,4.045a6.731,6.731,0,0,0,0,2.445c0,.038.006.077.01.118a1.941,1.941,0,0,0-2.16-.416,1.829,1.829,0,0,0-.978,1.162c-.577,1.817.711,7.493,1.7,9.2C2.533,20.728,4.063,21.133,5.6,21.133ZM4.587,14.4a1.694,1.694,0,0,0,1.223-.579c.662-.745.669-1.9.478-4.281a7.441,7.441,0,0,0,.381,1.143A1.678,1.678,0,0,0,8.46,11.727c1.307-.2,1.679-1.395,2.183-4.887a1.6,1.6,0,0,0,.444.731,2.429,2.429,0,0,0,2.1.748C14.606,8.1,15.381,6.7,16.13,5.334a10.243,10.243,0,0,1,.934-1.506,28.315,28.315,0,0,1,4.143.515,5.659,5.659,0,0,1-1.414,2.166,17.816,17.816,0,0,1-2.246,1.062c-1.744.739-2.619,1.11-2.958,1.961a1.729,1.729,0,0,0,.011,1.231,2.137,2.137,0,0,0,1.709,1.163l-.07.028c-.238-.059-.647-.206-.911-.3-1.009-.365-1.88-.681-2.692-.166a1.633,1.633,0,0,0-.752,1.234c-.082.838.422,1.5,1.175,2.324-.307-.033-.629-.08-.948-.143a18.819,18.819,0,0,1-1.894-.559c-1.832-.608-2.843-.943-3.7-.236a1.623,1.623,0,0,0-.575,1.465A4.6,4.6,0,0,0,7,17.592c.072.1.162.218.255.348a5.406,5.406,0,0,1-2.859.016,17.764,17.764,0,0,1-1.139-4.072A1.9,1.9,0,0,0,4.587,14.4Z"/><path class="a" d="M23.124,14.835a1.5,1.5,0,0,0,2.334,1.885,9.534,9.534,0,0,1,2.461-2.3,11.854,11.854,0,0,0,5.716,1.321c.139,0,.266,0,.379-.007,1.832-.071,2.932-.561,3.367-1.508a2.441,2.441,0,0,0,.048-1.945,7.614,7.614,0,0,0,3.553-.128c2.153-.762,5.76-5.035,6.782-7.552a3.218,3.218,0,0,0,.132-2.7A2.425,2.425,0,0,0,46.416.7c-2.77-.952-10.493.531-11.531,1.04-.831.4-1.414,1.342-2.249,2.827A2.875,2.875,0,0,0,31.375,2.94a1.8,1.8,0,0,0-2.178.449,15.078,15.078,0,0,0-2.8,8.441A12.5,12.5,0,0,0,23.124,14.835Zm7.251-7.511c.307.842.777,1.627,1.767,1.731,1.322.163,1.989-1.013,2.981-2.789A14.571,14.571,0,0,1,36.27,4.41a31.45,31.45,0,0,1,8.758-.983c-.614,1.665-3.768,5.447-5.042,5.9a7.565,7.565,0,0,1-2.936-.141c-1.331-.223-3.336-.558-3.7,1.268a2.778,2.778,0,0,0,.834,2.288c-1.51.11-4.232-.307-4.8-.943C29.169,11.105,29.733,8.953,30.375,7.324Z"/></svg>