<svg viewBox="0 0 943.973 254.112" xmlns="http://www.w3.org/2000/svg"><path d="m.001 0h254.111v254.112h-254.111z" fill="#fff"/><g fill="#1a9ed4"><path d="m254.105 0h-254.104l.004 254.112h254.107zm-173.612 116.481s0-23.114 0-23.292c0-3.51-2.846-6.355-6.355-6.355-3.507 0-6.374 2.846-6.374 6.355v23.292h-16.919l-.022-65.644h16.941v19.938c2.017-.568 4.176-.881 6.374-.881 12.863 0 23.294 10.43 23.294 23.295 0 .178.005 23.292.005 23.292s-16.944 0-16.944 0zm122.819 50.824c0 12.863-5.213 24.51-13.646 32.941l-23.956-23.959c2.298-2.303 3.721-5.477 3.721-8.982 0-7.018-5.689-12.707-12.707-12.707h-12.704v-33.88h12.695.009c7.018 0 12.707-5.688 12.707-12.706 0-7.016-5.689-12.705-12.707-12.705-7.016 0-12.704 5.689-12.704 12.705v8.47h-33.882s0-5.577 0-8.47c0-25.727 20.86-46.583 46.586-46.583 25.731 0 46.588 20.856 46.588 46.583 0 11.263-3.995 21.594-10.647 29.645 6.652 8.058 10.647 18.384 10.647 29.648z"/><path d="m333.669 97.572v-24.719c0-5.064-.952-9.386-7.081-9.386-6.272 0-7.751 4.086-7.751 9.485v24.619h-13.542v-45.275h12.639v4.803h.17c2.878-4.636 6.846-6.344 12.309-6.344 3.824 0 8.677 1.445 11.6 3.892 4.3 3.62 5.206 9.319 5.206 14.618v28.308z"/><path d="m401.504 79.034-33.961.023c.829 5.349 5.294 8.533 10.619 8.533 3.66 0 6.042-1.449 8.228-4.184h13.878c-3.92 9.031-11.934 15.639-22.105 15.639-13.216 0-24.002-10.79-24.002-24.006 0-13.118 10.453-24.284 23.767-24.284 13.882 0 23.91 11.067 23.91 24.714-.001 1.188-.098 2.328-.334 3.565m-23.503-16.878c-4.922 0-9.223 2.853-10.299 7.75h20.586c-1.096-4.897-5.417-7.75-10.287-7.75"/><path d="m457.714 97.572h-12.568l-7.586-29.283h-.139l-7.607 29.283h-12.576l-13.88-45.276h14.025l6.794 28.14h.143l7.44-28.14h11.429l7.512 28.14h.146l6.772-28.14h13.954z"/><path d="m333.669 180.215v-24.645c0-4.898-1.381-9.441-7.226-9.441-5.898 0-7.606 3.826-7.606 8.959v25.127h-13.542v-60.396h13.542v19.277h.169c2.358-4.254 7.086-5.709 11.672-5.709 4.416 0 9.386 1.547 12.307 4.967 4.326 4.994 4.233 10.369 4.233 16.545v25.316z"/><path d="m390.546 180.215v-4.904h-.188c-2.431 4.666-8.298 6.451-13.188 6.451-13.956 0-22.798-10.771-22.798-24.252 0-13.213 9.147-24.125 22.798-24.125 4.986 0 10.527 1.855 13.188 6.352h.188v-4.803h13.526v45.281zm-11.433-34.177c-6.604 0-11.169 5.225-11.169 11.646 0 6.299 4.894 11.451 11.246 11.451 6.629 0 11.356-5.082 11.356-11.625 0-6.58-4.822-11.472-11.433-11.472"/><path d="m469.813 180.215v-24.08c0-4.971-.663-10.006-6.941-10.006-6.037 0-7.515 4.252-7.515 9.34v24.746h-13.542v-24.645c0-4.641-1.068-9.441-6.801-9.441-6.276 0-7.648 4.73-7.648 10.006v24.08h-13.554v-45.281h12.648v4.803h.166c2.617-4.658 7.346-6.35 12.502-6.35 5.898 0 10.291 2.922 13.049 8.086 3.277-5.164 8.271-8.086 14.402-8.086 4.445 0 8.679 1.312 11.884 4.541 5.129 5.232 4.873 10.652 4.873 17.541v24.746z"/><path d="m518.967 181.762c-4.664 0-10.6-1.953-12.98-6.354h-.141v4.807h-13.027v-60.399h13.596v18.708c3.492-3.777 8.057-5.139 13.123-5.139 3.275 0 6.535.809 9.555 2.166 8.721 4.115 12.736 12.363 12.736 21.725-.001 13.646-8.743 24.486-22.862 24.486m-1.811-35.724c-6.439 0-11.266 5.061-11.266 11.398 0 6.449 4.416 11.699 11.033 11.699 6.557 0 11.336-5.152 11.336-11.625.001-6.178-4.729-11.472-11.103-11.472"/><path d="m578.287 180.215v-4.807h-.143c-2.373 4.898-6.703 6.275-11.744 6.275-4.99 0-10.023-1.707-13.307-5.725-3.662-4.566-4.09-8.318-4.09-13.93v-27.096h13.549v25.053c0 5.152 1.145 9.053 7.271 9.053 5.609 0 7.752-4.014 7.752-9.219v-24.887h13.545v45.281h-12.833z"/><path d="m614.319 155.325v24.891h-13.522v-45.281h12.719v4.803h.137c2.377-4.658 6.135-6.352 11.367-6.352v13.625c-5.947.161-10.701 1.304-10.701 8.314"/><path d="m674.496 189.696c-4.512 7.582-14.734 10.672-22.955 10.672-7.656 0-15.357-2.352-19.824-8.893-1.473-2.111-2.424-4.488-2.758-7.033h15.641c1.471 3.277 4.562 4.494 7.914 4.494 7.436 0 11.053-5.131 11.053-12.314v-1.4h-.191c-2.354 4.416-7.605 6.463-12.381 6.463-13.572 0-22.867-10.623-22.867-23.838 0-13.258 9.057-24.383 22.867-24.383 4.637 0 9.865 1.543 12.48 5.701h.139v-4.23h13.545v39.814c-.001 5.06-.073 10.431-2.663 14.947m-21.884-43.567c-6.301 0-10.957 5.137-10.957 11.24 0 6.277 4.346 11.674 10.859 11.674 6.537 0 11.1-4.76 11.1-11.289 0-6.515-4.329-11.625-11.002-11.625"/><path d="m708.819 181.612c-13.879 0-24.383-10.219-24.383-24.102 0-13.828 10.504-24.047 24.383-24.047 13.859 0 24.391 10.219 24.391 24.047-.001 13.883-10.532 24.102-24.391 24.102m0-35.483c-6.273 0-10.859 5.27-10.859 11.381 0 6.16 4.586 11.439 10.859 11.439 6.275 0 10.859-5.279 10.859-11.439 0-6.111-4.584-11.381-10.859-11.381"/><path d="m740.623 119.819h13.568v60.396h-13.568z"/><path d="m785.92 181.612c-13.877 0-24.381-10.219-24.381-24.102 0-13.852 10.504-24.047 24.381-24.047 13.904 0 24.418 10.195 24.418 24.047 0 13.883-10.514 24.102-24.418 24.102m0-35.483c-6.275 0-10.836 5.27-10.836 11.381 0 6.16 4.561 11.439 10.836 11.439 6.301 0 10.887-5.279 10.887-11.439 0-6.111-4.586-11.381-10.887-11.381"/><path d="m861.74 189.696c-4.518 7.582-14.691 10.672-22.959 10.672-7.65 0-15.305-2.352-19.801-8.893-1.471-2.111-2.445-4.488-2.779-7.033h15.688c1.428 3.277 4.539 4.494 7.895 4.494 7.412 0 11.023-5.131 11.023-12.314v-1.4h-.189c-2.354 4.416-7.562 6.463-12.412 6.463-13.518 0-22.811-10.623-22.811-23.838 0-13.258 9.055-24.383 22.811-24.383 4.664 0 9.893 1.543 12.508 5.701h.188v-4.23h13.547v39.814c-.001 5.06-.097 10.431-2.709 14.947m-21.863-43.567c-6.271 0-10.961 5.109-10.961 11.24 0 6.277 4.348 11.674 10.867 11.674 6.531 0 11.117-4.76 11.117-11.289.001-6.515-4.347-11.648-11.023-11.625"/><path d="m893.115 195.327h-14.38l7.177-17.395-16.826-42.996h14.469l9.033 26.262h.172l8.672-26.262h14.355z"/><path d="m928.815 135.741c-8.393 0-15.213-6.842-15.213-15.26 0-8.462 6.842-15.258 15.309-15.258 8.314 0 15.062 6.943 15.062 15.258 0 8.418-6.793 15.26-15.158 15.26m.045-27.474c-6.797 0-11.975 5.537-11.975 12.214 0 6.61 5.225 12.223 11.93 12.223 6.699 0 11.881-5.562 11.881-12.223 0-6.58-5.182-12.214-11.836-12.214m2.898 20.534c-.355-.713-.447-3.113-.564-4.041-.242-1.852-1.143-2.47-3.021-2.47h-1.666v6.51h-4.23v-16.942h7.154c3.092 0 6.229 1.234 6.229 4.774 0 1.949-1.004 3.278-2.76 4.089 3.52 1.473 1.922 5.274 2.949 8.079h-4.091zm-2.996-14.046h-2.256v4.777h2.186c1.738 0 2.734-.76 2.734-2.565 0-1.757-1.139-2.212-2.664-2.212"/></g></svg>