<svg viewBox="0 0 254.111 254.112" xmlns="http://www.w3.org/2000/svg"><path d="m254.1 0h-254.1v254.112h254.111zm-173.608 116.481v-23.292a6.365 6.365 0 0 0 -12.729 0v23.292h-16.919l-.022-65.644h16.941v19.938a23.6 23.6 0 0 1 6.374-.881 23.3 23.3 0 0 1 23.294 23.295c0 .178.005 23.292.005 23.292zm122.819 50.824a46.433 46.433 0 0 1 -13.646 32.941l-23.956-23.959a12.705 12.705 0 0 0 -8.986-21.689h-12.7v-33.88h12.7a12.706 12.706 0 1 0 -12.7-12.706v8.47h-33.886v-8.47a46.587 46.587 0 1 1 82.527 29.645 46.4 46.4 0 0 1 10.647 29.648z" fill="#1a9ed4"/></svg>