<?xml version="1.0" encoding="utf-8"?>
<!-- Generator: Adobe Illustrator 23.0.4, SVG Export Plug-In . SVG Version: 6.00 Build 0)  -->
<svg version="1.2" baseProfile="tiny" id="Layer_1" xmlns="http://www.w3.org/2000/svg" xmlns:xlink="http://www.w3.org/1999/xlink"
	 x="0px" y="0px" viewBox="0 0 943.973 254.112" xml:space="preserve">
<rect x="0.001" fill="#FFFFFF" width="254.111" height="254.112"/>
<g>
	<path fill="#1A9ED4" d="M254.105,0H0.001l0.004,254.112h254.107L254.105,0z M80.493,116.481c0,0,0-23.114,0-23.292
		c0-3.51-2.846-6.355-6.355-6.355c-3.507,0-6.374,2.846-6.374,6.355v23.292H50.845l-0.022-65.644h16.941v19.938
		c2.017-0.568,4.176-0.881,6.374-0.881c12.863,0,23.294,10.43,23.294,23.295c0,0.178,0.005,23.292,0.005,23.292
		S80.493,116.481,80.493,116.481z M203.312,167.305c0,12.863-5.213,24.51-13.646,32.941l-23.956-23.959
		c2.298-2.303,3.721-5.477,3.721-8.982c0-7.018-5.689-12.707-12.707-12.707H144.02v-33.88h12.695h0.009
		c7.018,0,12.707-5.688,12.707-12.706c0-7.016-5.689-12.705-12.707-12.705c-7.016,0-12.704,5.689-12.704,12.705v8.47h-33.882
		c0,0,0-5.577,0-8.47c0-25.727,20.86-46.583,46.586-46.583c25.731,0,46.588,20.856,46.588,46.583
		c0,11.263-3.995,21.594-10.647,29.645C199.317,145.715,203.312,156.041,203.312,167.305z"/>
	<g>
		<path fill="#1A9ED4" d="M333.669,97.572V72.853c0-5.064-0.952-9.386-7.081-9.386c-6.272,0-7.751,4.086-7.751,9.485v24.619h-13.542
			V52.296h12.639v4.803h0.17c2.878-4.636,6.846-6.344,12.309-6.344c3.824,0,8.677,1.445,11.6,3.892
			c4.3,3.62,5.206,9.319,5.206,14.618v28.308L333.669,97.572L333.669,97.572L333.669,97.572z"/>
		<path fill="#1A9ED4" d="M401.504,79.034l-33.961,0.023c0.829,5.349,5.294,8.533,10.619,8.533c3.66,0,6.042-1.449,8.228-4.184
			h13.878c-3.92,9.031-11.934,15.639-22.105,15.639c-13.216,0-24.002-10.79-24.002-24.006c0-13.118,10.453-24.284,23.767-24.284
			c13.882,0,23.91,11.067,23.91,24.714C401.837,76.657,401.74,77.797,401.504,79.034 M378.001,62.156
			c-4.922,0-9.223,2.853-10.299,7.75h20.586C387.192,65.009,382.871,62.156,378.001,62.156"/>
		<polygon fill="#1A9ED4" points="457.714,97.572 445.146,97.572 437.56,68.289 437.421,68.289 429.814,97.572 417.238,97.572 
			403.358,52.296 417.383,52.296 424.177,80.436 424.32,80.436 431.76,52.296 443.189,52.296 450.701,80.436 450.847,80.436 
			457.619,52.296 471.573,52.296 		"/>
		<g>
			<path fill="#1A9ED4" d="M333.669,180.215V155.57c0-4.898-1.381-9.441-7.226-9.441c-5.898,0-7.606,3.826-7.606,8.959v25.127
				h-13.542v-60.396h13.542v19.277h0.169c2.358-4.254,7.086-5.709,11.672-5.709c4.416,0,9.386,1.547,12.307,4.967
				c4.326,4.994,4.233,10.369,4.233,16.545v25.316H333.669L333.669,180.215z"/>
			<path fill="#1A9ED4" d="M390.546,180.215v-4.904h-0.188c-2.431,4.666-8.298,6.451-13.188,6.451
				c-13.956,0-22.798-10.771-22.798-24.252c0-13.213,9.147-24.125,22.798-24.125c4.986,0,10.527,1.855,13.188,6.352h0.188v-4.803
				h13.526v45.281H390.546L390.546,180.215z M379.113,146.038c-6.604,0-11.169,5.225-11.169,11.646
				c0,6.299,4.894,11.451,11.246,11.451c6.629,0,11.356-5.082,11.356-11.625C390.546,150.93,385.724,146.038,379.113,146.038"/>
			<path fill="#1A9ED4" d="M469.813,180.215v-24.08c0-4.971-0.663-10.006-6.941-10.006c-6.037,0-7.515,4.252-7.515,9.34v24.746
				h-13.542V155.57c0-4.641-1.068-9.441-6.801-9.441c-6.276,0-7.648,4.73-7.648,10.006v24.08h-13.554v-45.281h12.648v4.803h0.166
				c2.617-4.658,7.346-6.35,12.502-6.35c5.898,0,10.291,2.922,13.049,8.086c3.277-5.164,8.271-8.086,14.402-8.086
				c4.445,0,8.679,1.312,11.884,4.541c5.129,5.232,4.873,10.652,4.873,17.541v24.746L469.813,180.215L469.813,180.215z"/>
			<path fill="#1A9ED4" d="M518.967,181.762c-4.664,0-10.6-1.953-12.98-6.354h-0.141v4.807h-13.027v-60.399h13.596v18.708
				c3.492-3.777,8.057-5.139,13.123-5.139c3.275,0,6.535,0.809,9.555,2.166c8.721,4.115,12.736,12.363,12.736,21.725
				C541.828,170.922,533.086,181.762,518.967,181.762 M517.156,146.038c-6.439,0-11.266,5.061-11.266,11.398
				c0,6.449,4.416,11.699,11.033,11.699c6.557,0,11.336-5.152,11.336-11.625C528.26,151.332,523.53,146.038,517.156,146.038"/>
			<path fill="#1A9ED4" d="M578.287,180.215v-4.807h-0.143c-2.373,4.898-6.703,6.275-11.744,6.275
				c-4.99,0-10.023-1.707-13.307-5.725c-3.662-4.566-4.09-8.318-4.09-13.93v-27.096h13.549v25.053c0,5.152,1.145,9.053,7.271,9.053
				c5.609,0,7.752-4.014,7.752-9.219v-24.887h13.545v45.281h-12.833L578.287,180.215L578.287,180.215z"/>
			<path fill="#1A9ED4" d="M614.319,155.325v24.891h-13.522v-45.281h12.719v4.803h0.137c2.377-4.658,6.135-6.352,11.367-6.352
				v13.625C619.073,147.172,614.319,148.315,614.319,155.325"/>
			<path fill="#1A9ED4" d="M674.496,189.696c-4.512,7.582-14.734,10.672-22.955,10.672c-7.656,0-15.357-2.352-19.824-8.893
				c-1.473-2.111-2.424-4.488-2.758-7.033H644.6c1.471,3.277,4.562,4.494,7.914,4.494c7.436,0,11.053-5.131,11.053-12.314v-1.4
				h-0.191c-2.354,4.416-7.605,6.463-12.381,6.463c-13.572,0-22.867-10.623-22.867-23.838c0-13.258,9.057-24.383,22.867-24.383
				c4.637,0,9.865,1.543,12.48,5.701h0.139v-4.23h13.545v39.814C677.158,179.809,677.086,185.18,674.496,189.696 M652.612,146.129
				c-6.301,0-10.957,5.137-10.957,11.24c0,6.277,4.346,11.674,10.859,11.674c6.537,0,11.1-4.76,11.1-11.289
				C663.614,151.239,659.285,146.129,652.612,146.129"/>
			<path fill="#1A9ED4" d="M708.819,181.612c-13.879,0-24.383-10.219-24.383-24.102c0-13.828,10.504-24.047,24.383-24.047
				c13.859,0,24.391,10.219,24.391,24.047C733.209,171.393,722.678,181.612,708.819,181.612 M708.819,146.129
				c-6.273,0-10.859,5.27-10.859,11.381c0,6.16,4.586,11.439,10.859,11.439c6.275,0,10.859-5.279,10.859-11.439
				C719.678,151.399,715.094,146.129,708.819,146.129"/>
		</g>
		<rect x="740.623" y="119.819" fill="#1A9ED4" width="13.568" height="60.396"/>
		<g>
			<path fill="#1A9ED4" d="M785.92,181.612c-13.877,0-24.381-10.219-24.381-24.102c0-13.852,10.504-24.047,24.381-24.047
				c13.904,0,24.418,10.195,24.418,24.047C810.338,171.393,799.824,181.612,785.92,181.612 M785.92,146.129
				c-6.275,0-10.836,5.27-10.836,11.381c0,6.16,4.561,11.439,10.836,11.439c6.301,0,10.887-5.279,10.887-11.439
				C796.807,151.399,792.221,146.129,785.92,146.129"/>
			<path fill="#1A9ED4" d="M861.74,189.696c-4.518,7.582-14.691,10.672-22.959,10.672c-7.65,0-15.305-2.352-19.801-8.893
				c-1.471-2.111-2.445-4.488-2.779-7.033h15.688c1.428,3.277,4.539,4.494,7.895,4.494c7.412,0,11.023-5.131,11.023-12.314v-1.4
				h-0.189c-2.354,4.416-7.562,6.463-12.412,6.463c-13.518,0-22.811-10.623-22.811-23.838c0-13.258,9.055-24.383,22.811-24.383
				c4.664,0,9.893,1.543,12.508,5.701h0.188v-4.23h13.547v39.814C864.448,179.809,864.352,185.18,861.74,189.696 M839.877,146.129
				c-6.271,0-10.961,5.109-10.961,11.24c0,6.277,4.348,11.674,10.867,11.674c6.531,0,11.117-4.76,11.117-11.289
				C850.901,151.239,846.553,146.106,839.877,146.129"/>
		</g>
		<polygon fill="#1A9ED4" points="893.115,195.327 878.735,195.327 885.912,177.932 869.086,134.936 883.555,134.936 
			892.588,161.198 892.76,161.198 901.432,134.936 915.787,134.936 		"/>
		<g>
			<path fill="#1A9ED4" d="M928.815,135.741c-8.393,0-15.213-6.842-15.213-15.26c0-8.462,6.842-15.258,15.309-15.258
				c8.314,0,15.062,6.943,15.062,15.258C943.973,128.899,937.18,135.741,928.815,135.741 M928.86,108.267
				c-6.797,0-11.975,5.537-11.975,12.214c0,6.61,5.225,12.223,11.93,12.223c6.699,0,11.881-5.562,11.881-12.223
				C940.696,113.901,935.514,108.267,928.86,108.267 M931.758,128.801c-0.355-0.713-0.447-3.113-0.564-4.041
				c-0.242-1.852-1.143-2.47-3.021-2.47h-1.666v6.51h-4.23v-16.942h7.154c3.092,0,6.229,1.234,6.229,4.774
				c0,1.949-1.004,3.278-2.76,4.089c3.52,1.473,1.922,5.274,2.949,8.079h-4.091L931.758,128.801L931.758,128.801z M928.762,114.755
				h-2.256v4.777h2.186c1.738,0,2.734-0.76,2.734-2.565C931.426,115.21,930.287,114.755,928.762,114.755"/>
		</g>
	</g>
</g>
</svg>
