<svg xmlns="http://www.w3.org/2000/svg" viewBox="0 0 27 53"><defs><style>.a{fill:#1a9ed4;}</style></defs><path class="a" d="M26.992,25.417c0-.037-.007-.073-.011-.11a1.445,1.445,0,0,0-.067-.287c-.008-.024-.013-.049-.022-.072a1.518,1.518,0,0,0-.177-.321c-.006-.009-.009-.019-.015-.027L21,17V13.5A1.5,1.5,0,0,0,19.5,12H7.5A1.5,1.5,0,0,0,6,13.5V17L.3,24.6a.234.234,0,0,0-.015.027,1.518,1.518,0,0,0-.177.321C.1,24.971.094,25,.086,25.02a1.445,1.445,0,0,0-.067.287c0,.037-.009.073-.011.11S0,25.471,0,25.5v20a1.471,1.471,0,0,0,.032.306l0,.018a1.452,1.452,0,0,0,.109.311c.005.011.006.024.012.036l3,6A1.5,1.5,0,0,0,4.5,53h18a1.5,1.5,0,0,0,1.342-.829l3-6c.006-.012.007-.025.012-.036a1.469,1.469,0,0,0,.109-.313l0-.015A1.48,1.48,0,0,0,27,45.5v-20C27,25.471,26.993,25.445,26.992,25.417ZM11.781,50l-.506-3h4.45l-.506,3ZM3,44V33H24V44Zm8.422-25H12v5H9.631Zm4.156,0,1.791,5H15V19ZM24,27v3H3V27Zm-3.444-3-1.778-4.963L22.5,24ZM9,15h9v1H9Zm-.778,4.037L6.444,24H4.5ZM3.927,47H8.232l.506,3H5.427Zm17.646,3H18.262l.506-3h4.305Z"/><path class="a" d="M7.5,11h12a1.5,1.5,0,0,0,0-3H17.248L15.975,1.223A1.5,1.5,0,0,0,14.5,0h-2a1.5,1.5,0,0,0-1.475,1.223L9.751,8H7.5a1.5,1.5,0,0,0,0,3Zm6-6.7L14.2,8h-1.39Z"/></svg>