<svg viewBox="0 0 65 65" xmlns="http://www.w3.org/2000/svg"><g fill="#1a9ed4"><path d="m45.228 31.478c0-.035-.006-.069-.01-.1a1.425 1.425 0 0 0 -.063-.271c-.008-.023-.012-.046-.021-.069a1.41 1.41 0 0 0 -.167-.3c-.006-.008-.008-.018-.014-.026l-5.378-7.17v-3.3a1.415 1.415 0 0 0 -1.415-1.415h-11.32a1.415 1.415 0 0 0 -1.415 1.415v3.3l-5.378 7.17c-.006.008-.008.018-.014.026a1.41 1.41 0 0 0 -.167.3c-.009.023-.013.046-.021.069a1.358 1.358 0 0 0 -.062.27c-.005.035-.009.069-.011.1s-.008.052-.008.079v18.869a1.453 1.453 0 0 0 .03.289v.016a1.451 1.451 0 0 0 .1.293c.006.011.007.023.012.034l2.831 5.661a1.414 1.414 0 0 0 1.265.782h16.989a1.414 1.414 0 0 0 1.265-.782l2.831-5.661c0-.01.006-.023.012-.034a1.336 1.336 0 0 0 .1-.3l.005-.014a1.453 1.453 0 0 0 .03-.289v-18.863c.002-.027-.005-.052-.006-.079zm-14.35 23.192-.478-2.83h4.2l-.477 2.83zm-8.284-5.661v-10.377h19.812v10.377zm7.946-23.584h.545v4.717h-2.235zm3.92 0 1.69 4.717h-2.235v-4.717zm7.946 7.547v2.828h-19.812v-2.83zm-3.249-2.83-1.678-4.682 3.512 4.682zm-10.9-8.491h8.49v.943h-8.49zm-.734 3.809-1.678 4.682h-1.836zm-4.054 26.38h4.061l.477 2.83h-3.123zm16.647 2.83h-3.123l.477-2.83h4.061z"/><path d="m26.84 17.877h11.32a1.415 1.415 0 0 0 0-2.83h-2.124l-1.2-6.394a1.418 1.418 0 0 0 -1.393-1.153h-1.886a1.418 1.418 0 0 0 -1.392 1.153l-1.2 6.394h-2.125a1.415 1.415 0 0 0 0 2.83zm5.66-6.32.656 3.49h-1.312z"/><path d="m60 3a2 2 0 0 1 2 2v55a2 2 0 0 1 -2 2h-55a2 2 0 0 1 -2-2v-55a2 2 0 0 1 2-2zm0-3h-55a5 5 0 0 0 -5 5v55a5 5 0 0 0 5 5h55a5 5 0 0 0 5-5v-55a5 5 0 0 0 -5-5z"/></g></svg>