<svg xmlns="http://www.w3.org/2000/svg" viewBox="0 0 314.403 746.662"><defs><style>.a{fill:#0092d5;}</style></defs><path class="a" d="M314.392,353.811c0-.266-.011-.531-.025-.8-.01-.175-.02-.35-.034-.526-.009-.109-.013-.219-.024-.328s-.026-.191-.037-.287c-.03-.252-.06-.5-.1-.756-.026-.162-.057-.323-.086-.484-.006-.03-.013-.06-.018-.09-.035-.182-.069-.364-.109-.545s-.088-.38-.135-.569-.1-.377-.153-.565c-.03-.106-.053-.212-.085-.317-.047-.156-.106-.306-.157-.46-.059-.175-.115-.35-.179-.524-.041-.113-.082-.225-.126-.337-.025-.064-.055-.127-.08-.191-.077-.191-.155-.381-.238-.568-.089-.2-.183-.4-.279-.6q-.1-.21-.208-.418c-.024-.045-.045-.091-.069-.137-.071-.135-.142-.27-.216-.4-.174-.312-.353-.624-.546-.928l-63.239-99.7V190.093a18.731,18.731,0,0,0-18.732-18.731H84.884a18.731,18.731,0,0,0-18.731,18.731v54.189l-63.24,99.7c-.193.3-.371.616-.545.928-.074.133-.145.268-.216.4-.024.046-.046.092-.069.137q-.107.209-.209.418c-.1.2-.19.4-.278.6-.083.187-.161.377-.238.568-.026.064-.055.127-.08.191-.044.112-.085.224-.126.337-.064.174-.121.349-.179.524-.052.154-.11.3-.158.46-.031.105-.055.211-.085.317-.054.188-.1.376-.152.565s-.094.379-.136.569-.074.363-.108.545l-.018.09c-.03.161-.061.322-.086.484-.039.251-.07.5-.1.756-.011.1-.028.191-.037.287s-.015.219-.024.328c-.014.176-.025.351-.034.526q-.021.4-.026.8c0,.069-.01.135-.01.2V671.593c0,.061.008.119.009.18.005.54.03,1.08.082,1.618.013.141.035.279.052.42q.072.609.185,1.213c.034.183.065.366.1.548.1.478.224.952.365,1.421.057.19.124.375.187.563.11.324.227.646.355.966.076.193.151.386.234.575.2.448.407.891.639,1.326.071.133.151.26.225.392.128.225.252.453.39.675l35.055,56.334a18.739,18.739,0,0,0,15.9,8.834h68.838c.03,0,.059,0,.089,0s.05,0,.075,0h68.83c.025,0,.051,0,.076,0s.059,0,.089,0h68.833a18.74,18.74,0,0,0,15.9-8.834l35.055-56.334c.138-.222.261-.45.389-.675.075-.132.154-.259.226-.392.232-.435.442-.878.638-1.326.083-.189.158-.382.235-.575.128-.32.245-.642.354-.966.063-.188.13-.373.187-.563.142-.469.262-.943.366-1.421.039-.182.071-.365.1-.548q.113-.6.185-1.213c.017-.141.039-.279.052-.42.052-.538.077-1.078.082-1.618,0-.061.009-.119.009-.18V354.015C314.4,353.946,314.393,353.88,314.392,353.811ZM137.973,709.2l-3.916-18.872h46.286L176.429,709.2Zm-26.929-56.334H37.462V435.64H276.94V652.862ZM219.217,268.453l42.391,66.831h-21.46l-21.2-66.831ZM276.94,398.177H37.462v-25.43h50.4l.1,0,.1,0H226.335c.033,0,.065,0,.1,0l.1,0h50.4ZM179.651,268.453l21.195,66.831H175.934V268.453Zm-41.179,0v66.831H113.557l21.2-66.831Zm-43.287,0h.265l-21.2,66.831H52.794Zm8.43-59.629H210.787v22.167H121.215c-.06,0-.121,0-.182,0H103.615Zm-51.169,481.5H95.8L99.718,709.2H64.19ZM250.213,709.2H214.691l3.914-18.872h43.351Z"/><path class="a" d="M84.884,154.738H229.518a18.732,18.732,0,1,0,0-37.463H208.853L193.711,15.962A18.731,18.731,0,0,0,175.187,0H139.22A18.732,18.732,0,0,0,120.7,15.962L105.553,117.275H84.884a18.732,18.732,0,0,0,0,37.463ZM155.357,37.462h3.693l11.926,79.813H143.43Z"/></svg>