<svg viewBox="0 0 65 65" xmlns="http://www.w3.org/2000/svg"><g fill="#1a9ed4"><path d="m32.5 57.5a25 25 0 1 1 25-25 25.028 25.028 0 0 1 -25 25zm0-47.17a22.17 22.17 0 1 0 22.17 22.17 22.195 22.195 0 0 0 -22.17-22.17z"/><path d="m32.5 49.953a17.453 17.453 0 1 1 17.453-17.453 17.472 17.472 0 0 1 -17.453 17.453zm0-32.076a14.623 14.623 0 1 0 14.623 14.623 14.64 14.64 0 0 0 -14.623-14.623z"/><path d="m60 3a2 2 0 0 1 2 2v55a2 2 0 0 1 -2 2h-55a2 2 0 0 1 -2-2v-55a2 2 0 0 1 2-2zm0-3h-55a5 5 0 0 0 -5 5v55a5 5 0 0 0 5 5h55a5 5 0 0 0 5-5v-55a5 5 0 0 0 -5-5z"/></g></svg>