<svg viewBox="0 0 65 65" xmlns="http://www.w3.org/2000/svg"><g fill="#1a9ed4"><path d="m60 3a2 2 0 0 1 2 2v55a2 2 0 0 1 -2 2h-55a2 2 0 0 1 -2-2v-55a2 2 0 0 1 2-2zm0-3h-55a5 5 0 0 0 -5 5v55a5 5 0 0 0 5 5h55a5 5 0 0 0 5-5v-55a5 5 0 0 0 -5-5z"/><path d="m45.122 38.546-5.547-12.941v-9.614h.472a1.416 1.416 0 0 0 1.415-1.416v-5.66a1.416 1.416 0 0 0 -1.415-1.415h-15.094a1.416 1.416 0 0 0 -1.415 1.415v5.66a1.416 1.416 0 0 0 1.415 1.416h.472v9.614l-5.547 12.941a1.424 1.424 0 0 0 -.114.558v13.996a1.415 1.415 0 0 0 .388.973l2.83 2.987a1.412 1.412 0 0 0 1.027.442h16.982a1.411 1.411 0 0 0 1-.415l2.83-2.83a1.411 1.411 0 0 0 .415-1v-14.157a1.424 1.424 0 0 0 -.114-.554zm-16.867-16.895h8.49v2.83h-8.49zm-1.887-11.321h12.264v2.83h-12.264zm10.377 5.661v2.83h-8.49v-2.83zm5.661 36.678-2 2h-15.788l-2.024-2.136v-13.139l5.179-12.083h9.454l5.179 12.083z"/><path d="m32.5 33.915a4.253 4.253 0 0 0 -4 2.83h-1.66a1.415 1.415 0 0 0 -1.415 1.415v13.208a1.415 1.415 0 0 0 1.415 1.415h11.32a1.415 1.415 0 0 0 1.415-1.415v-13.208a1.415 1.415 0 0 0 -1.415-1.415h-1.66a4.253 4.253 0 0 0 -4-2.83zm4.245 16.038h-8.49v-10.378h1.415a1.415 1.415 0 0 0 1.415-1.415 1.415 1.415 0 0 1 2.83 0 1.415 1.415 0 0 0 1.415 1.415h1.415z"/></g></svg>