<?xml version="1.0" encoding="utf-8"?>
<!-- Generator: Adobe Illustrator 22.0.0, SVG Export Plug-In . SVG Version: 6.00 Build 0)  -->
<svg version="1.1" id="Layer_1" xmlns="http://www.w3.org/2000/svg" xmlns:xlink="http://www.w3.org/1999/xlink" x="0px" y="0px"
	 viewBox="0 0 68.7 68.7" style="enable-background:new 0 0 68.7 68.7;" xml:space="preserve">
<style type="text/css">
	.st0{fill:#DCDCDC;}
	.st1{fill:#FFFFFF;}
</style>
<g>
	<g>
		<path class="st0" d="M34.3,68.8C15.4,68.7,0,53.3,0,34.4C0,15.4,15.4,0,34.4,0c18.9,0,34.3,15.4,34.3,34.4S53.3,68.8,34.3,68.8z"
			/>
	</g>
</g>
<path class="st1" d="M53.6,45.7c-2.2,0-4-1.8-4-4V31.5c0-7.3-5.2-13.4-12.1-14.9c0.5-0.6,0.8-1.4,0.8-2.3c0-2.2-1.8-4-4-4
	s-4,1.8-4,4c0,0.8,0.3,1.6,0.8,2.3c-6.9,1.5-12,7.6-12.1,14.9v10.3c0,2.2-1.8,4-4,4V50h12.3c0,0.1,0,0.3,0,0.4c0,4,3.1,7.1,7.1,7.1
	s7.1-3.1,7.1-7.1c0-0.1,0-0.3,0-0.4h12.1V45.7z M39.5,50.4c0,2.9-2.2,5.1-5.1,5.1s-5.1-2.2-5.1-5.1c0-0.1,0-0.3,0-0.4h5.1h5.1
	C39.5,50.1,39.5,50.3,39.5,50.4z"/>
</svg>
