<?xml version="1.0" encoding="utf-8"?>
<!-- Generator: Adobe Illustrator 21.1.0, SVG Export Plug-In . SVG Version: 6.00 Build 0)  -->
<svg version="1.1" id="Layer_1" xmlns="http://www.w3.org/2000/svg" xmlns:xlink="http://www.w3.org/1999/xlink" x="0px" y="0px"
	 viewBox="0 0 68.7 68.7" style="enable-background:new 0 0 68.7 68.7;" xml:space="preserve">
<style type="text/css">
	.st0{fill:#1A9ED4;}
</style>
<g>
	<g>
		<path class="st0" d="M34.3,68.8C15.4,68.7,0,53.3,0,34.4C0,15.4,15.4,0,34.4,0c18.9,0,34.3,15.4,34.3,34.4S53.3,68.8,34.3,68.8z
			 M34.4,2C16.5,2,2,16.5,2,34.4c0,17.8,14.5,32.3,32.3,32.4c17.9,0,32.4-14.5,32.4-32.4C66.7,16.5,52.2,2,34.4,2z"/>
	</g>
</g>
<g>
	<g>
		<path class="st0" d="M32,49.1c0,0.5-0.4,0.9-0.9,0.9H20.7c-0.5,0-0.9-0.4-0.9-0.9V19.6c0-0.5,0.4-0.9,0.9-0.9H31
			c0.5,0,0.9,0.4,0.9,0.9V49.1z"/>
	</g>
	<g>
		<path class="st0" d="M48.9,49.1c0,0.5-0.4,0.9-0.9,0.9H37.7c-0.5,0-0.9-0.4-0.9-0.9V19.6c0-0.5,0.4-0.9,0.9-0.9H48
			c0.5,0,0.9,0.4,0.9,0.9V49.1z"/>
	</g>
</g>
</svg>
