<?xml version="1.0" encoding="utf-8"?>
<!-- Generator: Adobe Illustrator 22.0.0, SVG Export Plug-In . SVG Version: 6.00 Build 0)  -->
<svg version="1.1" id="Layer_1" xmlns="http://www.w3.org/2000/svg" xmlns:xlink="http://www.w3.org/1999/xlink" x="0px" y="0px"
	 viewBox="0 0 68.7 68.7" style="enable-background:new 0 0 68.7 68.7;" xml:space="preserve">
<style type="text/css">
	.st0{fill:#1A9ED4;}
</style>
<g>
	<g>
		<path class="st0" d="M34.3,68.8C15.4,68.7,0,53.3,0,34.4C0,15.4,15.4,0,34.4,0c18.9,0,34.3,15.4,34.3,34.4S53.3,68.8,34.3,68.8z
			 M34.4,2C16.5,2,2,16.5,2,34.4c0,17.8,14.5,32.3,32.3,32.4c17.9,0,32.4-14.5,32.4-32.4S52.2,2,34.4,2z"/>
	</g>
</g>
<path class="st0" d="M53.7,45.8c-2.2,0-4-1.8-4-4V31.5c0-7.3-5.2-13.5-12.1-14.9c0.5-0.7,0.8-1.5,0.8-2.3c0-2.2-1.8-4-4-4
	s-4,1.8-4,4c0,0.9,0.3,1.7,0.8,2.3c-6.9,1.5-12.1,7.6-12.1,14.9v10.2c0,2.2-1.8,4-4,4V50h12.3c0,0.1,0,0.3,0,0.4
	c0,3.9,3.2,7.1,7.1,7.1c3.9,0,7.1-3.2,7.1-7.1c0-0.1,0-0.3,0-0.4h12.3V45.8z M39.4,50.4c0,2.8-2.3,5.1-5.1,5.1
	c-2.8,0-5.1-2.3-5.1-5.1c0-0.1,0-0.3,0-0.4h5h5C39.4,50.1,39.4,50.3,39.4,50.4z"/>
</svg>
