<?xml version="1.0" encoding="utf-8"?>
<!-- Generator: Adobe Illustrator 21.0.2, SVG Export Plug-In . SVG Version: 6.00 Build 0)  -->
<svg version="1.2" baseProfile="tiny" id="Layer_1" xmlns="http://www.w3.org/2000/svg" xmlns:xlink="http://www.w3.org/1999/xlink"
	 x="0px" y="0px" viewBox="0 0 68.7 68.7" xml:space="preserve">
<path fill="#1A9ED4" d="M34.3999-0.00002C15.43164-0.00002,0,15.43163,0,34.39989c0,18.86572,15.38428,34.29736,34.2998,34.3999
	c18.96875,0,34.40039-15.43164,34.40039-34.3999S53.31348-0.00002,34.3999-0.00002z M43.61823,35.91057v5.44879H29.83459v-5.44879
	H43.61823z M29.83459,33.88603v-5.4483h13.78363v5.4483H29.83459z M43.61823,43.3839v5.44781H29.83459V43.3839H43.61823z
	 M43.61823,50.85625v5.44879H29.83459v-5.44879H43.61823z M43.61823,58.32951v5.44879H29.83459v-5.44879H43.61823z
	 M45.64276,63.77831v-5.44879H56.12c-2.41901,2.20782-5.17548,4.04901-8.17767,5.44879H45.64276z M45.64276,56.30504v-5.44879
	h13.78412v3.97046c-0.41174,0.50555-0.83777,0.99872-1.27863,1.47833H45.64276z M59.42688,35.91057v5.44879H45.64276v-5.44879
	H59.42688z M45.64276,33.88603v-5.4483h13.78412v5.4483H45.64276z M59.42688,43.3839v5.44781H45.64276V43.3839H59.42688z
	 M61.45135,48.83171V43.3839h3.97192c-0.54718,1.89252-1.26031,3.71405-2.12677,5.44781H61.45135z M62.19379,50.85625
	c-0.23871,0.40308-0.487,0.7995-0.74243,1.19122v-1.19122H62.19379z M61.45135,41.35936v-5.44879h5.21051
	c-0.08594,1.86182-0.33386,3.68109-0.72241,5.44879H61.45135z M61.45135,33.88603v-5.4483h4.69128
	c0.32983,1.77045,0.5155,3.59021,0.54456,5.4483H61.45135z M2,34.39989c0-17.86523,14.53467-32.3999,32.3999-32.3999
	c12.23254,0,22.89825,6.85699,28.37933,16.93994H12.00195V57.7332C5.84607,51.82884,2,43.54619,2,34.39989z M27.81012,43.3839
	v5.44781H14.02649V43.3839H27.81012z M14.02649,41.35936v-5.44879h13.78363v5.44879H14.02649z M27.81012,50.85625v5.44879H14.02649
	v-5.44879H27.81012z M27.81012,58.32951v5.44879h-6.97974c-2.44757-1.13873-4.7312-2.57007-6.80389-4.25342v-1.19537H27.81012z
	 M27.81012,65.80284v0.30713c-0.43793-0.09186-0.87067-0.19775-1.302-0.30713H27.81012z M27.81012,33.88603H14.02649v-5.4483
	h13.78363V33.88603z M29.83459,66.45982v-0.65698h12.44873c-2.55341,0.64935-5.22583,0.99695-7.97815,0.99695
	C32.78778,66.79155,31.29694,66.6707,29.83459,66.45982z"/>
</svg>
