<?xml version="1.0" encoding="utf-8"?>
<!-- Generator: Adobe Illustrator 22.0.0, SVG Export Plug-In . SVG Version: 6.00 Build 0)  -->
<svg version="1.1" id="Layer_1" xmlns="http://www.w3.org/2000/svg" xmlns:xlink="http://www.w3.org/1999/xlink" x="0px" y="0px"
	 viewBox="0 0 68.7 68.7" style="enable-background:new 0 0 68.7 68.7;" xml:space="preserve">
<style type="text/css">
	.st0{fill:#1A9ED4;}
</style>
<g>
	<g>
		<path class="st0" d="M34.3,68.8C15.4,68.6,0,53.2,0,34.3c0-19,15.4-34.4,34.4-34.4c18.9,0,34.3,15.4,34.3,34.4
			S53.3,68.8,34.3,68.8z M34.4,1.9C16.5,1.9,2,16.4,2,34.3c0,17.8,14.5,32.3,32.3,32.4c17.9,0,32.4-14.5,32.4-32.4
			S52.2,1.9,34.4,1.9z"/>
	</g>
</g>
<g>
	<path class="st0" d="M50.7,17.4h-8.6v-4.6c0-0.9-0.8-1.7-1.7-1.7H28.3c-0.9,0-1.7,0.8-1.7,1.7v4.6H18c-0.8,0-1.5,0.7-1.5,1.5v1.8
		c0,0.8,0.7,1.5,1.5,1.5h32.6c0.8,0,1.5-0.7,1.5-1.5v-1.8C52.2,18.1,51.5,17.4,50.7,17.4z M30,14.5h8.8v2.9H30V14.5z"/>
	<path class="st0" d="M19.9,24.6v27.2c0,2.1,1.7,3.8,3.8,3.8h21.4c2.1,0,3.8-1.7,3.8-3.8V24.6H19.9z M27.7,50.1
		c0,0.8-0.7,1.5-1.5,1.5h-0.8c-0.8,0-1.5-0.7-1.5-1.5V28.2h3.8V50.1z M36.2,50.1c0,0.8-0.7,1.5-1.5,1.5H34c-0.8,0-1.5-0.7-1.5-1.5
		V28.2h3.8V50.1z M44.7,50.1c0,0.8-0.7,1.5-1.5,1.5h-0.8c-0.8,0-1.5-0.7-1.5-1.5V28.2h3.8V50.1z"/>
</g>
</svg>
