<?xml version="1.0" encoding="utf-8"?>
<!-- Generator: Adobe Illustrator 21.1.0, SVG Export Plug-In . SVG Version: 6.00 Build 0)  -->
<svg version="1.1" id="Layer_1" xmlns="http://www.w3.org/2000/svg" xmlns:xlink="http://www.w3.org/1999/xlink" x="0px" y="0px"
	 viewBox="0 0 29 29" style="enable-background:new 0 0 29 29;" xml:space="preserve">
<style type="text/css">
	.st0{fill:#FFFFFF;}
</style>
<g>
	<circle class="st0" cx="14.5" cy="5.5" r="5.5"/>
	<path class="st0" d="M19.4,12.9c0-0.1,0-0.2,0-0.3c-0.5-0.2-1-0.3-1.5-0.4c-1,0.8-2.2,1.3-3.5,1.3S12,13,11,12.2
		c-4.1,0.9-7,3.4-7,6.3c0,0,4.7,4.7,10.5,4.7S25,18.5,25,18.5c0-0.5-0.1-0.9-0.2-1.4c-0.3,0.1-0.7,0.1-1,0.1
		C21.4,17.3,19.4,15.3,19.4,12.9z"/>
</g>
<g>
	<path class="st0" d="M23.8,9.4c-2,0-3.5,1.6-3.5,3.5c0,1.9,1.6,3.5,3.5,3.5c1.9,0,3.5-1.6,3.5-3.5C27.3,11,25.7,9.4,23.8,9.4z
		 M23.4,10.4c0-0.3,0.2-0.4,0.4-0.4c0.2,0,0.4,0.1,0.4,0.4v2.7c0,0.3-0.2,0.4-0.4,0.4c-0.2,0-0.4-0.1-0.4-0.4V10.4z M23.8,15.3
		c-1.3,0-2.4-1.1-2.4-2.4c0-1.1,0.7-2,1.6-2.3v0.8c-0.5,0.3-0.9,0.8-0.9,1.5c0,0.9,0.7,1.7,1.7,1.7c0.9,0,1.7-0.7,1.7-1.7
		c0-0.6-0.4-1.2-0.9-1.5v-0.8c0.9,0.3,1.6,1.2,1.6,2.3C26.2,14.2,25.1,15.3,23.8,15.3z"/>
</g>
</svg>
