<?xml version="1.0" encoding="utf-8"?>
<!-- Generator: Adobe Illustrator 21.0.2, SVG Export Plug-In . SVG Version: 6.00 Build 0)  -->
<svg version="1.2" baseProfile="tiny" id="Layer_1" xmlns="http://www.w3.org/2000/svg" xmlns:xlink="http://www.w3.org/1999/xlink"
	 x="0px" y="0px" viewBox="0 0 68.7 68.7" xml:space="preserve">
<g>
	<g>
		<path fill="#1A9ED4" d="M34.2998,68.7998C15.38428,68.69727,0,53.26562,0,34.3999C0,15.43164,15.43164,0,34.3999,0
			C53.31348,0,68.7002,15.43164,68.7002,34.3999S53.26855,68.7998,34.2998,68.7998z M34.3999,2C16.53467,2,2,16.53467,2,34.3999
			c0,17.76904,14.49219,32.30322,32.30518,32.3999c17.85986,0,32.39502-14.53418,32.39502-32.3999
			C66.7002,16.53467,52.20996,2,34.3999,2z"/>
	</g>
</g>
<g>
	<polygon fill="#1A9ED4" points="34.3,13.8 40.7,26.7 54.9,28.7 44.6,38.8 47,52.9 34.3,46.2 21.7,52.9 24.1,38.8 13.8,28.7 
		28,26.7 	"/>
</g>
</svg>
