<?xml version="1.0" encoding="utf-8"?>
<!-- Generator: Adobe Illustrator 21.0.2, SVG Export Plug-In . SVG Version: 6.00 Build 0)  -->
<svg version="1.1" id="Layer_1" xmlns="http://www.w3.org/2000/svg" xmlns:xlink="http://www.w3.org/1999/xlink" x="0px" y="0px"
	 viewBox="0 0 68.7 68.7" style="enable-background:new 0 0 68.7 68.7;" xml:space="preserve">
<style type="text/css">
	.st0{fill:none;stroke:#1A9ED4;stroke-width:2;}
	.st1{fill:none;stroke:#1A9ED4;}
	.st2{fill:none;stroke:#1A9ED4;stroke-width:0.5;}
	.st3{fill:#1A9ED4;}
	.st4{fill:#FFFFFF;}
</style>
<g>
	<path class="st0" d="M67.7,34.4c0,18.4-14.9,33.4-33.4,33.4C15.9,67.7,1,52.8,1,34.4C1,15.9,15.9,1,34.4,1
		C52.8,1,67.7,15.9,67.7,34.4z"/>
	<path class="st1" d="M58.2,34.4c0,13.2-10.7,23.9-23.9,23.9S10.4,47.6,10.4,34.4s10.7-23.9,23.9-23.9
		C47.5,10.5,58.2,21.2,58.2,34.4z"/>
	<circle class="st2" cx="34.4" cy="34.4" r="19.4"/>
</g>
<g>
	<path class="st3" d="M35,47.4c-0.7,0-1.3-0.2-1.7-0.6L18.4,31.8l0-0.1c-0.8-1.3-0.7-2.8,0.1-3.7l4.6-4.6l0.1,0
		c0.6-0.4,1.3-0.6,1.9-0.6c0.7,0,1.3,0.2,1.7,0.6l8.6,8.6L58.9,8.6l0.1,0C59.6,8.2,60.3,8,60.9,8c0.7,0,1.3,0.2,1.7,0.6l4.5,4.5
		c0.6,0.4,1,1,1,1.7c0,0.7-0.4,1.3-1,1.7L37,46.8l-0.1,0C36.4,47.2,35.7,47.4,35,47.4z"/>
	<path class="st4" d="M60.9,8.5c0.5,0,1,0.2,1.4,0.5l4.6,4.6c1.1,0.7,1.1,2,0,2.6L41.3,41.8l-4.6,4.6c-0.5,0.3-1.1,0.5-1.7,0.5
		s-1-0.2-1.4-0.5l-4.6-4.6L18.8,31.5c-0.7-1.1-0.7-2.4,0-3.1l4.6-4.6c0.5-0.3,1.1-0.5,1.7-0.5s1,0.2,1.4,0.5l9,9L59.2,9
		C59.8,8.7,60.4,8.5,60.9,8.5 M60.9,7.5c-0.7,0-1.5,0.2-2.2,0.6l-0.1,0.1l-0.1,0.1L35.4,31.4l-8.2-8.2c-0.5-0.5-1.2-0.8-2.1-0.8
		c-0.7,0-1.5,0.2-2.2,0.6l-0.1,0.1l-0.1,0.1l-4.6,4.6c-1,1-1,2.8-0.2,4.3l0.1,0.1l0.1,0.1l10.3,10.3l4.6,4.6
		c0.5,0.5,1.2,0.8,2.1,0.8c0.7,0,1.5-0.2,2.2-0.6l0.1-0.1l0.1-0.1l4.6-4.6L67.5,17c0.7-0.5,1.2-1.3,1.2-2.1c0-0.8-0.4-1.6-1.2-2.1
		L63,8.3C62.5,7.8,61.8,7.5,60.9,7.5L60.9,7.5z"/>
</g>
</svg>
