<?xml version="1.0" encoding="utf-8"?>
<!-- Generator: Adobe Illustrator 21.0.2, SVG Export Plug-In . SVG Version: 6.00 Build 0)  -->
<svg version="1.2" baseProfile="tiny" id="Layer_1" xmlns="http://www.w3.org/2000/svg" xmlns:xlink="http://www.w3.org/1999/xlink"
	 x="0px" y="0px" viewBox="0 0 68.7 68.7" overflow="scroll" xml:space="preserve">
<g>
	<circle fill="#1A9ED4" cx="34.50177" cy="24.6748" r="14.44405"/>
	<path fill="#1A9ED4" d="M34.3999-0.00002C15.43164-0.00002,0,15.43163,0,34.39989c0,18.86572,15.38428,34.29736,34.2998,34.3999
		c18.96875,0,34.40039-15.43164,34.40039-34.3999S53.31348-0.00002,34.3999-0.00002z M34.3999,1.99998
		c17.81006,0,32.30029,14.53467,32.30029,32.3999c0,7.02838-2.25671,13.53564-6.07318,18.85077
		c-2.68707-5.04266-8.93231-9.02887-16.93353-10.98035c-2.62628,2.10089-5.77765,3.414-9.19171,3.414
		c-3.414,0-6.56543-1.31311-9.19171-3.414c-8.12524,1.78357-14.44867,5.96191-17.06555,11.17706
		C4.32288,48.09221,2,41.50658,2,34.39989C2,16.53465,16.53467,1.99998,34.3999,1.99998z"/>
</g>
</svg>
