<?xml version="1.0" encoding="utf-8"?>
<!-- Generator: Adobe Illustrator 21.0.2, SVG Export Plug-In . SVG Version: 6.00 Build 0)  -->
<svg version="1.1" id="Layer_1" xmlns="http://www.w3.org/2000/svg" xmlns:xlink="http://www.w3.org/1999/xlink" x="0px" y="0px"
	 viewBox="0 0 68.7 68.7" style="enable-background:new 0 0 68.7 68.7;" xml:space="preserve">
<style type="text/css">
	.st0{fill:none;stroke:#1A9ED4;stroke-width:2;}
	.st1{fill:#1A9ED4;}
</style>
<g>
	<path class="st0" d="M67.7,34.4c0,18.4-14.9,33.4-33.4,33.4C15.9,67.7,1,52.8,1,34.4C1,15.9,15.9,1,34.4,1
		C52.8,1,67.7,15.9,67.7,34.4z"/>
</g>
<g>
	<path class="st1" d="M39.5,35.6l-1.1,4.7h-7.8c1,3.2,3.2,4.8,6.6,4.8c3.7,0,7.1-1.2,10.4-3.6V51c-2.7,1.8-5.9,2.7-9.7,2.7
		c-6.1,0-10.6-1.4-13.5-4.2c-2.9-2.8-4.7-5.9-5.4-9.3h-4.6l1.2-4.7h2.8c0-0.3-0.1-0.7-0.1-1.4c0-0.7,0-1.2,0.1-1.5H15l1.2-4.7H19
		c2.2-8.8,8.3-13.2,18.3-13.2c3.3,0,6.6,0.9,9.9,2.6l-2.3,9.3c-2.3-2.1-4.8-3.2-7.3-3.2c-3.3,0-5.6,1.5-6.7,4.5h9.2L39,32.8h-9
		c0,0.3-0.1,0.8-0.1,1.5v1.4H39.5z"/>
</g>
</svg>
