<?xml version="1.0" encoding="utf-8"?>
<!-- Generator: Adobe Illustrator 22.0.0, SVG Export Plug-In . SVG Version: 6.00 Build 0)  -->
<svg version="1.1" id="Layer_1" xmlns="http://www.w3.org/2000/svg" xmlns:xlink="http://www.w3.org/1999/xlink" x="0px" y="0px"
	 viewBox="0 0 68.7 68.7" style="enable-background:new 0 0 68.7 68.7;" xml:space="preserve">
<style type="text/css">
	.st0{fill:#1A9ED4;}
</style>
<g>
	<g>
		<path class="st0" d="M34.3,68.8C15.4,68.6,0,53.2,0,34.3c0-19,15.4-34.4,34.4-34.4c18.9,0,34.3,15.4,34.3,34.4
			S53.3,68.8,34.3,68.8z M34.4,1.9C16.5,1.9,2,16.4,2,34.3c0,17.8,14.5,32.3,32.3,32.4c17.9,0,32.4-14.5,32.4-32.4
			S52.2,1.9,34.4,1.9z"/>
	</g>
</g>
<path class="st0" d="M26.3,54c-0.7,0-1.3-0.2-1.7-0.6l-14.9-15v-0.1C8.9,37,9,35.5,9.8,34.6l4.6-4.6h0.1c0.6-0.4,1.3-0.6,1.9-0.6
	c0.7,0,1.3,0.2,1.7,0.6l8.6,8.6l23.5-23.4h0.1c0.6-0.4,1.3-0.6,1.9-0.6c0.7,0,1.3,0.2,1.7,0.6l4.5,4.5c0.6,0.4,1,1,1,1.7
	c0,0.7-0.4,1.3-1,1.7L28.3,53.4h-0.1C27.7,53.8,27,54,26.3,54z"/>
</svg>
