<?xml version="1.0" encoding="utf-8"?>
<!-- Generator: Adobe Illustrator 21.1.0, SVG Export Plug-In . SVG Version: 6.00 Build 0)  -->
<svg version="1.1" id="Layer_1" xmlns="http://www.w3.org/2000/svg" xmlns:xlink="http://www.w3.org/1999/xlink" x="0px" y="0px"
	 viewBox="0 0 68.7 68.7" style="enable-background:new 0 0 68.7 68.7;" xml:space="preserve">
<style type="text/css">
	.st0{fill:#DCDCDC;}
</style>
<g>
	<circle class="st0" cx="34.5" cy="24.7" r="14.4"/>
	<path class="st0" d="M34.4,0C15.4,0,0,15.4,0,34.4c0,18.9,15.4,34.3,34.3,34.4c19,0,34.4-15.4,34.4-34.4S53.3,0,34.4,0z M34.4,2
		c17.8,0,32.3,14.5,32.3,32.4c0,7-2.3,13.5-6.1,18.9c-2.7-5-8.9-9-16.9-11c-2.6,2.1-5.8,3.4-9.2,3.4c-3.4,0-6.6-1.3-9.2-3.4
		c-8.1,1.8-14.4,6-17.1,11.2C4.3,48.1,2,41.5,2,34.4C2,16.5,16.5,2,34.4,2z"/>
</g>
</svg>
