<?xml version="1.0" encoding="utf-8"?>
<!-- Generator: Adobe Illustrator 21.1.0, SVG Export Plug-In . SVG Version: 6.00 Build 0)  -->
<svg version="1.1" id="Layer_1" xmlns="http://www.w3.org/2000/svg" xmlns:xlink="http://www.w3.org/1999/xlink" x="0px" y="0px"
	 viewBox="0 0 68.7 68.7" style="enable-background:new 0 0 68.7 68.7;" xml:space="preserve">
<style type="text/css">
	.st0{fill:#DCDCDC;}
</style>
<path class="st0" d="M34.4,0C15.4,0,0,15.4,0,34.4c0,18.9,15.4,34.3,34.3,34.4c19,0,34.4-15.4,34.4-34.4S53.3,0,34.4,0z M34.3,66.8
	c-8.2,0-15.6-3.1-21.3-8.2l0,0l3.4-3.8c4.6-4.5,8.7-8.5,9.1-8.4c4.5,1.7,10.7,1,15.8-4.5c6.1-6.5,10.6-19.3,6.4-23.3
	c-4.2-4-16.7,1.4-22.8,7.9c-5.1,5.4-5.4,11.7-3.4,16.1c0.2,0.4-3.5,4.6-7.6,9.5l-3.6,3.7C5.1,50.2,2,42.6,2,34.4
	C2,16.5,16.5,2,34.4,2c17.8,0,32.3,14.5,32.3,32.4C66.7,52.3,52.2,66.8,34.3,66.8z M42,21.8c1-1.5,2.7-0.9,3.3,0.4
	c0.8,1.7,0.6,4.6,0.3,6.3c-0.5,3-2.4,5.6-4.7,7.5c-2.3,2-5,3.3-7.7,4.7c2.7-1.4,4.9-3.9,6.3-6.6c1.4-2.8,2-5.9,2-9
	C41.4,24,41.3,22.8,42,21.8z"/>
</svg>
