<?xml version="1.0" encoding="utf-8"?>
<!-- Generator: Adobe Illustrator 21.0.2, SVG Export Plug-In . SVG Version: 6.00 Build 0)  -->
<svg version="1.2" baseProfile="tiny" id="Layer_1" xmlns="http://www.w3.org/2000/svg" xmlns:xlink="http://www.w3.org/1999/xlink"
	 x="0px" y="0px" viewBox="0 0 68.7 68.7" xml:space="preserve">
<g>
	<g>
		<path fill="#1A9ED4" d="M34.2998,68.7998C15.38428,68.69727,0,53.26562,0,34.3999C0,15.43164,15.43164,0,34.3999,0
			C53.31348,0,68.7002,15.43164,68.7002,34.3999S53.26855,68.7998,34.2998,68.7998z M34.3999,2C16.53467,2,2,16.53467,2,34.3999
			c0,17.76904,14.49219,32.30322,32.30518,32.3999c17.85986,0,32.39502-14.53418,32.39502-32.3999
			C66.7002,16.53467,52.20996,2,34.3999,2z"/>
	</g>
</g>
<path fill="#1A9ED4" d="M42.00629,30.02129c-2.48486-1.47058-4.97186-2.93744-7.46143-4.39996
	c-0.05219-0.03064-0.10974-0.06787-0.1698-0.11249C34.26801,25.60161,34.14386,25.6898,34,25.77068
	c-2.4635,1.38586-4.92572,2.77435-7.3847,4.1684c-0.03632,0.02057-0.07281,0.03992-0.1095,0.05817
	c0.04889,0.18665,0.06097,0.35742,0.05939,0.49005c-0.01825,1.53693-0.03027,3.07385-0.04224,4.61084l-0.00403,0.51056
	l-0.0014,0.18433c-0.00885,1.1261-0.01776,2.25214-0.02197,3.37823c0.30804,0.01746,0.61047,0.11346,0.90057,0.28595
	c2.21295,1.3161,4.42798,2.62872,6.64508,3.93781c0.07355,0.0434,0.14313,0.09052,0.20868,0.14099
	c0.09039-0.07483,0.18915-0.14264,0.29584-0.20264c2.21082-1.24286,4.71649-2.65143,7.16376-4.04498
	c0.12891-0.07336,0.25958-0.13336,0.3916-0.17969c-0.02283-0.12939-0.03345-0.26361-0.03125-0.40149
	c0.01996-1.25244,0.03583-2.50494,0.0517-3.75739l0.01123-0.8847l0.01025-0.77386c0.01221-0.9101,0.02441-1.82025,0.03021-2.73035
	c0.00098-0.14856,0.01642-0.29199,0.04572-0.42932C42.14716,30.09947,42.07623,30.06267,42.00629,30.02129z M29.76599,38.83965
	c-0.95398,0-1.72729-0.77307-1.72729-1.72723c0-0.95428,0.77332-1.72742,1.72729-1.72742c0.9541,0,1.72736,0.77313,1.72736,1.72742
	C31.49335,38.06657,30.72009,38.83965,29.76599,38.83965z M29.76599,33.83183c-0.95398,0-1.72729-0.77332-1.72729-1.72736
	c0-0.95416,0.77332-1.72742,1.72729-1.72742c0.9541,0,1.72736,0.77325,1.72736,1.72742
	C31.49335,33.05852,30.72009,33.83183,29.76599,33.83183z M40.29602,37.57591c-0.17535,0.31653-0.40698,0.5849-0.69525,0.8053
	c-0.28821,0.22046-0.62469,0.38733-1.00885,0.50031c-0.38452,0.11285-0.78003,0.16949-1.18701,0.16949
	c-0.61047,0-1.14459-0.12451-1.60242-0.37299s-0.78851-0.5368-0.99194-0.86475l-0.3606,1.02637L32.617,38.83958v-3.04419h2.19354
	c0,0.22626,0.07037,0.41272,0.21191,0.55951c0.14124,0.14703,0.30792,0.26294,0.50024,0.34766
	c0.19208,0.08466,0.39001,0.14423,0.59351,0.17804c0.20343,0.03387,0.36719,0.05096,0.4917,0.05096
	c0.16962,0,0.33624-0.03668,0.50024-0.11035c0.16376-0.07336,0.24585-0.22882,0.24585-0.46631
	c0-0.15814-0.11603-0.28534-0.3476-0.38153c-0.23181-0.09601-0.52563-0.18903-0.88171-0.27985
	c-0.35614-0.09033-0.73767-0.19763-1.14459-0.32202c-0.40698-0.12427-0.78851-0.29675-1.14459-0.51727
	c-0.35608-0.2204-0.65021-0.50867-0.88177-0.86481c-0.23181-0.35602-0.3476-0.81091-0.3476-1.36499
	c0-0.42944,0.09882-0.79962,0.29669-1.11072c0.19769-0.31073,0.44647-0.56506,0.74615-0.76312
	c0.29938-0.19751,0.62158-0.34454,0.96649-0.44067c0.34473-0.09589,0.6698-0.14423,0.9751-0.14423
	c0.57654,0,1.09631,0.13007,1.56,0.38989c0.46338,0.26031,0.80249,0.57123,0.98346,0.9328l0.39044-1.11133h1.80316v3.04431h-2.1936
	c0-0.18073-0.05084-0.34766-0.15259-0.50024c-0.10175-0.15253-0.2348-0.28821-0.3985-0.40692
	c-0.16406-0.11865-0.3476-0.21185-0.55109-0.27991c-0.20349-0.06763-0.41278-0.10156-0.62738-0.10156
	c-0.18097,0-0.33649,0.04803-0.46631,0.14404c-0.13013,0.09619-0.19507,0.25177-0.19507,0.46637
	c0,0.19244,0.11877,0.34497,0.35614,0.45789c0.23737,0.11304,0.53412,0.22333,0.8902,0.33051
	c0.35608,0.10773,0.74316,0.22632,1.16156,0.3562c0.41809,0.13007,0.80548,0.30249,1.16156,0.51715
	c0.35608,0.2149,0.65283,0.48901,0.8902,0.82239c0.23743,0.33356,0.35614,0.76044,0.35614,1.28033
	C40.5589,36.90331,40.47119,37.25951,40.29602,37.57591z"/>
<g>
	<path fill="#1A9ED4" d="M57.61847,40.45055c-1.16412,0.62946-2.3291,1.25739-3.49054,1.89185
		c-0.05945,0.03247-0.11127,0.04913-0.16327,0.04913c-0.04913,0-0.09839-0.01489-0.15442-0.04541
		c-0.66272-0.36151-1.32971-0.71527-1.99481-1.07251c-0.04102-0.02197-0.07806-0.05133-0.1344-0.08887
		c1.22137-0.76813,2.422-1.52319,3.63068-2.28339c-0.75-1.34448-1.4928-2.67609-2.23907-4.01398
		c-0.08386,0.04755-0.151,0.08374-0.21643,0.12292c-1.19659,0.71637-2.39301,1.43298-3.58929,2.1499
		c-0.05481,0.03284-0.10321,0.06226-0.1601,0.06226c-0.03369,0-0.07037-0.01031-0.11316-0.0365
		c-0.72595-0.44409-1.45959-0.87567-2.18658-1.31818c-0.05225-0.03174-0.10138-0.11725-0.10181-0.1781
		c-0.00543-0.79419-0.00537-1.58844,0.005-2.38251c0.00098-0.07697,0.0603-0.1814,0.12494-0.22498
		c0.70581-0.47559,1.41992-0.93878,2.12653-1.41315c0.05487-0.03687,0.10156-0.05457,0.14807-0.05457
		c0.04578,0,0.09131,0.01715,0.1441,0.05035c1.20294,0.75598,2.4082,1.50824,3.61316,2.26099
		c0.09552,0.05963,0.19324,0.11572,0.29559,0.17688c0.95264-1.35925,1.89197-2.69952,2.84326-4.05682
		c-1.48749-0.84821-2.95593-1.68555-4.44305-2.53357c0.08722-0.06152,0.15308-0.11066,0.2215-0.15582
		c0.63031-0.41571,1.2627-0.82831,1.89014-1.24823c0.05933-0.03973,0.11121-0.0592,0.16541-0.0592
		c0.0451,0,0.09186,0.01349,0.14594,0.03992c1.31561,0.64294,2.6344,1.27942,3.95251,1.91724
		c0.13574,0.06573,0.27277,0.12891,0.42194,0.19934c0.66058-1.38336,1.31195-2.74725,1.96649-4.11786
		c-0.08057-0.03931-0.13672-0.06903-0.1947-0.0946c-1.33923-0.59106-2.67877-1.18152-4.01801-1.77258
		c-0.15192-0.06702-0.36499-0.09857-0.43683-0.21576c-0.0755-0.12305-0.02313-0.3299-0.01294-0.49927
		c0.0592-0.98419,0.12292-1.96808,0.18408-2.95215c0.026-0.41956,0.0495-0.83923,0.0752-1.27692
		c-1.56671-0.09515-3.10986-0.18884-4.65149-0.28241c-0.01099,0.04163-0.01947,0.05951-0.0199,0.07758
		c-0.03241,1.38971-0.06616,2.77936-0.09283,4.16913c-0.00262,0.13562-0.03577,0.21851-0.15814,0.29187
		c-0.60364,0.36182-1.2005,0.73505-1.80023,1.10339c-0.07874,0.04834-0.1604,0.09174-0.26361,0.15051
		c-0.05719-1.45074-0.1131-2.86823-0.16956-4.30072c-1.5423-0.02026-3.05707-0.04016-4.59564-0.06042
		c0.00293,0.12457,0.0058,0.21918,0.00732,0.31384c0.02124,1.35815,0.04065,2.71631,0.06622,4.07434
		c0.00244,0.13055-0.02917,0.20319-0.15289,0.26611c-0.75787,0.38519-1.50909,0.78339-2.26691,1.1687
		c-0.02954,0.01501-0.06989,0.0224-0.11072,0.0224c-0.04626,0-0.09308-0.00952-0.12524-0.02844
		c-0.63416-0.37262-1.25916-0.76099-1.89459-1.13135c-0.16229-0.0946-0.22803-0.20099-0.23541-0.39008
		c-0.03064-0.78723-0.07434-1.5741-0.125-2.36035c-0.00916-0.14246,0.04413-0.2027,0.15802-0.26263
		c1.09222-0.57465,2.18201-1.15387,3.2724-1.73193c0.26306-0.1394,0.52594-0.2793,0.79895-0.42426
		c-0.70551-1.50775-1.40106-2.99408-2.10437-4.49707c-1.47876,0.86743-2.94116,1.72528-4.42401,2.59515
		c-0.04651-0.89587-0.09467-1.75275-0.12891-2.61017c-0.00287-0.07123,0.07147-0.17072,0.13794-0.21576
		c1.04358-0.70715,2.09198-1.40723,3.13885-2.10968c0.27875-0.18701,0.55591-0.37634,0.84149-0.56989
		c-0.85773-1.28619-1.70447-2.55597-2.55658-3.8338c-1.40717,1.02783-2.79132,2.03882-4.1767,3.05072
		c-1.31879-0.888-2.6272-1.7691-3.94141-2.65405c-0.86737,1.32123-1.7193,2.6189-2.57751,3.92615
		c0.09009,0.0564,0.15936,0.10083,0.22968,0.14362c1.13159,0.68848,2.26239,1.37836,3.39667,2.06244
		c0.11127,0.06708,0.16302,0.13757,0.16498,0.27094c0.00549,0.37781,0.02869,0.75525,0.04022,1.133
		c0.013,0.42688,0.02087,0.85388,0.03174,1.31232c-1.28168-0.67584-2.5437-1.34125-3.81146-2.00977
		c-0.78577,1.32947-1.5589,2.63739-2.33521,3.95081c0.0813,0.04736,0.1413,0.08344,0.20233,0.11774
		c1.22137,0.68665,2.44208,1.37451,3.66577,2.05713c0.11407,0.0636,0.16132,0.13373,0.159,0.26691
		c-0.01367,0.8006-0.02112,1.60138-0.02411,2.40216c-0.00043,0.11902-0.04358,0.18488-0.14441,0.24207
		c-0.70013,0.39728-1.39618,0.80182-2.09778,1.19653c-0.03326,0.01874-0.08105,0.02893-0.12695,0.02893
		c-0.0351,0-0.06915-0.00592-0.09473-0.01862c-0.76788-0.38043-1.53064-0.77118-2.29712-1.15442
		c-0.10034-0.05017-0.13617-0.10706-0.13013-0.22192c0.01801-0.34534,0.02051-0.69147,0.0296-1.03723
		c0.02911-1.10779,0.05841-2.21558,0.08783-3.32336c0.0022-0.08063,0.00635-0.16119,0.01007-0.25604
		c-1.65491-0.146-3.28961-0.29022-4.94434-0.43628c0.01721,1.71552,0.03418,3.40833,0.05139,5.12799
		c-0.80127-0.40765-1.57086-0.79645-2.33575-1.19434c-0.05212-0.0271-0.09357-0.12097-0.09802-0.18658
		c-0.0697-1.02258-0.13141-2.04572-0.1972-3.06854c-0.03815-0.59308-0.08026-1.18585-0.12158-1.79279
		c-1.54657,0.11249-3.07581,0.22375-4.61871,0.336c0.06219,0.58905,0.11932,1.15558,0.1825,1.7215
		c0.12073,1.08167,0.24323,2.16315,0.36987,3.24414c0.01434,0.12219-0.02405,0.17969-0.13342,0.23322
		c-0.91302,0.44659-1.82281,0.89978-2.73322,1.35156c-0.46283,0.22974-0.92499,0.46082-1.4007,0.69788
		c0.71747,1.3902,1.4278,2.76654,2.14221,4.15076c0.07422-0.03754,0.12543-0.06183,0.17523-0.08875
		c1.18097-0.63861,2.36285-1.27563,3.5412-1.91901c0.06183-0.03381,0.11615-0.05109,0.17065-0.05109
		c0.05231,0,0.10474,0.01593,0.16425,0.04846c0.65649,0.35931,1.31769,0.70984,1.97693,1.06409
		c0.04132,0.02222,0.07953,0.05029,0.13684,0.08698c-1.23505,0.77057-2.44891,1.52795-3.67261,2.29144
		c0.76959,1.34338,1.53107,2.67261,2.29596,4.00769c0.09637-0.05652,0.17328-0.10065,0.24939-0.14624
		c1.18542-0.70996,2.37158-1.4187,3.55469-2.13245c0.0545-0.0329,0.10132-0.04999,0.14868-0.04999
		c0.04492,0,0.09027,0.01532,0.14313,0.04712c0.69647,0.4187,1.39941,0.8266,2.09448,1.2475
		c0.06549,0.03973,0.12878,0.14447,0.12988,0.21985c0.01099,0.78143,0.00574,1.56305,0.01361,2.34454
		c0.00134,0.13776-0.04071,0.22137-0.15704,0.297c-0.703,0.45673-1.40332,0.91766-2.09894,1.38562
		c-0.05853,0.03937-0.10852,0.05756-0.15771,0.05756c-0.0531,0-0.10529-0.02118-0.16638-0.05969
		c-0.87177-0.54926-1.74762-1.09198-2.62231-1.63666c-0.41705-0.2597-0.83423-0.51917-1.26746-0.78876
		c-0.95099,1.35706-1.89307,2.70148-2.84644,4.06201c1.49524,0.84601,2.97302,1.68207,4.4707,2.52948
		c-0.07367,0.052-0.12854,0.09326-0.18591,0.1308c-0.63196,0.41327-1.26776,0.82074-1.89386,1.24268
		c-0.07983,0.05383-0.14905,0.08026-0.22089,0.08026c-0.05951,0-0.12085-0.01825-0.19147-0.05408
		c-0.94073-0.47797-1.88666-0.94574-2.83105-1.4165c-0.47937-0.23895-0.95917-0.47711-1.45477-0.72363
		c-0.67664,1.39709-1.34631,2.77997-2.0177,4.1662c0.07684,0.03815,0.12726,0.06567,0.17969,0.08875
		c1.36902,0.6026,2.73822,1.20483,4.10748,1.80688c0.39752,0.1748,0.40533,0.17493,0.38031,0.60852
		c-0.06799,1.17615-0.14331,2.35181-0.21515,3.52771c-0.0155,0.25348-0.0285,0.50708-0.0437,0.77893
		c1.56628,0.09546,3.10913,0.18951,4.65063,0.28345c0.01099-0.04297,0.01923-0.06085,0.01965-0.07892
		c0.03229-1.38971,0.06616-2.77936,0.09216-4.16919c0.00262-0.13776,0.04144-0.21625,0.16223-0.28815
		c0.64868-0.38593,1.29108-0.78235,1.93622-1.17419c0.04022-0.02448,0.08539-0.04089,0.17334-0.08228
		c0.03436,1.45343,0.06793,2.87134,0.10181,4.30042c1.55316,0.0202,3.06793,0.03998,4.59332,0.05981
		c0.00385-0.10553,0.00946-0.18146,0.00891-0.25739c-0.00421-0.62787-0.01007-1.25568-0.01453-1.88354
		c-0.00525-0.7431-0.00354-1.48639-0.01837-2.22931c-0.00397-0.19745,0.06372-0.30505,0.23676-0.40118
		c0.67639-0.37585,1.3418-0.77136,2.01562-1.15192c0.03076-0.0174,0.07556-0.02673,0.11902-0.02673
		c0.03693,0,0.07288,0.00677,0.09827,0.02112c0.71204,0.40387,1.41797,0.81854,2.1286,1.22491
		c0.11145,0.06372,0.13922,0.14948,0.1452,0.26654c0.0426,0.83173,0.08734,1.66333,0.13788,2.49457
		c0.00684,0.11255-0.02502,0.17218-0.12421,0.2254c-0.72675,0.38995-1.4505,0.7854-2.17499,1.17963
		c-0.62274,0.33887-1.24512,0.67834-1.87909,1.02374c0.6839,1.50342,1.36298,2.9964,2.04706,4.50031
		c1.48358-0.87012,2.94958-1.72986,4.43768-2.60266c0.01306,0.13342,0.02704,0.23993,0.03345,0.34692
		c0.04279,0.71619,0.07825,1.43292,0.13007,2.14844c0.01154,0.1593-0.04419,0.24152-0.1684,0.32471
		c-1.12738,0.75488-2.25116,1.5152-3.37567,2.27441c-0.20441,0.138-0.40741,0.27808-0.61731,0.42145
		c0.87689,1.28595,1.7406,2.55249,2.60828,3.82489c1.38831-1.0257,2.75726-2.03717,4.12939-3.05096
		c1.31403,0.87109,2.61987,1.73676,3.93756,2.61023c0.86542-1.2973,1.72229-2.58173,2.58252-3.87128
		c-0.0719-0.047-0.12439-0.08295-0.17847-0.11639c-1.14819-0.71069-2.29529-1.42316-3.44672-2.12854
		c-0.11926-0.07306-0.16376-0.15179-0.16595-0.28925c-0.00574-0.36487-0.03162-0.72943-0.0434-1.0943
		c-0.01373-0.42511-0.021-0.85034-0.03168-1.30261c1.2821,0.67627,2.54071,1.34009,3.81226,2.0108
		c0.78131-1.3222,1.55469-2.63086,2.33661-3.95404c-0.18396-0.10382-0.35553-0.20026-0.52667-0.29749
		c-1.1015-0.62567-2.20367-1.25012-3.30219-1.88104c-0.06445-0.03699-0.14087-0.12683-0.14056-0.19171
		c0.00415-0.83917,0.01917-1.67822,0.03937-2.51715c0.00153-0.06183,0.04828-0.14801,0.10028-0.17932
		c0.68982-0.41602,1.38336-0.82587,2.07971-1.2309c0.02661-0.01544,0.06506-0.02332,0.10284-0.02332
		c0.0321,0,0.06372,0.00568,0.08722,0.01721c0.79211,0.38916,1.58191,0.78302,2.36841,1.18341
		c0.05139,0.02612,0.10059,0.11322,0.10126,0.17255c0.00287,0.25592-0.01288,0.51202-0.02148,0.76807
		c-0.0401,1.19067-0.08002,2.38135-0.1203,3.57202c-0.00342,0.09967-0.00891,0.19922-0.01379,0.30768
		c1.6571,0.14679,3.2926,0.29169,4.95026,0.43854c-0.01819-1.71448-0.03619-3.40723-0.05426-5.10291
		c0.0379,0.00366,0.05182,0.00134,0.06189,0.00647c0.75867,0.38458,1.51837,0.76733,2.27283,1.1601
		c0.05518,0.02869,0.09808,0.12842,0.10339,0.19836c0.10529,1.39246,0.20374,2.7854,0.30481,4.17816
		c0.01605,0.22174,0.03778,0.44305,0.05774,0.67395c1.52698-0.11304,3.03815-0.22485,4.56848-0.33813
		c-0.06403-0.62164-0.12616-1.22534-0.18842-1.8291c-0.10767-1.04462-0.21375-2.08942-0.32526-3.13361
		c-0.013-0.12128,0.02551-0.18054,0.13409-0.23425c0.84814-0.41949,1.69275-0.84601,2.5387-1.2699
		c0.51349-0.25726,1.0274-0.51367,1.55389-0.77692c-0.70062-1.39282-1.3938-2.77075-2.09131-4.15741
		C57.7652,40.37462,57.69116,40.41124,57.61847,40.45055z M47.68994,42.28868c-0.16382,0.28522-0.44507,0.4433-0.74438,0.4433
		c-0.14984,0-0.3042-0.03955-0.45068-0.12268c-1.13934-0.64667-2.27936-1.29236-3.41034-1.95355
		c-0.1123-0.06567-0.20837-0.09979-0.30609-0.09979c-0.0918,0-0.18506,0.03015-0.29456,0.09247
		c-2.38544,1.3584-4.7782,2.70398-7.17114,4.04919c-0.12219,0.06866-0.16479,0.14685-0.16473,0.28674
		c0.00055,1.46619-0.00269,2.93243-0.01245,4.39862c-0.0036,0.54401-0.38251,0.91681-0.85352,0.91681
		c-0.0976,0-0.19904-0.01599-0.302-0.04974c-0.36011-0.11816-0.57721-0.44989-0.58551-0.87787
		c-0.01385-0.71661-0.03308-1.43311-0.04999-2.1496c0.01709-0.00049,0.03418-0.00098,0.05127-0.00146
		c0.00378-0.72998,0.00439-1.45996,0.0141-2.18982c0.00189-0.13873-0.04395-0.21747-0.16443-0.28857
		c-2.21857-1.30994-4.435-2.62341-6.64935-3.94031c-0.07404-0.04407-0.13745-0.06897-0.20331-0.06897
		c-0.05853,0-0.11896,0.01965-0.19043,0.06305c-1.185,0.71924-2.37793,1.42548-3.5675,2.13715
		c-0.16669,0.09973-0.3363,0.15619-0.50775,0.15619c-0.13293,0-0.26697-0.03394-0.40161-0.10797
		c-0.60992-0.33533-0.62189-1.1546-0.01648-1.5235c0.80743-0.49207,1.62366-0.96979,2.43616-1.45349
		c0.20862-0.12421,0.41467-0.25311,0.62744-0.36963c0.11487-0.06293,0.15674-0.14221,0.15717-0.27448
		c0.00409-1.25482,0.01422-2.50958,0.02411-3.76434c0.01343-1.70923,0.02594-3.41852,0.04626-5.12769
		c0.00159-0.13367-0.06757-0.17682-0.15869-0.22876c-1.01636-0.5788-2.03271-1.15753-3.04749-1.73901
		c-0.55212-0.31635-0.65607-0.98114-0.22412-1.40765c0.16614-0.16394,0.37799-0.24969,0.59717-0.24969
		c0.14905,0,0.30145,0.03961,0.44519,0.12122c0.93921,0.53308,1.87787,1.06708,2.81201,1.60889
		c0.07703,0.04468,0.14441,0.06757,0.21259,0.06757c0.06519,0,0.13098-0.02094,0.2066-0.06372
		c2.46051-1.3949,4.92419-2.78424,7.38934-4.17102c0.14417-0.08105,0.22882-0.15656,0.22662-0.34735
		c-0.01086-0.93463-0.00195-1.86945,0.00079-2.8042c0.00128-0.44177,0.00165-0.88354,0.00732-1.32526
		c0.00677-0.526,0.37073-0.90735,0.86243-0.91003c0.00183,0,0.00366,0,0.00543,0c0.49359,0,0.86798,0.3725,0.87006,0.89661
		c0.00531,1.35095,0.00049,2.7019-0.00378,4.0528c-0.00043,0.12677,0.00354,0.22498,0.13599,0.3028
		c2.49097,1.46338,4.97943,2.93103,7.4657,4.40247c0.06354,0.0376,0.11804,0.0564,0.17242,0.0564
		c0.05493,0,0.10974-0.01923,0.17358-0.05774c1.09949-0.66309,2.20398-1.31793,3.30579-1.97723
		c0.1825-0.10919,0.37085-0.16235,0.54865-0.16235c0.28735,0,0.54706,0.13892,0.70978,0.40479
		c0.27209,0.4447,0.13281,0.95453-0.35315,1.24585c-1.13409,0.67981-2.2702,1.35645-3.40979,2.02704
		c-0.1488,0.08752-0.21118,0.18439-0.21234,0.3598c-0.00751,1.17145-0.02551,2.3429-0.04053,3.51428
		c-0.0199,1.54901-0.03833,3.09802-0.06305,4.64691c-0.00269,0.17072,0.04535,0.27325,0.20325,0.36218
		c1.17462,0.6618,2.34412,1.33276,3.51257,2.00537C47.79083,41.35313,47.93231,41.86668,47.68994,42.28868z"/>
</g>
</svg>
