<?xml version="1.0" encoding="utf-8"?>
<!-- Generator: Adobe Illustrator 21.0.2, SVG Export Plug-In . SVG Version: 6.00 Build 0)  -->
<svg version="1.2" baseProfile="tiny" id="Layer_1" xmlns="http://www.w3.org/2000/svg" xmlns:xlink="http://www.w3.org/1999/xlink"
	 x="0px" y="0px" viewBox="0 0 68.7 68.7" xml:space="preserve">
<g>
	<g>
		<path fill="#1A9ED4" d="M34.2998,68.7998C15.38428,68.69727,0,53.26562,0,34.3999C0,15.43164,15.43164,0,34.3999,0
			c18.91358,0,34.3003,15.43164,34.3003,34.3999S53.26855,68.7998,34.2998,68.7998z M34.3999,2C16.53467,2,2,16.53467,2,34.3999
			c0,17.76904,14.49219,32.30322,32.30518,32.3999c17.85986,0,32.39502-14.53418,32.39502-32.3999
			C66.7002,16.53467,52.20996,2,34.3999,2z"/>
	</g>
</g>
<g>
	<g>
		<path fill="#1A9ED4" d="M34.3501,58.80859c-13.48633,0-24.4585-10.97168-24.4585-24.4585
			c0-13.48633,10.97217-24.4585,24.4585-24.4585c13.48682,0,24.4585,10.97217,24.4585,24.4585
			C58.80859,47.83691,47.83691,58.80859,34.3501,58.80859z M34.3501,11.6084c-12.54004,0-22.7417,10.20166-22.7417,22.7417
			c0,12.53955,10.20166,22.7417,22.7417,22.7417c12.53955,0,22.7417-10.20215,22.7417-22.7417
			C57.0918,21.81006,46.88965,11.6084,34.3501,11.6084z"/>
	</g>
	<g>
		<path fill="#1A9ED4" d="M38.46927,14.44018l15.87637,15.87636C52.71509,22.33545,46.45036,16.07073,38.46927,14.44018z"/>
	</g>
	<g>
		<path fill="#1A9ED4" d="M25.854,15.89909L52.80091,42.846c0.944-2.05964,1.54473-4.20509,1.80218-6.52218L32.37618,14.09691
			C30.05909,14.35436,27.82782,14.95509,25.854,15.89909z"/>
	</g>
	<g>
		<path fill="#1A9ED4" d="M18.04454,22.16382l28.49163,28.49163c1.54473-1.20146,3.00364-2.57455,4.11927-4.20509L22.24964,17.95873
			C20.61909,19.16018,19.246,20.53327,18.04454,22.16382z"/>
	</g>
	<g>
		<path fill="#1A9ED4" d="M14.09691,32.29036l22.39854,22.31273c2.31709-0.25745,4.46255-0.85818,6.52218-1.80218L15.89909,25.76818
			C14.95509,27.742,14.35436,29.97327,14.09691,32.29036z"/>
	</g>
	<g>
		<path fill="#1A9ED4" d="M30.40236,54.34563l-16.048-16.048C15.89909,46.36454,22.33545,52.80091,30.40236,54.34563z"/>
	</g>
</g>
</svg>
