<?xml version="1.0" encoding="utf-8"?>
<!-- Generator: Adobe Illustrator 21.0.2, SVG Export Plug-In . SVG Version: 6.00 Build 0)  -->
<svg version="1.2" baseProfile="tiny" id="Layer_1" xmlns="http://www.w3.org/2000/svg" xmlns:xlink="http://www.w3.org/1999/xlink"
	 x="0px" y="0px" viewBox="0 0 68.7 68.7" xml:space="preserve">
<g>
	<polygon fill="#1A9ED4" points="31.86957,33.33226 37.76562,33.33226 37.76562,10.65623 28.56299,10.65623 28.56299,15.64909 
		31.86957,15.64909 	"/>
	<path fill="#1A9ED4" d="M34.3999-0.00002C15.43164-0.00002,0,15.43163,0,34.39989c0,18.86572,15.38428,34.29736,34.2998,34.3999
		c18.96875,0,34.40039-15.43164,34.40039-34.3999S53.31348-0.00002,34.3999-0.00002z M34.3999,1.99998
		c17.81006,0,32.30029,14.53467,32.30029,32.3999c0,6.77576-2.09424,13.0697-5.66412,18.27594v-5.45911c0-0.54999-0.45001-1-1-1
		h-10.7207c-0.54999,0-1-0.45001-1-1v-7.8866c0-0.54999-0.45001-1-1-1H23.3847c-0.54999,0-1,0.45001-1,1v3.70801
		c0,0.54999-0.45001,1-1,1H10.664c-0.54999,0-1,0.45001-1,1v12.20935C4.88879,49.60301,2,42.32567,2,34.39989
		C2,16.53465,16.53467,1.99998,34.3999,1.99998z"/>
</g>
</svg>
