<?xml version="1.0" encoding="utf-8"?>
<!-- Generator: Adobe Illustrator 22.0.1, SVG Export Plug-In . SVG Version: 6.00 Build 0)  -->
<svg version="1.2" baseProfile="tiny" id="Layer_1" xmlns="http://www.w3.org/2000/svg" xmlns:xlink="http://www.w3.org/1999/xlink"
	 x="0px" y="0px" viewBox="0 0 68.7 68.7" xml:space="preserve">
<g>
	<g>
		<path fill="#DCDCDC" d="M34.3,68.8C15.4,68.7,0,53.3,0,34.4C0,15.4,15.4,0,34.4,0c18.9,0,34.3,15.4,34.3,34.4S53.3,68.8,34.3,68.8
			z M34.4,2C16.5,2,2,16.5,2,34.4c0,17.8,14.5,32.3,32.3,32.4c17.9,0,32.4-14.5,32.4-32.4S52.2,2,34.4,2z"/>
	</g>
</g>
<g>
	<g>
		<path fill="#DCDCDC" d="M36.8,31.7c-0.4-0.4-0.8-0.7-1.3-0.9c-0.5-0.2-1-0.3-1.6-0.3s-1.1,0.1-1.6,0.3c-0.5,0.2-0.9,0.5-1.3,0.9
			c-0.4,0.4-0.7,0.8-0.9,1.4c-0.2,0.5-0.3,1-0.3,1.6s0.1,1.1,0.3,1.6c0.2,0.5,0.5,1,0.9,1.4s0.8,0.7,1.3,0.9s1,0.3,1.6,0.3
			c0.5,0,1.1-0.1,1.6-0.3s0.9-0.5,1.3-0.9c0.4-0.4,0.7-0.8,0.9-1.4c0.2-0.5,0.3-1,0.3-1.6s-0.1-1.1-0.3-1.6
			C37.4,32.5,37.1,32,36.8,31.7z"/>
		<path fill="#DCDCDC" d="M34.3,11.5c-13.1,0-22.9,10.4-22.9,22.9s10.4,22.9,22.9,22.9c12.4,0,22.9-10.4,22.9-22.9
			S46.8,11.5,34.3,11.5z M50,36.7c-0.4,1.4-1,2.6-1.8,3.6s-1.7,1.8-2.8,2.3s-2.3,0.8-3.7,0.8c-0.7,0-1.4-0.2-2-0.6
			c-0.6-0.4-1.1-0.9-1.5-1.6c-0.9,0.9-1.8,1.5-2.6,1.7s-1.6,0.3-2.3,0.3c-0.9,0-1.8-0.2-2.7-0.6c-0.9-0.4-1.8-1-2.6-1.8
			c-0.8-0.8-1.4-1.7-1.9-2.7c-0.5-1.1-0.8-2.2-0.8-3.5s0.2-2.4,0.7-3.5c0.5-1,1.1-1.9,1.9-2.7c0.8-0.7,1.7-1.3,2.7-1.7
			c1-0.4,2.1-0.6,3.1-0.6c1.2,0,2.2,0.2,3.1,0.7c0.9,0.4,1.5,1,1.9,1.8l0.4-2.1H43l-1.2,10.2c-0.1,0.7-0.1,1.3-0.1,2
			c0,0.3,0.1,0.5,0.2,0.7c0.1,0.2,0.3,0.2,0.5,0.2c0.6,0,1.2-0.2,1.7-0.6c0.5-0.4,1-1,1.4-1.6c0.4-0.7,0.7-1.5,0.9-2.3
			c0.2-0.9,0.3-1.8,0.3-2.7c0-1.6-0.3-3-0.9-4.3c-0.6-1.3-1.4-2.4-2.5-3.3s-2.3-1.6-3.7-2.1S36.7,22,35,22c-1.9,0-3.6,0.3-5.2,1
			c-1.6,0.6-3,1.5-4.1,2.6c-1.2,1.1-2.1,2.4-2.7,3.9c-0.7,1.5-1,3.2-1,4.9c0,2,0.4,3.7,1.1,5.3s1.7,2.9,2.9,3.9
			c1.2,1.1,2.6,1.9,4.3,2.4c1.6,0.6,3.3,0.8,5.2,0.8c1.1,0,2,0,2.8-0.1s1.6-0.2,2.3-0.4s1.4-0.4,2.1-0.8c0.7-0.3,1.4-0.7,2.2-1.3
			l1.8,3.4c-1.7,1-3.4,1.8-5.2,2.3s-3.8,0.8-5.9,0.8c-2.7,0-5.1-0.4-7.2-1.3c-2.1-0.9-4-2.1-5.5-3.6s-2.7-3.2-3.5-5.2
			s-1.2-4.1-1.2-6.3c0-2.3,0.4-4.5,1.3-6.5s2.1-3.7,3.6-5.2s3.3-2.6,5.4-3.5c2.1-0.8,4.3-1.3,6.7-1.3c2.2,0,4.3,0.4,6.2,1.1
			s3.6,1.7,5,3s2.5,2.8,3.3,4.5s1.2,3.6,1.2,5.5C50.7,33.8,50.4,35.3,50,36.7z"/>
	</g>
</g>
</svg>
