<?xml version="1.0" encoding="utf-8"?>
<!-- Generator: Adobe Illustrator 21.0.2, SVG Export Plug-In . SVG Version: 6.00 Build 0)  -->
<svg version="1.2" baseProfile="tiny" id="Layer_1" xmlns="http://www.w3.org/2000/svg" xmlns:xlink="http://www.w3.org/1999/xlink"
	 x="0px" y="0px" viewBox="0 0 68.7 68.7" xml:space="preserve">
<path fill="#1A9ED4" d="M34.3999-0.00002C15.43164-0.00002,0,15.43163,0,34.39989c0,18.86572,15.38428,34.29736,34.2998,34.3999
	c18.96875,0,34.40039-15.43164,34.40039-34.3999S53.31348-0.00002,34.3999-0.00002z M34.30518,66.79979
	c-8.16351-0.04431-15.62402-3.12701-21.31732-8.15759l0,0l3.42218-3.81555c4.6391-4.53516,8.69763-8.4978,9.07324-8.36182
	c4.5116,1.70056,10.71967,0.96198,15.80786-4.47968c6.08899-6.5022,10.61664-19.31189,6.39392-23.26202
	c-4.22821-3.95575-16.70721,1.41357-22.79272,7.92395c-5.09888,5.44922-5.41089,11.71155-3.40265,16.10962
	c0.15826,0.35101-3.46118,4.59412-7.63385,9.46857l-3.6084,3.69702C5.12347,50.18956,2,42.64445,2,34.39989
	c0-17.86523,14.53467-32.3999,32.3999-32.3999c17.81006,0,32.30029,14.53467,32.30029,32.3999
	C66.7002,52.26561,52.16504,66.79979,34.30518,66.79979z M41.96832,21.79228c1.00543-1.45941,2.68518-0.85895,3.27948,0.43219
	c0.76147,1.65424,0.63171,4.58795,0.32159,6.33356c-0.52838,2.97369-2.41614,5.56854-4.71948,7.52222
	c-2.30334,1.95374-5.01886,3.34717-7.70764,4.72296c2.72925-1.44354,4.89301-3.85297,6.25885-6.62195
	c1.36578-2.76892,1.95935-5.88245,1.95831-8.96991C41.35901,24.03416,41.30054,22.76164,41.96832,21.79228z"/>
</svg>
