<?xml version="1.0" encoding="utf-8"?>
<!-- Generator: Adobe Illustrator 21.1.0, SVG Export Plug-In . SVG Version: 6.00 Build 0)  -->
<svg version="1.1" id="Layer_1" xmlns="http://www.w3.org/2000/svg" xmlns:xlink="http://www.w3.org/1999/xlink" x="0px" y="0px"
	 viewBox="0 0 68.7 68.7" style="enable-background:new 0 0 68.7 68.7;" xml:space="preserve">
<style type="text/css">
	.st0{fill:#DCDCDC;}
</style>
<path class="st0" d="M34.4,0C15.4,0,0,15.4,0,34.4c0,18.9,15.4,34.3,34.3,34.4c19,0,34.4-15.4,34.4-34.4S53.3,0,34.4,0z M34.3,66.8
	c-10.1-0.1-19.1-4.7-25-12c4.5-0.4,14.6-1.2,15.8-1.3c2.1-0.2,3.8,1.3,7,1.3c2.8,0,4.5,1.7,14,0.3c1.3-0.2,3.8-2.8,3.3-4.9
	c-0.4-1.6,4.2-2.9,3.2-5.8c-1.2-3.5,3-3.6,0.8-7.3c-1.6-2.7,2.2-4-1.1-6.5c-4.1-3.2-3.8-2.7-12.7-2.8c-1.4,0-3.1,0.1-2.7-2.8
	c1.8-11.7-1.2-13.8-3.2-14.4c-4.2-1.1,0.9,3.6-4.3,12.6c-0.5,0.8-1.8,1.7-2.8,3.2c-1.9,3.1-3.8,8.1-5.4,8.1c-1,0-15-0.1-19.3-0.1
	C2,16.5,16.6,2,34.4,2s32.3,14.5,32.3,32.4S52.2,66.8,34.3,66.8z"/>
</svg>
