<?xml version="1.0" encoding="utf-8"?>
<!-- Generator: Adobe Illustrator 21.1.0, SVG Export Plug-In . SVG Version: 6.00 Build 0)  -->
<svg version="1.1" id="Layer_1" xmlns="http://www.w3.org/2000/svg" xmlns:xlink="http://www.w3.org/1999/xlink" x="0px" y="0px"
	 viewBox="0 0 68.7 68.7" style="enable-background:new 0 0 68.7 68.7;" xml:space="preserve">
<style type="text/css">
	.st0{fill:#DCDCDC;}
</style>
<path class="st0" d="M34.4,0C15.4,0,0,15.4,0,34.4c0,18.9,15.4,34.3,34.3,34.4c19,0,34.4-15.4,34.4-34.4S53.3,0,34.4,0z M34.3,66.8
	C16.5,66.7,2,52.2,2,34.4C2,16.8,16.2,2.4,33.7,2v5.4h-3.8c-0.7,0-1.4,0.6-1.4,1.4v7.4c-9.4,2.5-16.3,11.1-16.3,21.3
	c0,12.2,9.9,22.1,22.1,22.1c12.2,0,22.1-9.9,22.1-22.1c0-10.2-6.9-18.8-16.3-21.3V8.8c0-0.7-0.6-1.4-1.4-1.4H35V2
	c17.5,0.3,31.7,14.7,31.7,32.4C66.7,52.3,52.2,66.8,34.3,66.8z"/>
</svg>
