<?xml version="1.0" encoding="utf-8"?>
<!-- Generator: Adobe Illustrator 21.1.0, SVG Export Plug-In . SVG Version: 6.00 Build 0)  -->
<svg version="1.1" id="Layer_1" xmlns="http://www.w3.org/2000/svg" xmlns:xlink="http://www.w3.org/1999/xlink" x="0px" y="0px"
	 viewBox="0 0 68.7 68.7" style="enable-background:new 0 0 68.7 68.7;" xml:space="preserve">
<style type="text/css">
	.st0{fill:#DCDCDC;}
</style>
<g>
	<g>
		<path class="st0" d="M34.3,68.8C15.4,68.7,0,53.3,0,34.4C0,15.4,15.4,0,34.4,0c18.9,0,34.3,15.4,34.3,34.4S53.3,68.8,34.3,68.8z
			 M34.4,2C16.5,2,2,16.5,2,34.4c0,17.8,14.5,32.3,32.3,32.4c17.9,0,32.4-14.5,32.4-32.4C66.7,16.5,52.2,2,34.4,2z"/>
	</g>
</g>
<path class="st0" d="M42,30c-2.5-1.5-5-2.9-7.5-4.4c-0.1,0-0.1-0.1-0.2-0.1c-0.1,0.1-0.2,0.2-0.4,0.3c-2.5,1.4-4.9,2.8-7.4,4.2
	c0,0-0.1,0-0.1,0.1c0,0.2,0.1,0.4,0.1,0.5c0,1.5,0,3.1,0,4.6l0,0.5l0,0.2c0,1.1,0,2.3,0,3.4c0.3,0,0.6,0.1,0.9,0.3
	c2.2,1.3,4.4,2.6,6.6,3.9c0.1,0,0.1,0.1,0.2,0.1c0.1-0.1,0.2-0.1,0.3-0.2c2.2-1.2,4.7-2.7,7.2-4c0.1-0.1,0.3-0.1,0.4-0.2
	c0-0.1,0-0.3,0-0.4c0-1.3,0-2.5,0.1-3.8l0-0.9l0-0.8c0-0.9,0-1.8,0-2.7c0-0.1,0-0.3,0-0.4C42.1,30.1,42.1,30.1,42,30z M29.8,38.8
	c-1,0-1.7-0.8-1.7-1.7c0-1,0.8-1.7,1.7-1.7c1,0,1.7,0.8,1.7,1.7C31.5,38.1,30.7,38.8,29.8,38.8z M29.8,33.8c-1,0-1.7-0.8-1.7-1.7
	c0-1,0.8-1.7,1.7-1.7c1,0,1.7,0.8,1.7,1.7C31.5,33.1,30.7,33.8,29.8,33.8z M40.3,37.6c-0.2,0.3-0.4,0.6-0.7,0.8
	c-0.3,0.2-0.6,0.4-1,0.5c-0.4,0.1-0.8,0.2-1.2,0.2c-0.6,0-1.1-0.1-1.6-0.4s-0.8-0.5-1-0.9l-0.4,1l-1.8,0v-3h2.2
	c0,0.2,0.1,0.4,0.2,0.6c0.1,0.1,0.3,0.3,0.5,0.3c0.2,0.1,0.4,0.1,0.6,0.2c0.2,0,0.4,0.1,0.5,0.1c0.2,0,0.3,0,0.5-0.1
	c0.2-0.1,0.2-0.2,0.2-0.5c0-0.2-0.1-0.3-0.3-0.4c-0.2-0.1-0.5-0.2-0.9-0.3c-0.4-0.1-0.7-0.2-1.1-0.3c-0.4-0.1-0.8-0.3-1.1-0.5
	c-0.4-0.2-0.7-0.5-0.9-0.9c-0.2-0.4-0.3-0.8-0.3-1.4c0-0.4,0.1-0.8,0.3-1.1c0.2-0.3,0.4-0.6,0.7-0.8c0.3-0.2,0.6-0.3,1-0.4
	c0.3-0.1,0.7-0.1,1-0.1c0.6,0,1.1,0.1,1.6,0.4c0.5,0.3,0.8,0.6,1,0.9l0.4-1.1h1.8v3h-2.2c0-0.2-0.1-0.3-0.2-0.5
	c-0.1-0.2-0.2-0.3-0.4-0.4c-0.2-0.1-0.3-0.2-0.6-0.3c-0.2-0.1-0.4-0.1-0.6-0.1c-0.2,0-0.3,0-0.5,0.1c-0.1,0.1-0.2,0.3-0.2,0.5
	c0,0.2,0.1,0.3,0.4,0.5c0.2,0.1,0.5,0.2,0.9,0.3c0.4,0.1,0.7,0.2,1.2,0.4c0.4,0.1,0.8,0.3,1.2,0.5c0.4,0.2,0.7,0.5,0.9,0.8
	c0.2,0.3,0.4,0.8,0.4,1.3C40.6,36.9,40.5,37.3,40.3,37.6z"/>
<g>
	<path class="st0" d="M57.6,40.5c-1.2,0.6-2.3,1.3-3.5,1.9c-0.1,0-0.1,0-0.2,0c0,0-0.1,0-0.2,0c-0.7-0.4-1.3-0.7-2-1.1
		c0,0-0.1-0.1-0.1-0.1c1.2-0.8,2.4-1.5,3.6-2.3c-0.8-1.3-1.5-2.7-2.2-4c-0.1,0-0.2,0.1-0.2,0.1c-1.2,0.7-2.4,1.4-3.6,2.1
		c-0.1,0-0.1,0.1-0.2,0.1c0,0-0.1,0-0.1,0c-0.7-0.4-1.5-0.9-2.2-1.3c-0.1,0-0.1-0.1-0.1-0.2c0-0.8,0-1.6,0-2.4
		c0-0.1,0.1-0.2,0.1-0.2c0.7-0.5,1.4-0.9,2.1-1.4c0.1,0,0.1-0.1,0.1-0.1c0,0,0.1,0,0.1,0.1c1.2,0.8,2.4,1.5,3.6,2.3
		c0.1,0.1,0.2,0.1,0.3,0.2c1-1.4,1.9-2.7,2.8-4.1c-1.5-0.8-3-1.7-4.4-2.5c0.1-0.1,0.2-0.1,0.2-0.2c0.6-0.4,1.3-0.8,1.9-1.2
		c0.1,0,0.1-0.1,0.2-0.1c0,0,0.1,0,0.1,0c1.3,0.6,2.6,1.3,4,1.9c0.1,0.1,0.3,0.1,0.4,0.2c0.7-1.4,1.3-2.7,2-4.1
		c-0.1,0-0.1-0.1-0.2-0.1c-1.3-0.6-2.7-1.2-4-1.8c-0.2-0.1-0.4-0.1-0.4-0.2c-0.1-0.1,0-0.3,0-0.5c0.1-1,0.1-2,0.2-3
		c0-0.4,0-0.8,0.1-1.3c-1.6-0.1-3.1-0.2-4.7-0.3c0,0,0,0.1,0,0.1c0,1.4-0.1,2.8-0.1,4.2c0,0.1,0,0.2-0.2,0.3
		c-0.6,0.4-1.2,0.7-1.8,1.1c-0.1,0-0.2,0.1-0.3,0.2c-0.1-1.5-0.1-2.9-0.2-4.3c-1.5,0-3.1,0-4.6-0.1c0,0.1,0,0.2,0,0.3
		c0,1.4,0,2.7,0.1,4.1c0,0.1,0,0.2-0.2,0.3c-0.8,0.4-1.5,0.8-2.3,1.2c0,0-0.1,0-0.1,0c0,0-0.1,0-0.1,0c-0.6-0.4-1.3-0.8-1.9-1.1
		c-0.2-0.1-0.2-0.2-0.2-0.4c0-0.8-0.1-1.6-0.1-2.4c0-0.1,0-0.2,0.2-0.3c1.1-0.6,2.2-1.2,3.3-1.7c0.3-0.1,0.5-0.3,0.8-0.4
		c-0.7-1.5-1.4-3-2.1-4.5C40,14.3,38.5,15.2,37,16c0-0.9-0.1-1.8-0.1-2.6c0-0.1,0.1-0.2,0.1-0.2c1-0.7,2.1-1.4,3.1-2.1
		c0.3-0.2,0.6-0.4,0.8-0.6c-0.9-1.3-1.7-2.6-2.6-3.8c-1.4,1-2.8,2-4.2,3.1C33,8.9,31.7,8,30.4,7.1c-0.9,1.3-1.7,2.6-2.6,3.9
		c0.1,0.1,0.2,0.1,0.2,0.1c1.1,0.7,2.3,1.4,3.4,2.1c0.1,0.1,0.2,0.1,0.2,0.3c0,0.4,0,0.8,0,1.1c0,0.4,0,0.9,0,1.3
		c-1.3-0.7-2.5-1.3-3.8-2c-0.8,1.3-1.6,2.6-2.3,4c0.1,0,0.1,0.1,0.2,0.1c1.2,0.7,2.4,1.4,3.7,2.1c0.1,0.1,0.2,0.1,0.2,0.3
		c0,0.8,0,1.6,0,2.4c0,0.1,0,0.2-0.1,0.2c-0.7,0.4-1.4,0.8-2.1,1.2c0,0-0.1,0-0.1,0c0,0-0.1,0-0.1,0c-0.8-0.4-1.5-0.8-2.3-1.2
		c-0.1-0.1-0.1-0.1-0.1-0.2c0-0.3,0-0.7,0-1c0-1.1,0.1-2.2,0.1-3.3c0-0.1,0-0.2,0-0.3c-1.7-0.1-3.3-0.3-4.9-0.4c0,1.7,0,3.4,0.1,5.1
		c-0.8-0.4-1.6-0.8-2.3-1.2c-0.1,0-0.1-0.1-0.1-0.2c-0.1-1-0.1-2-0.2-3.1c0-0.6-0.1-1.2-0.1-1.8c-1.5,0.1-3.1,0.2-4.6,0.3
		c0.1,0.6,0.1,1.2,0.2,1.7c0.1,1.1,0.2,2.2,0.4,3.2c0,0.1,0,0.2-0.1,0.2c-0.9,0.4-1.8,0.9-2.7,1.4c-0.5,0.2-0.9,0.5-1.4,0.7
		c0.7,1.4,1.4,2.8,2.1,4.2c0.1,0,0.1-0.1,0.2-0.1c1.2-0.6,2.4-1.3,3.5-1.9c0.1,0,0.1-0.1,0.2-0.1c0.1,0,0.1,0,0.2,0
		c0.7,0.4,1.3,0.7,2,1.1c0,0,0.1,0.1,0.1,0.1c-1.2,0.8-2.4,1.5-3.7,2.3c0.8,1.3,1.5,2.7,2.3,4c0.1-0.1,0.2-0.1,0.2-0.1
		c1.2-0.7,2.4-1.4,3.6-2.1c0.1,0,0.1,0,0.1,0c0,0,0.1,0,0.1,0c0.7,0.4,1.4,0.8,2.1,1.2c0.1,0,0.1,0.1,0.1,0.2c0,0.8,0,1.6,0,2.3
		c0,0.1,0,0.2-0.2,0.3c-0.7,0.5-1.4,0.9-2.1,1.4c-0.1,0-0.1,0.1-0.2,0.1c-0.1,0-0.1,0-0.2-0.1c-0.9-0.5-1.7-1.1-2.6-1.6
		c-0.4-0.3-0.8-0.5-1.3-0.8c-1,1.4-1.9,2.7-2.8,4.1c1.5,0.8,3,1.7,4.5,2.5c-0.1,0.1-0.1,0.1-0.2,0.1c-0.6,0.4-1.3,0.8-1.9,1.2
		c-0.1,0.1-0.1,0.1-0.2,0.1c-0.1,0-0.1,0-0.2-0.1c-0.9-0.5-1.9-0.9-2.8-1.4c-0.5-0.2-1-0.5-1.5-0.7c-0.7,1.4-1.3,2.8-2,4.2
		c0.1,0,0.1,0.1,0.2,0.1c1.4,0.6,2.7,1.2,4.1,1.8c0.4,0.2,0.4,0.2,0.4,0.6c-0.1,1.2-0.1,2.4-0.2,3.5c0,0.3,0,0.5,0,0.8
		c1.6,0.1,3.1,0.2,4.7,0.3c0,0,0-0.1,0-0.1c0-1.4,0.1-2.8,0.1-4.2c0-0.1,0-0.2,0.2-0.3c0.6-0.4,1.3-0.8,1.9-1.2c0,0,0.1,0,0.2-0.1
		c0,1.5,0.1,2.9,0.1,4.3c1.6,0,3.1,0,4.6,0.1c0-0.1,0-0.2,0-0.3c0-0.6,0-1.3,0-1.9c0-0.7,0-1.5,0-2.2c0-0.2,0.1-0.3,0.2-0.4
		c0.7-0.4,1.3-0.8,2-1.2c0,0,0.1,0,0.1,0c0,0,0.1,0,0.1,0c0.7,0.4,1.4,0.8,2.1,1.2c0.1,0.1,0.1,0.1,0.1,0.3c0,0.8,0.1,1.7,0.1,2.5
		c0,0.1,0,0.2-0.1,0.2c-0.7,0.4-1.5,0.8-2.2,1.2c-0.6,0.3-1.2,0.7-1.9,1c0.7,1.5,1.4,3,2,4.5c1.5-0.9,2.9-1.7,4.4-2.6
		c0,0.1,0,0.2,0,0.3c0,0.7,0.1,1.4,0.1,2.1c0,0.2,0,0.2-0.2,0.3c-1.1,0.8-2.3,1.5-3.4,2.3c-0.2,0.1-0.4,0.3-0.6,0.4
		c0.9,1.3,1.7,2.6,2.6,3.8c1.4-1,2.8-2,4.1-3.1c1.3,0.9,2.6,1.7,3.9,2.6c0.9-1.3,1.7-2.6,2.6-3.9c-0.1,0-0.1-0.1-0.2-0.1
		c-1.1-0.7-2.3-1.4-3.4-2.1c-0.1-0.1-0.2-0.2-0.2-0.3c0-0.4,0-0.7,0-1.1c0-0.4,0-0.9,0-1.3c1.3,0.7,2.5,1.3,3.8,2
		c0.8-1.3,1.6-2.6,2.3-4c-0.2-0.1-0.4-0.2-0.5-0.3c-1.1-0.6-2.2-1.3-3.3-1.9c-0.1,0-0.1-0.1-0.1-0.2c0-0.8,0-1.7,0-2.5
		c0-0.1,0-0.1,0.1-0.2c0.7-0.4,1.4-0.8,2.1-1.2c0,0,0.1,0,0.1,0c0,0,0.1,0,0.1,0c0.8,0.4,1.6,0.8,2.4,1.2c0.1,0,0.1,0.1,0.1,0.2
		c0,0.3,0,0.5,0,0.8c0,1.2-0.1,2.4-0.1,3.6c0,0.1,0,0.2,0,0.3c1.7,0.1,3.3,0.3,5,0.4c0-1.7,0-3.4-0.1-5.1c0,0,0.1,0,0.1,0
		c0.8,0.4,1.5,0.8,2.3,1.2c0.1,0,0.1,0.1,0.1,0.2c0.1,1.4,0.2,2.8,0.3,4.2c0,0.2,0,0.4,0.1,0.7c1.5-0.1,3-0.2,4.6-0.3
		c-0.1-0.6-0.1-1.2-0.2-1.8c-0.1-1-0.2-2.1-0.3-3.1c0-0.1,0-0.2,0.1-0.2c0.8-0.4,1.7-0.8,2.5-1.3c0.5-0.3,1-0.5,1.6-0.8
		c-0.7-1.4-1.4-2.8-2.1-4.2C57.8,40.4,57.7,40.4,57.6,40.5z M47.7,42.3c-0.2,0.3-0.4,0.4-0.7,0.4c-0.1,0-0.3,0-0.5-0.1
		c-1.1-0.6-2.3-1.3-3.4-2c-0.1-0.1-0.2-0.1-0.3-0.1c-0.1,0-0.2,0-0.3,0.1c-2.4,1.4-4.8,2.7-7.2,4c-0.1,0.1-0.2,0.1-0.2,0.3
		c0,1.5,0,2.9,0,4.4c0,0.5-0.4,0.9-0.9,0.9c-0.1,0-0.2,0-0.3,0c-0.4-0.1-0.6-0.4-0.6-0.9c0-0.7,0-1.4,0-2.1c0,0,0,0,0.1,0
		c0-0.7,0-1.5,0-2.2c0-0.1,0-0.2-0.2-0.3c-2.2-1.3-4.4-2.6-6.6-3.9c-0.1,0-0.1-0.1-0.2-0.1c-0.1,0-0.1,0-0.2,0.1
		c-1.2,0.7-2.4,1.4-3.6,2.1c-0.2,0.1-0.3,0.2-0.5,0.2c-0.1,0-0.3,0-0.4-0.1c-0.6-0.3-0.6-1.2,0-1.5c0.8-0.5,1.6-1,2.4-1.5
		c0.2-0.1,0.4-0.3,0.6-0.4c0.1-0.1,0.2-0.1,0.2-0.3c0-1.3,0-2.5,0-3.8c0-1.7,0-3.4,0-5.1c0-0.1-0.1-0.2-0.2-0.2c-1-0.6-2-1.2-3-1.7
		c-0.6-0.3-0.7-1-0.2-1.4c0.2-0.2,0.4-0.2,0.6-0.2c0.1,0,0.3,0,0.4,0.1c0.9,0.5,1.9,1.1,2.8,1.6c0.1,0,0.1,0.1,0.2,0.1
		c0.1,0,0.1,0,0.2-0.1c2.5-1.4,4.9-2.8,7.4-4.2c0.1-0.1,0.2-0.2,0.2-0.3c0-0.9,0-1.9,0-2.8c0-0.4,0-0.9,0-1.3c0-0.5,0.4-0.9,0.9-0.9
		c0,0,0,0,0,0c0.5,0,0.9,0.4,0.9,0.9c0,1.4,0,2.7,0,4.1c0,0.1,0,0.2,0.1,0.3c2.5,1.5,5,2.9,7.5,4.4c0.1,0,0.1,0.1,0.2,0.1
		c0.1,0,0.1,0,0.2-0.1c1.1-0.7,2.2-1.3,3.3-2c0.2-0.1,0.4-0.2,0.5-0.2c0.3,0,0.5,0.1,0.7,0.4c0.3,0.4,0.1,1-0.4,1.2
		c-1.1,0.7-2.3,1.4-3.4,2c-0.1,0.1-0.2,0.2-0.2,0.4c0,1.2,0,2.3,0,3.5c0,1.5,0,3.1-0.1,4.6c0,0.2,0,0.3,0.2,0.4
		c1.2,0.7,2.3,1.3,3.5,2C47.8,41.4,47.9,41.9,47.7,42.3z"/>
</g>
</svg>
