<?xml version="1.0" encoding="utf-8"?>
<!-- Generator: Adobe Illustrator 22.0.0, SVG Export Plug-In . SVG Version: 6.00 Build 0)  -->
<svg version="1.1" id="Layer_1" xmlns="http://www.w3.org/2000/svg" xmlns:xlink="http://www.w3.org/1999/xlink" x="0px" y="0px"
	 viewBox="0 0 68.7 68.7" style="enable-background:new 0 0 68.7 68.7;" xml:space="preserve">
<style type="text/css">
	.st0{fill:#DCDCDC;}
</style>
<g>
	<g>
		<path class="st0" d="M34.3,68.8C15.4,68.7,0,53.3,0,34.4C0,15.4,15.4,0,34.4,0c18.9,0,34.3,15.4,34.3,34.4S53.3,68.8,34.3,68.8z
			 M34.4,2C16.5,2,2,16.5,2,34.4c0,17.8,14.5,32.3,32.3,32.4c17.9,0,32.4-14.5,32.4-32.4C66.7,16.5,52.2,2,34.4,2z"/>
	</g>
</g>
<g>
	<g>
		<path class="st0" d="M34.4,58.8c-13.5,0-24.5-11-24.5-24.5c0-13.5,11-24.5,24.5-24.5c13.5,0,24.5,11,24.5,24.5
			C58.8,47.8,47.8,58.8,34.4,58.8z M34.4,11.6c-12.5,0-22.7,10.2-22.7,22.7c0,12.5,10.2,22.7,22.7,22.7c12.5,0,22.7-10.2,22.7-22.7
			C57.1,21.8,46.9,11.6,34.4,11.6z"/>
	</g>
	<g>
		<path class="st0" d="M38.5,14.4l15.9,15.9C52.7,22.3,46.5,16.1,38.5,14.4z"/>
	</g>
	<g>
		<path class="st0" d="M25.9,15.9l26.9,26.9c0.9-2.1,1.5-4.2,1.8-6.5L32.4,14.1C30.1,14.4,27.8,15,25.9,15.9z"/>
	</g>
	<g>
		<path class="st0" d="M18,22.2l28.5,28.5c1.5-1.2,3-2.6,4.1-4.2L22.2,18C20.6,19.2,19.2,20.5,18,22.2z"/>
	</g>
	<g>
		<path class="st0" d="M14.1,32.3l22.4,22.3c2.3-0.3,4.5-0.9,6.5-1.8l-27.1-27C15,27.7,14.4,30,14.1,32.3z"/>
	</g>
	<g>
		<path class="st0" d="M30.4,54.3l-16-16C15.9,46.4,22.3,52.8,30.4,54.3z"/>
	</g>
</g>
</svg>
