<?xml version="1.0" encoding="utf-8"?>
<!-- Generator: Adobe Illustrator 21.0.2, SVG Export Plug-In . SVG Version: 6.00 Build 0)  -->
<svg version="1.2" baseProfile="tiny" id="Layer_1" xmlns="http://www.w3.org/2000/svg" xmlns:xlink="http://www.w3.org/1999/xlink"
	 x="0px" y="0px" viewBox="0 0 13 10" overflow="auto" xml:space="preserve">
<title>password-info-valid</title>
<g>
	<g>
		<polygon fill="#333333" points="4.58939,6.53954 4.3027,6.25179 4.49445,6.06083 4.58992,6.15657 4.68567,6.06109 
			4.87688,6.25258 		"/>
	</g>
	<g>
		<path fill="#333333" d="M4.23433,10c-0.06017-0.02565-0.1169-0.05871-0.16847-0.09812l-0.2826-0.27612l0.1899-0.19307
			L4.24279,9.6977c0.02103,0.01455,0.05832,0.03623,0.09786,0.05316L4.23433,10z M4.86723,9.9955L4.75721,9.74795
			c0.0365-0.01613,0.07141-0.03703,0.10394-0.06162L5.1214,9.42449l0.19148,0.19148l-0.27413,0.274
			C4.9758,9.93943,4.92277,9.97064,4.86723,9.9955z M3.39818,9.24729L3.01309,8.86855l0.1899-0.19307l0.38508,0.37874
			L3.39818,9.24729z M5.69466,9.23407L5.50317,9.04258l0.38191-0.38165l0.19148,0.19148L5.69466,9.23407z M2.62946,8.48717
			L2.24769,8.10526l0.19148-0.19148l0.38178,0.38191L2.62946,8.48717z M6.45808,8.46998L6.26633,8.2785l0.38138-0.38217
			l0.19162,0.19148L6.45808,8.46998z M1.86591,7.72335L1.484,7.34171l0.19148-0.19148l0.38191,0.38165L1.86591,7.72335z
			 M7.22071,7.7051L7.0287,7.51415l0.38112-0.38244l0.19201,0.19096L7.22071,7.7051z M1.10222,6.9598L0.72044,6.57789
			l0.19148-0.19148l0.38178,0.38191L1.10222,6.9598z M7.98321,6.94023L7.79119,6.74927l0.38112-0.38244l0.19201,0.19095
			L7.98321,6.94023z M0.33867,6.19624L0.24266,6.10024C0.13052,5.95689,0.07353,5.80111,0.06625,5.63687L0.33682,5.6247
			c0.00476,0.10844,0.04232,0.21106,0.1087,0.29701l0.08463,0.08305L0.33867,6.19624z M8.7457,6.17561L8.55369,5.98466
			l0.38112-0.38244l0.19201,0.19095L8.7457,6.17561z M3.92145,5.86908l-0.38098-0.3827l0.19201-0.19095l0.38098,0.3827
			L3.92145,5.86908z M5.26289,5.86723L5.07167,5.67575l0.38204-0.38138l0.19122,0.19148L5.26289,5.86723z M9.5082,5.41074
			L9.31619,5.21965L9.6973,4.83734l0.19201,0.19122L9.5082,5.41074z M0.48916,5.24015L0.29767,5.04866l0.38191-0.38178
			l0.19148,0.19148L0.48916,5.24015z M6.02711,5.10434L5.83589,4.91259l0.38217-0.38151l0.19122,0.19175L6.02711,5.10434z
			 M3.15948,5.10394L2.7785,4.72137l0.19201-0.19122l0.38098,0.38257L3.15948,5.10394z M10.2707,4.64613l-0.19201-0.19122
			l0.38112-0.38244l0.19201,0.19122L10.2707,4.64613z M1.25284,4.47659L1.06136,4.28511l0.33986-0.33986
			c0.03306-0.02658,0.05263-0.0402,0.0726-0.05276l0.14388,0.22957C1.60434,4.13039,1.59138,4.13925,1.57882,4.1489L1.25284,4.47659
			z M6.79146,4.34131L6.60011,4.14956l0.38204-0.38151L7.17363,3.9598L6.79146,4.34131z M2.39765,4.33867L2.19624,4.1366
			c-0.04007-0.02883-0.1009-0.05871-0.16649-0.0763l0.07035-0.26157c0.09958,0.02684,0.19175,0.07207,0.274,0.13436l0.21529,0.21436
			L2.39765,4.33867z M11.03319,3.88138l-0.19201-0.19122l0.38112-0.38244l0.19201,0.19122L11.03319,3.88138z M7.55581,3.57815
			L7.36432,3.38667l0.38191-0.38151l0.19148,0.19148L7.55581,3.57815z M11.79569,3.11664l-0.19201-0.19122l0.38112-0.38244
			l0.19201,0.19122L11.79569,3.11664z M8.31989,2.81526L8.12841,2.62351L8.51058,2.242l0.19148,0.19175L8.31989,2.81526z
			 M12.55819,2.35176l-0.19201-0.19122l0.17826-0.17879c0.0722-0.05263,0.11108-0.10738,0.12801-0.16993l0.26131,0.07141
			c-0.03385,0.12378-0.11055,0.23221-0.21608,0.30547L12.55819,2.35176z M9.08424,2.05223L8.89275,1.86049l0.38217-0.38151
			l0.19148,0.19175L9.08424,2.05223z M12.52195,1.47276l-0.38191-0.38178l0.19148-0.19148l0.38191,0.38178L12.52195,1.47276z
			 M9.84832,1.28921L9.65684,1.09746l0.38217-0.38151l0.19148,0.19175L9.84832,1.28921z M11.75813,0.7092L11.39579,0.347
			l0.15022-0.22349l0.02671,0.01944l0.37688,0.37477L11.75813,0.7092z M10.61267,0.52618l-0.19148-0.19175l0.17932-0.17905
			C10.70709,0.07286,10.81182,0.0246,10.92581,0l0.05713,0.26474c-0.07485,0.01613-0.14388,0.04787-0.20471,0.09429
			L10.61267,0.52618z"/>
	</g>
</g>
</svg>
