<?xml version="1.0" encoding="utf-8"?>
<!-- Generator: Adobe Illustrator 21.1.0, SVG Export Plug-In . SVG Version: 6.00 Build 0)  -->
<svg version="1.1" id="Layer_1" xmlns="http://www.w3.org/2000/svg" xmlns:xlink="http://www.w3.org/1999/xlink" x="0px" y="0px"
	 viewBox="0 0 68.7 68.7" style="enable-background:new 0 0 68.7 68.7;" xml:space="preserve">
<style type="text/css">
	.st0{fill:#1A9ED4;}
</style>
<path class="st0" d="M24.5,38.3c0.4,0.3,0.4,0.8,0,1.1l-5.1,4.3c-0.4,0.3-1,0.8-1.3,1.1l-5.1,4.3c-0.4,0.3-0.7,0.1-0.7-0.6V40
	c0-0.6,0-1.6,0-2.2v-8.5c0-0.6,0.3-0.9,0.7-0.6l5.1,4.3c0.4,0.3,1,0.8,1.3,1.1L24.5,38.3z"/>
<path class="st0" d="M34.4,0C15.4,0,0,15.4,0,34.4c0,18.9,15.4,34.3,34.3,34.4c19,0,34.4-15.4,34.4-34.4S53.3,0,34.4,0z M66.7,33.4
	l-10.9,7.4c-0.2,0.1-0.4,0.2-0.6,0.2s-0.4-0.1-0.6-0.2c0,0-22.9-15.4-23.4-15.7c0.1-0.6,0.5-1,1.1-1h1.4l21.5,14.4l11.4-7.7
	C66.6,31.7,66.6,32.5,66.7,33.4z M34.3,66.8C16.5,66.7,2,52.2,2,34.4C2,16.5,16.5,2,34.4,2c13.4,0,24.9,8.2,29.8,19.8H30
	c-0.6,0-1.1,0.5-1.1,1.1v31.8c0,0.6,0.5,1.1,1.1,1.1h28.6C52.6,62.6,44,66.8,34.3,66.8z"/>
</svg>
