<?xml version="1.0" encoding="utf-8"?>
<!-- Generator: Adobe Illustrator 21.1.0, SVG Export Plug-In . SVG Version: 6.00 Build 0)  -->
<svg version="1.1" id="Layer_1" xmlns="http://www.w3.org/2000/svg" xmlns:xlink="http://www.w3.org/1999/xlink" x="0px" y="0px"
	 viewBox="0 0 13 10" style="enable-background:new 0 0 13 10;" xml:space="preserve">
<style type="text/css">
	.st0{fill:#DCDCDC;}
</style>
<title>password-info-valid</title>
<path class="st0" d="M12.7,1.3l-1.2-1.2C11.3,0,11,0,10.7,0.1L4.5,6.3L2.2,4C2,3.8,1.6,3.8,1.4,4L0.2,5.2C0,5.4,0,5.8,0.2,6l2.7,2.7
	l0,0l1.2,1.2c0.2,0.2,0.6,0.2,0.8,0l1.2-1.2l0,0L12.7,2c0.2-0.1,0.2-0.4,0.1-0.6C12.8,1.4,12.8,1.3,12.7,1.3z"/>
</svg>
