<?xml version="1.0" encoding="utf-8"?>
<!-- Generator: Adobe Illustrator 21.1.0, SVG Export Plug-In . SVG Version: 6.00 Build 0)  -->
<svg version="1.1" id="Layer_1" xmlns="http://www.w3.org/2000/svg" xmlns:xlink="http://www.w3.org/1999/xlink" x="0px" y="0px"
	 viewBox="0 0 68.7 68.7" style="enable-background:new 0 0 68.7 68.7;" xml:space="preserve">
<style type="text/css">
	.st0{fill:#DCDCDC;}
</style>
<path class="st0" d="M34.4,0C15.4,0,0,15.4,0,34.4c0,18.9,15.4,34.3,34.3,34.4c19,0,34.4-15.4,34.4-34.4S53.3,0,34.4,0z M22.8,43.4
	V30.8h2.8l4.8,7.6v-7.6h3.1v12.6h-2.8l-4.8-7.5v7.5C25.9,43.4,22.8,43.4,22.8,43.4z M34.7,43.4V30.8h3.2v12.6H34.7z M45.8,33.6h-3.7
	v2.1h3.7v2.8h-3.5v4.8H39V30.8h6.8V33.6z M51.3,62V22.8v-3.3l-0.9,1.6l-0.9,1.6l-0.9-1.6l-0.9-1.6l-0.9,1.6l-0.9,1.6L45,21.1
	l-0.9-1.6l-0.9,1.6l-0.9,1.6l-0.9-1.6L40,19.5l-1,1.7l-0.9,1.6l-0.9-1.6l-0.9-1.6l-0.9,1.6l-0.9,1.6l-0.9-1.6l-0.9-1.6l-0.9,1.6
	l-0.9,1.6L30,21.2l-0.9-1.6l-0.9,1.6l-0.9,1.6l-0.9-1.6l-0.9-1.6l-0.9,1.6L23,22.8l-1-1.6l-0.9-1.6l-0.9,1.6l-0.9,1.6l-0.9-1.6
	l-0.9-1.6v3.3V62C8.1,56.1,2,46,2,34.4C2,16.5,16.5,2,34.4,2c17.8,0,32.3,14.5,32.3,32.4C66.7,46,60.5,56.2,51.3,62z"/>
</svg>
