<?xml version="1.0" encoding="utf-8"?>
<!-- Generator: Adobe Illustrator 16.0.4, SVG Export Plug-In . SVG Version: 6.00 Build 0)  -->
<svg version="1.2" baseProfile="tiny" id="Layer_1" xmlns="http://www.w3.org/2000/svg" xmlns:xlink="http://www.w3.org/1999/xlink"
	 x="0px" y="0px" width="29.045px" height="29.046px" viewBox="0 0 29.045 29.046" overflow="inherit" xml:space="preserve">
<g>
	<g id="NEWS_x5F_SELECTED_x5F_ICON_20_">
		<path fill="#1A9ED4" d="M13.084,29.046c-0.421,0-0.77-0.342-0.956-0.938c-0.229-0.73-0.854-0.893-1.411-0.37l-0.078,0.073
			c-0.308,0.288-0.624,0.439-0.914,0.439c-0.4,0-0.844-0.307-0.889-1.168c-0.043-0.77-0.606-1.074-1.276-0.709l-0.091,0.051
			c-0.588,0.322-1.111,0.291-1.397-0.055c-0.205-0.25-0.263-0.629-0.169-1.099c0.067-0.336,0.021-0.624-0.133-0.812
			c-0.184-0.225-0.524-0.295-0.923-0.193l-0.113,0.025c-0.57,0.146-1.066,0.03-1.286-0.318c-0.186-0.295-0.163-0.717,0.064-1.188
			c0.166-0.345,0.18-0.658,0.038-0.886c-0.142-0.228-0.431-0.353-0.814-0.353l-0.109-0.002c-0.771-0.002-1.043-0.342-1.136-0.543
			c-0.094-0.201-0.176-0.629,0.323-1.222c0.246-0.292,0.336-0.593,0.255-0.847C1.988,18.68,1.74,18.487,1.37,18.39l-0.104-0.027
			c-0.749-0.193-0.929-0.592-0.969-0.811c-0.04-0.217-0.014-0.643,0.592-1.082c0.007-0.008,0.016-0.014,0.024-0.02
			c0.312-0.223,0.476-0.49,0.461-0.758s-0.207-0.516-0.541-0.7l-0.092-0.051c-0.68-0.377-0.755-0.805-0.74-1.026
			S0.149,13.28,0.872,13c0.357-0.138,0.582-0.357,0.633-0.619c0.051-0.262-0.074-0.55-0.354-0.812l-0.08-0.078
			c-0.559-0.529-0.524-0.964-0.454-1.175c0.07-0.212,0.303-0.58,1.072-0.669C2.068,9.603,2.34,9.446,2.455,9.206
			C2.57,8.965,2.521,8.654,2.317,8.331L2.262,8.249c-0.293-0.467-0.356-0.897-0.18-1.218c0.192-0.348,0.621-0.507,1.231-0.423
			C3.716,6.663,4.024,6.566,4.189,6.34c0.149-0.205,0.17-0.508,0.06-0.852L4.216,5.385C4.022,4.782,4.145,4.43,4.283,4.241
			c0.253-0.349,0.762-0.421,1.36-0.178c0.402,0.164,0.761,0.131,0.97-0.092c0.156-0.166,0.231-0.436,0.212-0.758L6.82,3.101
			c-0.027-0.443,0.07-0.797,0.279-1.02c0.325-0.347,0.872-0.319,1.431,0.1C9.137,2.628,9.742,2.4,9.887,1.651l0.023-0.11
			c0.125-0.648,0.473-1.037,0.93-1.037c0.318,0,0.644,0.19,0.943,0.552c0.005,0.005,0.01,0.011,0.015,0.017
			c0.479,0.588,1.119,0.516,1.445-0.174l0.048-0.1C13.62,0.104,14.04,0,14.261,0c0.223,0,0.646,0.105,0.972,0.812
			c0.318,0.692,0.959,0.774,1.445,0.19l0.074-0.085c0.299-0.36,0.628-0.554,0.948-0.554c0.456,0,0.8,0.386,0.922,1.032
			c0.001,0.007,0.003,0.013,0.004,0.02c0.138,0.755,0.738,0.992,1.354,0.548l0.08-0.06c0.572-0.414,1.113-0.432,1.436-0.087
			c0.209,0.225,0.302,0.581,0.27,1.029c-0.022,0.324,0.051,0.596,0.207,0.764c0.209,0.221,0.567,0.259,0.969,0.101l0.102-0.038
			c0.59-0.232,1.102-0.156,1.352,0.193c0.139,0.192,0.26,0.547,0.056,1.148c-0.115,0.343-0.099,0.646,0.05,0.851
			c0.16,0.225,0.473,0.327,0.874,0.278l0.101-0.015c0.639-0.077,1.037,0.089,1.228,0.438c0.176,0.322,0.108,0.754-0.188,1.213
			c-0.209,0.321-0.263,0.632-0.15,0.873c0.111,0.242,0.382,0.402,0.761,0.452l0.112,0.016c0.764,0.099,0.992,0.47,1.06,0.682
			c0.068,0.212,0.097,0.646-0.472,1.172c-0.282,0.259-0.41,0.544-0.363,0.806c0.048,0.262,0.271,0.485,0.626,0.628l0.104,0.046
			c0.713,0.282,0.843,0.698,0.854,0.921c0.013,0.222-0.067,0.649-0.75,1.016c-0.337,0.182-0.532,0.428-0.551,0.691
			c-0.019,0.268,0.142,0.537,0.45,0.765l0.088,0.062c0.625,0.459,0.646,0.895,0.602,1.112c-0.043,0.219-0.229,0.612-0.979,0.797
			c-0.37,0.093-0.621,0.284-0.705,0.537s0.004,0.556,0.244,0.851l0.068,0.077c0.492,0.603,0.405,1.027,0.312,1.229
			c-0.095,0.198-0.366,0.532-1.126,0.532l0,0h-0.001c-0.412,0-0.696,0.123-0.839,0.345c-0.144,0.225-0.133,0.539,0.027,0.885
			l0.047,0.095c0.221,0.473,0.237,0.895,0.051,1.188c-0.223,0.349-0.705,0.464-1.301,0.304c-0.397-0.105-0.742-0.038-0.929,0.186
			c-0.153,0.186-0.202,0.473-0.14,0.809l0.02,0.105c0.088,0.469,0.024,0.846-0.18,1.092c-0.29,0.349-0.814,0.373-1.398,0.044
			c-0.664-0.371-1.232-0.074-1.285,0.694l-0.008,0.108c-0.055,0.851-0.496,1.153-0.892,1.153c-0.285,0-0.593-0.147-0.894-0.428
			c-0.01-0.006-0.02-0.014-0.027-0.021c-0.547-0.528-1.174-0.378-1.413,0.352l-0.033,0.104c-0.192,0.587-0.541,0.924-0.958,0.924
			c-0.352,0-0.697-0.246-0.974-0.691c-0.403-0.65-1.046-0.652-1.458-0.011l-0.055,0.089C13.777,28.805,13.432,29.046,13.084,29.046z
			"/>
	</g>
	<polygon fill="#FFFFFF" points="11.545,19.535 7.526,16.882 9.229,20.58 7.726,21.257 4.956,15.101 6.311,14.489 10.356,17.178 
		8.637,13.44 10.139,12.762 12.908,18.919 	"/>
	<polygon fill="#FFFFFF" points="21.608,14.992 18.876,11.431 19.748,15.832 18.326,16.473 14.903,12.264 14.733,12.348 
		12.824,13.212 13.254,14.169 15.106,13.333 15.729,14.714 13.876,15.551 14.35,16.605 16.261,15.744 16.882,17.126 13.403,18.696 
		10.633,12.538 13.97,11.032 13.97,11.032 15.565,10.312 18.205,13.937 17.31,9.524 18.515,8.981 21.228,12.593 20.257,8.194 
		21.843,7.479 22.985,14.371 	"/>
</g>
</svg>
