<?xml version="1.0" encoding="utf-8"?>
<!-- Generator: Adobe Illustrator 16.0.4, SVG Export Plug-In . SVG Version: 6.00 Build 0)  -->
<svg version="1.2" baseProfile="tiny" id="Layer_1" xmlns="http://www.w3.org/2000/svg" xmlns:xlink="http://www.w3.org/1999/xlink"
	 x="0px" y="0px" width="22.443px" height="29.046px" viewBox="0 0 22.443 29.046" xml:space="preserve">
<g>
	<path fill="#1A9ED4" d="M17.637,3.198V0h-6.417H4.805v3.198h-4.806v5.338c0,4.158,3.144,6.08,4.807,6.518v0.297
		c0,6.062,4.908,5.973,4.908,5.973l-0.195,4.365H7.812l-1.437,3.357h9.692l-1.436-3.357h-1.707l-0.195-4.365
		c0,0,4.908,0.092,4.908-5.973v-0.297c1.662-0.438,4.807-2.36,4.807-6.518V3.198H17.637z M4.805,13.445
		C3.866,13.062,1.52,11.782,1.52,8.537v-3.82h3.285V13.445z M20.923,8.537c0,3.265-2.338,4.533-3.285,4.913V4.716h3.285V8.537z"/>
</g>
</svg>
