<svg id="Layer_1" data-name="Layer 1" xmlns="http://www.w3.org/2000/svg" viewBox="0 0 20.2 29.05"><defs><style>.cls-1{fill:#1A9ED4;}.cls-2{fill:#FFFFFF;}</style></defs><title>Artboard 1</title><path class="cls-1" d="M0,0V27.06c0,1.1.57,2,1.26,2s1.26-.89,1.26-2c0,1.1.57,2,1.26,2s1.26-.89,1.26-2c0,1.1.57,2,1.26,2s1.26-.89,1.26-2c0,1.1.57,2,1.26,2s1.26-.89,1.26-2c0,1.1.57,2,1.26,2s1.26-.89,1.26-2c0,1.1.57,2,1.26,2s1.26-.89,1.26-2c0,1.1.57,2,1.26,2s1.26-.89,1.26-2c0,1.1.57,2,1.26,2s1.26-.89,1.26-2V0Z"/><path class="cls-2" d="M7.8,13.6l0-4.52H9.57V16.5H7.93L5.1,12l0,4.47H3.32V9.09H5Z"/><path class="cls-2" d="M10.27,9.09h1.89V16.5H10.27Z"/><path class="cls-2" d="M12.84,9.09h4v1.66H14.73V12H16.8v1.66H14.73V16.5H12.84Z"/></svg>