<svg xmlns="http://www.w3.org/2000/svg" viewBox="0 0 52 52"><defs><style>.a{fill:#1a9ed4;}</style></defs><title>features-2</title><path class="a" d="M12.746,33.04H10.852l-2.37-6.611H10.53L11.8,30.55l1.275-4.121h2.048Z"/><path class="a" d="M16.185,30.244c1.275-1.066,2.532-2.132,3.787-3.2,1.484-1.237,2.455-2.093,2.455-3.615a1.393,1.393,0,0,0-1.5-1.578c-1.236,0-1.427,1.2-1.445,2.226H16.052a5.9,5.9,0,0,1,.838-3.235,5.1,5.1,0,0,1,4.338-2.15c3.139,0,4.795,2.093,4.795,4.356,0,1.714-.514,2.95-2.322,4.605-.855.78-1.712,1.56-2.587,2.359h5V33.04H16.185Z"/><path class="a" d="M30.544,33.04H27.252V29.805h3.292Z"/><path class="a" d="M31.014,24.04a5.253,5.253,0,1,1,10.5,0v3.92a5.055,5.055,0,0,1-5.195,5.346,5.173,5.173,0,0,1-5.309-5.346Zm3.6,4.014c0,.839.266,2.093,1.656,2.093,1.654,0,1.654-1.674,1.654-2.093V23.946c0-.439,0-2.093-1.654-2.093-1.427,0-1.656,1.33-1.656,2.093Z"/><path class="a" d="M26,2A24,24,0,1,1,2,26,24.027,24.027,0,0,1,26,2m0-2A26,26,0,1,0,52,26,26,26,0,0,0,26,0Z"/></svg>