<svg xmlns="http://www.w3.org/2000/svg" viewBox="0 0 55 55"><defs><style>.a{fill:#1a9ed4;}</style></defs><title>features-takeaway</title><path class="a" d="M27.5,55A27.5,27.5,0,1,1,55,27.5,27.532,27.532,0,0,1,27.5,55Zm0-53A25.5,25.5,0,1,0,53,27.5,25.529,25.529,0,0,0,27.5,2Z"/><path class="a" d="M39.889,15.676H34.27V10a1,1,0,0,0-.293-.707L32.558,7.871a1,1,0,0,0-.707-.293h-8.7a1,1,0,0,0-.707.293L21.023,9.29A1,1,0,0,0,20.73,10v5.679H15.111a1,1,0,0,0-1,1V44.522a1,1,0,0,0,1,1H39.889a1,1,0,0,0,1-1V16.676A1,1,0,0,0,39.889,15.676ZM22.73,10.411l.833-.833h7.874l.833.833v5.265H22.73Zm10.482,23.56a5.694,5.694,0,0,1-1.673,4.038L28.6,35.072a1.558,1.558,0,0,0-1.1-2.659H25.942V28.259H27.5A1.558,1.558,0,1,0,25.942,26.7V27.74H21.788V26.7a5.712,5.712,0,1,1,10.118,3.634A5.686,5.686,0,0,1,33.212,33.971Z"/></svg>