<svg xmlns="http://www.w3.org/2000/svg" viewBox="0 0 52 52"><defs><style>.a{fill:#1a9ed4;}</style></defs><title>features-stars</title><path class="a" d="M26,2A24,24,0,1,1,2,26,24.027,24.027,0,0,1,26,2m0-2A26,26,0,1,0,52,26,26,26,0,0,0,26,0Z"/><polygon class="a" points="26 6.522 30.152 15.173 39.703 16.488 32.713 23.201 34.374 32.544 26 28.046 17.626 32.544 19.287 23.201 12.297 16.488 21.709 15.173 26 6.522"/><polygon class="a" points="10.982 25.07 12.574 28.392 16.242 28.876 13.543 31.437 14.166 35.035 10.982 33.305 7.729 35.035 8.421 31.437 5.722 28.876 9.321 28.392 10.982 25.07"/><polygon class="a" points="19.633 33.513 21.225 36.835 24.893 37.319 22.194 39.949 22.816 43.479 19.633 41.818 16.38 43.479 17.072 39.949 14.373 37.319 17.972 36.835 19.633 33.513"/><polygon class="a" points="41.018 25.07 42.61 28.392 46.278 28.876 43.648 31.437 44.271 35.035 41.018 33.305 37.834 35.035 38.457 31.437 35.758 28.876 39.426 28.392 41.018 25.07"/><polygon class="a" points="32.367 33.513 33.959 36.835 37.627 37.319 34.928 39.949 35.551 43.479 32.367 41.818 29.184 43.479 29.806 39.949 27.107 37.319 30.706 36.835 32.367 33.513"/></svg>