<svg xmlns="http://www.w3.org/2000/svg" viewBox="0 0 52 52"><defs><style>.a{fill:#1a9ed4;}</style></defs><title>features-nif</title><path class="a" d="M26,0A26,26,0,1,0,52,26,26,26,0,0,0,26,0ZM16.447,30.635V20.259h2.306l3.953,6.259V20.259h2.553V30.635H22.953L19,24.458v6.177Zm9.8,0V20.259h2.635V30.635Zm9.141-6.341V26.6H32.506v3.953H29.788V20.259h5.6v2.3H32.341v1.73Zm4.53,21.24V10.953l-.741,1.318-.742,1.317-.741-1.317-.741-1.318-.741,1.318-.741,1.317-.742-1.317-.741-1.318-.741,1.318-.741,1.317-.741-1.317-1.153-1.318-.824,1.4-.741,1.317-.741-1.317-.741-1.318-.742,1.318-.741,1.317-.741-1.317L24.6,11.035l-.741,1.318-.741,1.317-.742-1.317-.741-1.318-.741,1.318-.741,1.317-.741-1.317-.741-1.318-.742,1.318L16.612,13.67l-.824-1.317-.741-1.318-.741,1.318-.741,1.317-.742-1.317-.741-1.318v34.5a24,24,0,1,1,27.836,0Z"/></svg>