<svg xmlns="http://www.w3.org/2000/svg" viewBox="0 0 52 52"><defs><style>.a{fill:#1a9ed4;}</style></defs><title>features-qr</title><path class="a" d="M26,2A24,24,0,1,1,2,26,24.027,24.027,0,0,1,26,2m0-2A26,26,0,1,0,52,26,26,26,0,0,0,26,0Z"/><rect class="a" x="24.733" y="12.061" width="2.534" height="2.534"/><path class="a" d="M37.405,12.061H29.8V22.2H39.939V12.061Zm0,5.069v2.534H32.336V14.6h5.069Z"/><rect class="a" x="12.061" y="24.733" width="2.534" height="2.534"/><path class="a" d="M17.13,22.2H22.2V12.061H12.061V22.2H17.13ZM14.6,17.13V14.6h5.069v5.069H14.6Z"/><rect class="a" x="17.13" y="24.733" width="2.534" height="2.534"/><path class="a" d="M17.13,29.8H12.061V39.939H22.2V29.8H17.13Zm2.534,5.068v2.535H14.6V32.336h5.069Z"/><rect class="a" x="22.198" y="24.733" width="2.534" height="2.534"/><polygon class="a" points="27.267 22.199 27.267 19.664 27.267 17.13 24.733 17.13 24.733 19.664 24.733 22.199 24.733 24.733 27.267 24.733 27.267 22.199"/><polygon class="a" points="29.802 29.802 32.336 29.802 32.336 27.267 29.802 27.267 29.802 24.733 27.267 24.733 27.267 27.267 24.733 27.267 24.733 29.802 27.267 29.802 27.267 32.336 24.733 32.336 24.733 34.87 24.733 37.405 24.733 39.939 27.267 39.939 27.267 37.405 27.267 34.87 29.802 34.87 29.802 32.336 29.802 29.802"/><polygon class="a" points="29.802 37.405 29.802 39.939 32.336 39.939 34.87 39.939 34.87 37.405 32.336 37.405 32.336 34.87 29.802 34.87 29.802 37.405"/><rect class="a" x="32.336" y="24.733" width="2.534" height="2.534"/><polygon class="a" points="34.87 29.802 34.87 32.336 32.336 32.336 32.336 34.87 34.87 34.87 37.405 34.87 37.405 32.336 39.939 32.336 39.939 29.802 37.405 29.802 37.405 27.267 34.87 27.267 34.87 29.802"/><rect class="a" x="37.405" y="24.733" width="2.534" height="2.534"/><rect class="a" x="37.405" y="37.405" width="2.534" height="2.534"/></svg>