<?xml version="1.0" encoding="utf-8"?>
<!-- Generator: Adobe Illustrator 20.1.0, SVG Export Plug-In . SVG Version: 6.00 Build 0)  -->
<svg version="1.1" id="Layer_1" xmlns="http://www.w3.org/2000/svg" xmlns:xlink="http://www.w3.org/1999/xlink" x="0px" y="0px"
	 viewBox="0 0 29 29" style="enable-background:new 0 0 29 29;" xml:space="preserve">
<style type="text/css">
	.st0{fill:#1A9ED4;}
</style>
<path class="st0" d="M28.1,4.9L26,2.8c-0.3-0.3-0.9-0.3-1.4,0L13.7,13.7L9.6,9.6c-0.3-0.3-0.9-0.3-1.4,0l-2.1,2.1
	c-0.3,0.3-0.3,0.9,0,1.4l4.7,4.7l0,0l2.1,2.1c0.3,0.3,0.9,0.3,1.4,0l2.1-2.1l0,0L28.1,6.1C28.6,5.8,28.6,5.2,28.1,4.9z"/>
<g>
	<path class="st0" d="M8,2.4h13v2.9l1-1V2c0-1.1-0.9-2-2-2H9C7.9,0,7,0.9,7,2v7.4l1-1V2.4z"/>
	<path class="st0" d="M21,24.4H8V16l-1-1v12c0,1.1,0.9,2,2,2h11c1.1,0,2-0.9,2-2V13.5l-1,1V24.4z M14.5,27.8c-0.6,0-1.1-0.5-1.1-1.1
		c0-0.6,0.5-1.1,1.1-1.1s1.1,0.5,1.1,1.1C15.6,27.3,15.1,27.8,14.5,27.8z"/>
</g>
</svg>
