<?xml version="1.0" encoding="utf-8"?>
<!-- Generator: Adobe Illustrator 22.1.0, SVG Export Plug-In . SVG Version: 6.00 Build 0)  -->
<svg version="1.1" id="Layer_1" xmlns="http://www.w3.org/2000/svg" xmlns:xlink="http://www.w3.org/1999/xlink" x="0px" y="0px"
	 viewBox="0 0 28.9 29" style="enable-background:new 0 0 28.9 29;" xml:space="preserve">
<style type="text/css">
	.st0{fill:#1A9ED4;}
	.st1{fill:#FFFFFF;}
</style>
<g>
	<path class="st0" d="M25,9.9c-2.2,0-3.9,1.8-3.9,3.9c0,2.2,1.8,3.9,3.9,3.9s3.9-1.8,3.9-3.9C28.9,11.6,27.1,9.9,25,9.9z"/>
	<g>
		<polygon class="st1" points="25,10.8 25.9,12.6 27.9,12.9 26.4,14.3 26.8,16.3 25,15.3 23.2,16.3 23.6,14.3 22.1,12.9 24.1,12.6 
					"/>
	</g>
	<path class="st0" d="M27,0H2.4C2.2,0,2,0.2,2,0.4v15.8c0,0.2,0.2,0.4,0.4,0.4h18.7c-0.2-0.3-0.4-0.6-0.5-0.9H2.9V0.9h23.7v8.5
		c0.3,0.1,0.6,0.2,0.9,0.4V0.4C27.4,0.2,27.2,0,27,0z"/>
	<g>
		<rect x="5.3" y="3.5" class="st0" width="0.5" height="8.2"/>
		<rect x="7.9" y="3.5" class="st0" width="0.2" height="8.2"/>
		<rect x="15.2" y="3.5" class="st0" width="0.2" height="8.2"/>
		<rect x="18.8" y="3.5" class="st0" width="0.2" height="8.2"/>
		<rect x="19.6" y="3.5" class="st0" width="0.2" height="8.2"/>
		<rect x="6.4" y="3.5" class="st0" width="1.3" height="8.2"/>
		<rect x="9.6" y="3.5" class="st0" width="1.3" height="8.2"/>
		<rect x="11.9" y="3.5" class="st0" width="1.3" height="8.2"/>
		<rect x="13.8" y="3.5" class="st0" width="1.3" height="8.2"/>
		<rect x="16.2" y="3.5" class="st0" width="1.3" height="8.2"/>
		<path class="st0" d="M23.3,3.5h-1.3v6.6c0.4-0.3,0.8-0.6,1.3-0.7V3.5z"/>
		<rect x="8.8" y="3.5" class="st0" width="0.5" height="8.2"/>
		<rect x="17.8" y="3.5" class="st0" width="0.5" height="8.2"/>
		<rect x="20.1" y="3.5" class="st0" width="0.5" height="8.2"/>
		<path class="st0" d="M21.5,3.5H21v7.7c0.1-0.2,0.3-0.4,0.5-0.6V3.5z"/>
		<path class="st0" d="M24.2,3.5h-0.5v5.8c0.2,0,0.3-0.1,0.5-0.1V3.5z"/>
	</g>
</g>
</svg>
