<svg xmlns="http://www.w3.org/2000/svg" viewBox="0 0 29 29"><defs><style>.a{fill:#1a9ed4;}</style></defs><title>Artboard 1</title><path class="a" d="M24.19374,13.33734a.38276.38276,0,0,0-.17122-.7376l-5.04243.403.39329-8.08554a.38279.38279,0,0,0-.7376-.16113l-2.74926,6.8496L12.83668,9.105a.38292.38292,0,0,0-.59927.43553l1.60417,4.10595L9.92106,18.1708a.38284.38284,0,0,0,.4374.60376l6.08733-2.55075,3.79,3.96389a.38282.38282,0,0,0,.65161-.34095l-.9791-4.817Zm-7.37635,2.16681a.38247.38247,0,0,0-.42469-.08823l-4.82224,2.02064,3.00123-3.46331A.38363.38363,0,0,0,14.639,13.583l-1.15556-2.95749,2.32121,1.90325a.38259.38259,0,0,0,.59778-.15365l2.09541-5.22076-.30356,6.24621a.38382.38382,0,0,0,.11589.29347.37535.37535,0,0,0,.29721.10692l2.91974-.23365-2.19821.86844a.38227.38227,0,0,0-.2344.43217l.77872,3.83267Z"/><path class="a" d="M27.47237,15.80286a.30366.30366,0,0,0-.16188-.18281.30726.30726,0,0,0-.2445-.00411l-1.41837.59479.13795-1.56342a.30322.30322,0,0,0-.30244-.33011H23.66138a.30372.30372,0,0,0-.30319.32151l.09271,1.572-1.369-.59329a.30017.30017,0,0,0-.246.00187.30368.30368,0,0,0-.16374.18356l-.54656,1.70025a.30374.30374,0,0,0,.21758.38805l1.52566.37011-1.01836,1.20341a.30357.30357,0,0,0,.05122.44039l1.39706,1.03256a.30762.30762,0,0,0,.23777.05421.30314.30314,0,0,0,.20076-.13832l.8348-1.34547.83517,1.34547a.304.304,0,0,0,.20076.13832.32883.32883,0,0,0,.0572.00523.30463.30463,0,0,0,.18057-.05944l1.39669-1.03256a.30357.30357,0,0,0,.05122-.44039l-1.01836-1.20341,1.526-.37011a.30219.30219,0,0,0,.19328-.14655.30625.30625,0,0,0,.02467-.2415Z"/><path class="a" d="M7.484,18.48483a2.78049,2.78049,0,0,0,.25122-2.135,2.29113,2.29113,0,0,0-1.70436-1.1907,2.029,2.029,0,0,0,.32562-2.27523,2.289,2.289,0,0,0-1.15817-.96228,1.98971,1.98971,0,0,0,.24337-1.71184c-.37983-.79068-1.53912-.79517-3.44461-.012a.38274.38274,0,1,0,.29085.70806c1.73913-.71479,2.36757-.56413,2.464-.36413.10767.22431-.028.66432-.311,1.15331-.21608-.0471-.43665-.08374-.65573-.117A3.07552,3.07552,0,0,0,.997,12.817a1.09282,1.09282,0,0,0-.086,1.21051c.19664.30992.79031.95368,2.04344.258a6.162,6.162,0,0,0,1.83222-1.70436,1.62081,1.62081,0,0,1,.91031.69161c.18543.314.20711.84788-.498,1.72193a8.54457,8.54457,0,0,0-3.53546.24263C.34724,15.66939-.22886,16.487.08293,17.48105a1.18664,1.18664,0,0,0,.8348.85536c1.42547.38506,3.82893-1.78287,3.9508-1.89428q.3516-.31964.63105-.6247c.79779.1615,1.39557.44263,1.51108.78059a2.15195,2.15195,0,0,1-.27291,1.65464c-.055-.012-.11141-.02318-.1686-.034a4.08349,4.08349,0,0,0-3.41059,1.37089A1.32381,1.32381,0,0,0,3.21987,21.144c.17234.24487.61049.58208,1.60642.0729A6.80854,6.80854,0,0,0,7.0903,19.151a1.10015,1.10015,0,0,1,.71816.61236c.20412.66619-.6475,1.69988-.96228,2.009a.38293.38293,0,0,0,.53647.54656c.15814-.15477,1.53352-1.54884,1.15855-2.778A1.7238,1.7238,0,0,0,7.484,18.48483ZM2.58284,13.61623c-.75816.4202-.95891.10393-1.02509.00075-.07215-.11365.01944-.28824.08075-.38207a2.35108,2.35108,0,0,1,1.796-.917,1.549,1.549,0,0,1,.23627.01757q.15085.02243.29683.0471A4.99347,4.99347,0,0,1,2.58284,13.61623Zm1.75,2.27859c-.87891.8-2.50626,1.89353-3.21507,1.70249-.09982-.02692-.22431-.09047-.30431-.34506-.17533-.55965.19066-.99293,1.08864-1.28752a6.74749,6.74749,0,0,1,2.05615-.29459c.2,0,.39852.00748.59255.02094C4.4816,15.75762,4.40908,15.82529,4.33281,15.89482Zm.80153,4.21511c-.75853.58694-1.21649.64376-1.28865.59292a.56508.56508,0,0,1-.04262-.69984,3.40429,3.40429,0,0,1,2.39373-1.05013c.02991,0,.05907.00075.08711.00224A6.41648,6.41648,0,0,1,5.13434,20.10993Z"/><path class="a" d="M28.16585,3.74446a3.42842,3.42842,0,0,0-1.32454-1.215A3.80526,3.80526,0,0,0,25.37023,2.35a8.603,8.603,0,0,0-3.2476.90545l-.25272.163a3.31648,3.31648,0,0,0-1.08453.9477,5.19715,5.19715,0,0,0-.59068,2.2928,2.9847,2.9847,0,0,0,.18991,1.7567,1.27455,1.27455,0,0,0,1.23257.67666c.126.006.29982.01234.2987.01234.07066.14094-.10393.50581-.21907.74732a1.28378,1.28378,0,0,0-.20449.9548.57554.57554,0,0,0,.31179.32973c.45833.20524.88975-.11253,1.19855-.37422l-.00523.0886c-.02916.50394-.05458.93947.17907,1.187a.5116.5116,0,0,0,.375.16188c.38506,0,.69087-.37048,1.141-.98321.03028.36973.111.93237.67741.90658.49161-.00785.9462-.42731.9462-3.41919,0-.03776,0-.08748.00187-.12636l.06654-.071a.93039.93039,0,0,0,.13683-.055c1.29425-.46207,2.56122-1.51819,2.47448-2.8102A3.34454,3.34454,0,0,0,28.16585,3.74446ZM26.22148,7.74872a.79192.79192,0,0,1-.09047.03552.75433.75433,0,0,0-.4359.31553.92944.92944,0,0,0-.14468.60413,13.59279,13.59279,0,0,1-.12486,2.08045.9642.9642,0,0,0-.26207-.62731L25.008,10.0318l-.17047.01682c-.25683.025-.41721.24412-.73685.6804-.08935.1215-.23365.31852-.35366.474.00336-.108.00972-.21982.015-.30768.03178-.54806.05682-.981-.31777-1.12453a.48527.48527,0,0,0-.1787-.03439,1.158,1.158,0,0,0-.67778.3731c-.06692.05757-.17309.14916-.27029.22132.02393-.05234.049-.1043.07028-.14879a1.62377,1.62377,0,0,0,.18917-1.461,1.05258,1.05258,0,0,0-.923-.39366c-.34693-.01645-.47815-.0415-.58432-.25422a2.21435,2.21435,0,0,1-.11477-1.32192,4.63371,4.63371,0,0,1,.47366-1.96979,2.65374,2.65374,0,0,1,.852-.71666l.2258-.14842a7.93022,7.93022,0,0,1,2.89132-.8019,3.37766,3.37766,0,0,1,1.13014.1129,2.69445,2.69445,0,0,1,1.009.95293,2.77751,2.77751,0,0,1,.69423,1.48641C28.28922,6.53971,27.28544,7.36591,26.22148,7.74872Z"/><path class="a" d="M22.77808,6.27862a.8918.8918,0,0,0-1.0185.45707.84476.84476,0,0,0,.11627.87821.36162.36162,0,0,0,.15374.11734.44337.44337,0,0,0,.12108.0179c.33955.01752.63217.0872.79755-.27239a1.28906,1.28906,0,0,0,.09757-.411,3.20541,3.20541,0,0,0,.0157-.38067.467.467,0,0,0-.07108-.28207A.394.394,0,0,0,22.77808,6.27862Z"/><path class="a" d="M25.45145,5.1411a1.18549,1.18549,0,0,0-.38567.05323,1.00771,1.00771,0,0,0-.4152.30641A1.85971,1.85971,0,0,0,24.295,7.18487c.15786.43441,1.25332-.06178,1.4752-.28637a1.59969,1.59969,0,0,0,.37838-.7911.83386.83386,0,0,0-.14678-.82134A.81975.81975,0,0,0,25.45145,5.1411Z"/><path class="a" d="M8.24735,12.09206a.24506.24506,0,0,0,.08412-.015l2.19821-.806a.24471.24471,0,0,0,.14543-.31366L7.77294,3.0435a.24563.24563,0,0,0-.31366-.14543l-2.19821.806a.24471.24471,0,0,0-.14543.31366l2.90216,7.91394A.24462.24462,0,0,0,8.24735,12.09206Z"/><path class="a" d="M10.70613,15.15311a1.63923,1.63923,0,0,0,.97462-2.10326h-.00037a1.63881,1.63881,0,1,0-.97424,2.10326Z"/><path class="a" d="M9.95807,4.87348l1.17294.4316L10.6994,6.478a.68955.68955,0,1,0,1.29425.47628l.43165-1.173,1.0921.40188-.43175,1.173a.68955.68955,0,1,0,1.29425.47628l.43175-1.173,1.17317.4317a.68955.68955,0,0,0,.47628-1.29425L15.288,5.36522l.40193-1.092,1.17308.43165a.68955.68955,0,1,0,.47628-1.29425l-1.173-.43165.4317-1.17289a.68955.68955,0,0,0-1.29425-.47628L14.872,2.50273,13.77971,2.1008l.4316-1.17289A.68955.68955,0,0,0,12.91706.45163l-.4316,1.17294L11.31251,1.193a.68955.68955,0,1,0-.47628,1.29425l1.17294.4316-.40188,1.092-1.17294-.4316a.68955.68955,0,0,0-.47628,1.29425Zm3.34536-1.47842,1.09219.40193-.40188,1.092-1.09214-.40188Z"/><path class="a" d="M18.478,21.28344a1.94729,1.94729,0,0,0-2.26737-1.44753,2.52191,2.52191,0,0,0-4.63419.9705,1.4656,1.4656,0,0,0,.35627,2.88721h.99107L11.67888,25.269a.38274.38274,0,0,0,.25534.61759l1.77427.209-.84564,1.99484a.38283.38283,0,0,0,.60563.43665l4.10819-3.61845a.38274.38274,0,0,0-.27216-.66956l-1.0606.05309.84545-.59853h1.51576a1.2097,1.2097,0,0,0,1.20827-1.20827A1.22439,1.22439,0,0,0,18.478,21.28344Zm-3.891,3.58219a.38781.38781,0,0,0,.38095.25721l1.28-.0643L14.224,26.8414l.3888-.91667a.38331.38331,0,0,0-.30768-.52974L12.704,25.2062l1.19556-1.51258h1.86512l-1.037.73423A.38358.38358,0,0,0,14.587,24.86563Z"/></svg>