<?xml version="1.0" encoding="utf-8"?>
<!-- Generator: Adobe Illustrator 22.0.0, SVG Export Plug-In . SVG Version: 6.00 Build 0)  -->
<svg version="1.1" id="Layer_1" xmlns="http://www.w3.org/2000/svg" xmlns:xlink="http://www.w3.org/1999/xlink" x="0px" y="0px"
	 viewBox="0 0 29 29" style="enable-background:new 0 0 29 29;" xml:space="preserve">
<style type="text/css">
	.st0{fill:#DCDCDC;}
	.st1{fill:#FFFFFF;}
	.st2{fill:#1A9ED4;}
</style>
<g>
	<path class="st0" d="M12.1,0H1.9C0.8,0,0,0.8,0,1.9v23.2c0,1,0.8,1.9,1.9,1.9h10.2c1,0,1.9-0.8,1.9-1.9V1.9C13.9,0.8,13.1,0,12.1,0
		z M7,25.9c-0.6,0-1-0.5-1-1s0.5-1,1-1s1,0.5,1,1S7.5,25.9,7,25.9z M13,22.7H0.9V2.2H13V22.7z"/>
	<path class="st0" d="M8.8,10.1l2.5-2.5c0.4-0.4,0.4-0.8,0-1.2l-0.7-0.7c-0.4-0.4-0.8-0.4-1.2,0L7,8.3L4.5,5.8
		c-0.4-0.4-0.8-0.4-1.2,0L2.6,6.4c-0.4,0.4-0.4,0.8,0,1.2l2.5,2.5l-2.5,2.5c-0.4,0.4-0.4,0.9,0,1.2l0.7,0.7c0.4,0.4,0.8,0.4,1.2,0
		L7,12l2.5,2.5c0.4,0.4,0.8,0.4,1.2,0l0.7-0.7c0.4-0.4,0.4-0.8,0-1.2L8.8,10.1z"/>
</g>
<g>
	<rect x="16" y="2.2" class="st1" width="12.1" height="20.5"/>
	<path class="st2" d="M27.1,0H16.9c-1,0-1.9,0.8-1.9,1.9v23.2c0,1,0.8,1.9,1.9,1.9h10.2c1,0,1.9-0.8,1.9-1.9V1.9
		C29,0.8,28.2,0,27.1,0z M22,25.9c-0.6,0-1-0.5-1-1s0.5-1,1-1c0.6,0,1,0.5,1,1S22.6,25.9,22,25.9z M28.1,22.7H16V2.2h12.1V22.7z"/>
	<g>
		<rect x="21.6" y="5" class="st2" width="0.9" height="0.9"/>
		<path class="st2" d="M26.2,5h-0.9h-0.9h-0.9V6v0.9v0.9v0.9h0.9h0.9h0.9h0.9V7.8V6.9V6V5C27.1,5,26.2,5,26.2,5z M26.2,6.9v0.9h-0.9
			h-0.9V6.9V6h0.9h0.9V6.9z"/>
		<rect x="16.9" y="9.7" class="st2" width="0.9" height="0.9"/>
		<path class="st2" d="M18.8,8.7h0.9h0.9V7.8V6.9V6V5h-0.9h-0.9h-0.9h-0.9V6v0.9v0.9v0.9h0.9H18.8z M17.8,6.9V6h0.9h0.9v0.9v0.9
			h-0.9h-0.9V6.9z"/>
		<rect x="18.8" y="9.7" class="st2" width="0.9" height="0.9"/>
		<path class="st2" d="M18.8,11.5h-0.9h-0.9v0.9v0.9v0.9v0.9h0.9h0.9h0.9h0.9v-0.9v-0.9v-0.9v-0.9h-0.9H18.8z M19.7,13.4v0.9h-0.9
			h-0.9v-0.9v-0.9h0.9h0.9V13.4z"/>
		<rect x="20.6" y="9.7" class="st2" width="0.9" height="0.9"/>
		<polygon class="st2" points="22.5,8.7 22.5,7.8 22.5,6.9 21.6,6.9 21.6,7.8 21.6,8.7 21.6,9.7 22.5,9.7 		"/>
		<polygon class="st2" points="23.4,11.5 24.4,11.5 24.4,10.6 23.4,10.6 23.4,9.7 22.5,9.7 22.5,10.6 21.6,10.6 21.6,11.5 
			22.5,11.5 22.5,12.5 21.6,12.5 21.6,13.4 21.6,14.3 21.6,15.3 22.5,15.3 22.5,14.3 22.5,13.4 23.4,13.4 23.4,12.5 		"/>
		<polygon class="st2" points="23.4,14.3 23.4,15.3 24.4,15.3 25.3,15.3 25.3,14.3 24.4,14.3 24.4,13.4 23.4,13.4 		"/>
		<rect x="24.4" y="9.7" class="st2" width="0.9" height="0.9"/>
		<polygon class="st2" points="25.3,11.5 25.3,12.5 24.4,12.5 24.4,13.4 25.3,13.4 26.2,13.4 26.2,12.5 27.1,12.5 27.1,11.5 
			26.2,11.5 26.2,10.6 25.3,10.6 		"/>
		<rect x="26.2" y="9.7" class="st2" width="0.9" height="0.9"/>
		<rect x="26.2" y="14.3" class="st2" width="0.9" height="0.9"/>
	</g>
</g>
</svg>
