<?xml version="1.0" encoding="utf-8"?>
<!-- Generator: Adobe Illustrator 21.1.0, SVG Export Plug-In . SVG Version: 6.00 Build 0)  -->
<svg version="1.1" id="Layer_1" xmlns="http://www.w3.org/2000/svg" xmlns:xlink="http://www.w3.org/1999/xlink" x="0px" y="0px"
	 viewBox="0 0 28.9 29" style="enable-background:new 0 0 28.9 29;" xml:space="preserve">
<style type="text/css">
	.st0{fill:#1A9ED4;}
</style>
<g>
	<g>
		<path class="st0" d="M2.9,15.8V7.3h23.7v2.1c0.3,0.1,0.6,0.2,0.9,0.4V0.4C27.4,0.2,27.2,0,27,0H2.4C2.2,0,2,0.2,2,0.4v15.8
			c0,0.2,0.2,0.4,0.4,0.4h18.7c-0.2-0.3-0.4-0.6-0.5-0.9H2.9z M2.9,0.9h23.7v2.4H2.9V0.9z"/>
	</g>
	<path class="st0" d="M25,9.9c-2.2,0-3.9,1.8-3.9,3.9c0,2.2,1.8,3.9,3.9,3.9s3.9-1.8,3.9-3.9C28.9,11.6,27.1,9.9,25,9.9z M26,13
		l-0.3,0.6H24c0,0.1,0,0.3,0,0.4h1.6l-0.3,0.6h-1.2c0,0.1,0.1,0.4,0.4,0.5c0.2,0.1,0.5,0.2,0.7,0.2c0.7,0,1-0.3,1.1-0.4V16
		c-0.2,0.1-0.5,0.3-1.3,0.3c-0.5,0-1.1-0.1-1.5-0.4c-0.4-0.3-0.6-0.7-0.7-1.2h-0.6l0.3-0.6h0.3c0-0.1,0-0.3,0-0.4h-0.5l0.3-0.6h0.4
		c0.1-0.4,0.3-0.8,0.6-1c0.3-0.3,0.9-0.7,1.8-0.7c0.4,0,0.8,0.1,1.2,0.3l-0.4,0.9c-0.3-0.2-0.6-0.2-0.9-0.2c-0.1,0-0.5,0-0.7,0.2
		c-0.1,0.1-0.3,0.2-0.4,0.5H26z"/>
</g>
</svg>
