<?xml version="1.0" encoding="utf-8"?>
<!-- Generator: Adobe Illustrator 20.1.0, SVG Export Plug-In . SVG Version: 6.00 Build 0)  -->
<svg version="1.1" id="Layer_1" xmlns="http://www.w3.org/2000/svg" xmlns:xlink="http://www.w3.org/1999/xlink" x="0px" y="0px"
	 viewBox="0 0 29 29" style="enable-background:new 0 0 29 29;" xml:space="preserve">
<style type="text/css">
	.st0{fill:#1A9ED4;}
</style>
<title>Artboard 1</title>
<path class="st0" d="M24.3,5c-0.1-0.3-0.3-0.5-0.5-0.6c-0.3-0.1-0.6-0.1-0.8,0l-4.8,2l0.5-5.3c0.1-0.6-0.4-1.1-0.9-1.1
	c0,0-0.1,0-0.1,0h-6.2c-0.6,0-1,0.5-1,1c0,0,0,0,0,0.1l0.3,5.3l-4.6-2c-0.3-0.1-0.6-0.1-0.8,0C5,4.5,4.8,4.8,4.7,5l-1.9,5.8
	c-0.2,0.5,0.1,1.1,0.7,1.3c0,0,0,0,0.1,0l5.2,1.3l-3.5,4.1c-0.4,0.4-0.3,1.1,0.1,1.5c0,0,0,0,0.1,0l4.7,3.5c0.2,0.2,0.5,0.2,0.8,0.2
	c0.3-0.1,0.5-0.2,0.7-0.5l2.8-4.6l2.8,4.6c0.2,0.2,0.4,0.4,0.7,0.5c0.1,0,0.1,0,0.2,0c0.2,0,0.4-0.1,0.6-0.2l4.7-3.5
	c0.5-0.3,0.6-1,0.2-1.4c0,0,0,0,0-0.1l-3.5-4.1l5.2-1.3c0.3-0.1,0.5-0.2,0.7-0.5c0.1-0.2,0.2-0.5,0.1-0.8L24.3,5z"/>
</svg>
