<?xml version="1.0" encoding="utf-8"?>
<!-- Generator: Adobe Illustrator 21.0.2, SVG Export Plug-In . SVG Version: 6.00 Build 0)  -->
<svg version="1.2" baseProfile="tiny" id="Layer_1" xmlns="http://www.w3.org/2000/svg" xmlns:xlink="http://www.w3.org/1999/xlink"
	 x="0px" y="0px" viewBox="0 0 29 29" xml:space="preserve">
<g>
	<path fill="#1A9ED4" d="M26.42469,0H0.95074C0.63957,0,0.38703,0.25254,0.38703,0.56371V16.6778
		c0,0.31117,0.25254,0.56371,0.56371,0.56371h19.31598c-0.20066-0.35396-0.36078-0.73058-0.47123-1.12741H1.51445V1.62155
		l11.85842,7.97069c0.09468,0.06386,0.20478,0.09579,0.31433,0.09579s0.21964-0.03193,0.31433-0.09579L25.861,1.62155v8.27373
		c0.39684,0.10033,0.7711,0.25481,1.12741,0.44418V0.56371C26.9884,0.25254,26.73586,0,26.42469,0z M13.6872,8.44501
		L2.80033,1.12741h21.77373L13.6872,8.44501z"/>
	<g>
		<path fill="#1A9ED4" d="M25.08725,14.33792c-0.06379-0.06778-0.13907-0.1218-0.22632-0.16198
			c-0.08677-0.04026-0.17753-0.06035-0.27174-0.06035s-0.18442,0.02009-0.27167,0.06035
			c-0.08732,0.04019-0.16198,0.0942-0.22577,0.16198c-0.06379,0.06833-0.1143,0.14643-0.15166,0.2332
			c-0.03791,0.08732-0.05684,0.17747-0.05684,0.27167s0.01892,0.18614,0.05684,0.27518
			c0.03736,0.08959,0.08787,0.16714,0.15166,0.2332c0.06379,0.06606,0.13845,0.11891,0.22577,0.15854
			c0.08725,0.04019,0.17747,0.06035,0.27167,0.06035s0.18497-0.02016,0.27174-0.06035
			c0.08725-0.03964,0.16253-0.09248,0.22632-0.15854c0.06317-0.06606,0.11368-0.14361,0.15159-0.2332
			c0.03736-0.08904,0.05629-0.18098,0.05629-0.27518s-0.01892-0.18435-0.05629-0.27167
			C25.20093,14.48435,25.15042,14.40625,25.08725,14.33792z"/>
		<path fill="#1A9ED4" d="M24.66702,10.8581c-2.25483,0-3.94595,1.80383-3.94595,3.94595S22.52497,18.75,24.66702,18.75
			c2.14211,0,3.94595-1.80383,3.94595-3.94595S26.80913,10.8581,24.66702,10.8581z M27.37401,15.20646
			c-0.07294,0.23781-0.17636,0.44225-0.31075,0.61401c-0.13384,0.17175-0.29527,0.30449-0.48368,0.3987
			c-0.18786,0.0942-0.3998,0.14127-0.63472,0.14127c-0.12751,0-0.24125-0.03275-0.34241-0.09881
			c-0.10163-0.06606-0.18951-0.1551-0.26479-0.26823c-0.15565,0.1551-0.30387,0.25275-0.44459,0.29293
			c-0.14127,0.04026-0.27339,0.05973-0.39519,0.05973c-0.15111,0-0.30731-0.03613-0.46992-0.10913
			c-0.16198-0.07294-0.31013-0.1752-0.44459-0.30731c-0.13384-0.1315-0.24586-0.28894-0.33484-0.47274
			c-0.08966-0.18325-0.13446-0.38542-0.13446-0.60713c0-0.216,0.04253-0.41535,0.12696-0.59625
			c0.08498-0.18098,0.19529-0.33663,0.33202-0.46586c0.13611-0.1293,0.29293-0.22921,0.4693-0.29988
			c0.17636-0.07067,0.35617-0.10625,0.53997-0.10625c0.20217,0,0.37853,0.03902,0.52965,0.11657
			c0.15049,0.07755,0.26073,0.18042,0.3314,0.30731l0.06379-0.36016h0.6491l-0.21139,1.75773
			c-0.01438,0.11265-0.02126,0.22577-0.02126,0.33897c0,0.04707,0.01149,0.08443,0.03502,0.11258
			c0.02353,0.02814,0.05168,0.04253,0.08505,0.04253c0.10797,0,0.20788-0.03564,0.29981-0.1057
			c0.09193-0.07067,0.17175-0.16487,0.24009-0.28268c0.06778-0.11774,0.12063-0.25158,0.15854-0.40207
			s0.05629-0.30614,0.05629-0.46586c0-0.26823-0.05168-0.51292-0.15503-0.73409c-0.10342-0.22116-0.24586-0.40957-0.42684-0.56467
			c-0.18153-0.15565-0.39464-0.27573-0.63871-0.36016c-0.24476-0.08443-0.50838-0.12696-0.79099-0.12696
			c-0.32459,0-0.6244,0.05512-0.89958,0.16597c-0.27573,0.11031-0.51292,0.2608-0.71282,0.45154
			c-0.20052,0.19068-0.35672,0.41762-0.46992,0.68124c-0.11258,0.26369-0.16941,0.54575-0.16941,0.84673
			c0,0.3389,0.06145,0.64277,0.1838,0.911c0.12235,0.26768,0.28832,0.494,0.49744,0.67725
			c0.20967,0.1838,0.45436,0.32342,0.73409,0.41989c0.27979,0.09654,0.57788,0.14478,0.89325,0.14478
			c0.18324,0,0.34578-0.00578,0.48712-0.01782c0.14072-0.01149,0.27401-0.03386,0.39863-0.06661
			c0.12469-0.0333,0.2447-0.07755,0.35961-0.13446c0.11547-0.05629,0.24125-0.12923,0.37798-0.21882l0.30325,0.59336
			c-0.28715,0.17863-0.58703,0.31137-0.89951,0.39869c-0.3131,0.0867-0.6531,0.13033-1.02021,0.13033
			c-0.46124,0-0.87653-0.07521-1.24591-0.2257c-0.36931-0.15049-0.68358-0.35555-0.94204-0.61408
			c-0.25908-0.25908-0.45897-0.56006-0.60032-0.90357c-0.14127-0.34351-0.21132-0.70828-0.21132-1.09425
			c0-0.3998,0.07466-0.77145,0.2257-1.11496c0.15049-0.34351,0.35727-0.64222,0.62096-0.89669
			c0.26369-0.25392,0.57272-0.45381,0.92827-0.5997c0.355-0.14588,0.73986-0.21889,1.15404-0.21889
			c0.38136,0,0.73636,0.06324,1.0661,0.19075c0.32913,0.12696,0.61518,0.30098,0.8576,0.52214
			c0.2418,0.22116,0.43255,0.48134,0.57155,0.78005c0.13845,0.29871,0.20795,0.61752,0.20795,0.95642
			C27.48314,14.70668,27.44695,14.96865,27.37401,15.20646z"/>
	</g>
</g>
</svg>
