<?xml version="1.0" encoding="utf-8"?>
<!-- Generator: Adobe Illustrator 22.0.0, SVG Export Plug-In . SVG Version: 6.00 Build 0)  -->
<svg version="1.1" id="Layer_1" xmlns="http://www.w3.org/2000/svg" xmlns:xlink="http://www.w3.org/1999/xlink" x="0px" y="0px"
	 viewBox="0 0 29 29" style="enable-background:new 0 0 29 29;" xml:space="preserve">
<style type="text/css">
	.st0{fill:#1A9ED4;}
</style>
<g>
	<g>
		<path class="st0" d="M21,1v25.4L18.8,25l-0.5-0.3L17.7,25l-3.2,2l-3.2-2l-0.5-0.3L10.2,25L8,26.4V1H21 M22,0H7v28.2l3.8-2.3
			l3.8,2.3l3.8-2.3l3.8,2.3V0H22z"/>
	</g>
	<g>
		<g>
			<rect x="11.7" y="3.6" class="st0" width="5.7" height="2"/>
		</g>
		<g>
			<rect x="12.4" y="7.1" class="st0" width="4.2" height="1"/>
		</g>
		<g>
			<rect x="10" y="10.1" class="st0" width="8.9" height="1"/>
		</g>
		<g>
			<rect x="10" y="11.6" class="st0" width="8.9" height="1"/>
		</g>
		<g>
			<rect x="10" y="13.1" class="st0" width="8.9" height="1"/>
		</g>
		<g>
			<rect x="10" y="14.6" class="st0" width="8.9" height="1"/>
		</g>
		<g>
			<rect x="10" y="16.1" class="st0" width="8.9" height="1"/>
		</g>
		<g>
			<rect x="10" y="17.6" class="st0" width="8.9" height="1"/>
		</g>
	</g>
</g>
</svg>
