<?xml version="1.0" encoding="utf-8"?>
<!-- Generator: Adobe Illustrator 20.1.0, SVG Export Plug-In . SVG Version: 6.00 Build 0)  -->
<svg version="1.1" id="Layer_1" xmlns="http://www.w3.org/2000/svg" xmlns:xlink="http://www.w3.org/1999/xlink" x="0px" y="0px"
	 viewBox="0 0 29 29" style="enable-background:new 0 0 29 29;" xml:space="preserve">
<style type="text/css">
	.st0{fill:#1A9ED4;}
</style>
<g>
	<path class="st0" d="M20,0H9C7.9,0,7,0.9,7,2v25c0,1.1,0.9,2,2,2h11c1.1,0,2-0.9,2-2V2C22,0.9,21.1,0,20,0z M14.5,27.8
		c-0.6,0-1.1-0.5-1.1-1.1s0.5-1.1,1.1-1.1s1.1,0.5,1.1,1.1S15.1,27.8,14.5,27.8z M21,24.4H8v-22h13V24.4z"/>
	<g>
		<rect x="14" y="5.4" class="st0" width="1" height="1"/>
		<path class="st0" d="M19,5.4h-1h-1h-1v1v1v1v1h1h1h1h1v-1v-1v-1v-1C20,5.4,19,5.4,19,5.4z M19,7.4v1h-1h-1v-1v-1h1h1V7.4z"/>
		<rect x="9" y="10.4" class="st0" width="1" height="1"/>
		<path class="st0" d="M11,9.4h1h1v-1v-1v-1v-1h-1h-1h-1H9v1v1v1v1h1H11z M10,7.4v-1h1h1v1v1h-1h-1V7.4z"/>
		<rect x="11" y="10.4" class="st0" width="1" height="1"/>
		<path class="st0" d="M11,12.4h-1H9v1v1v1v1h1h1h1h1v-1v-1v-1v-1h-1H11z M12,14.4v1h-1h-1v-1v-1h1h1V14.4z"/>
		<rect x="13" y="10.4" class="st0" width="1" height="1"/>
		<polygon class="st0" points="15,9.4 15,8.4 15,7.4 14,7.4 14,8.4 14,9.4 14,10.4 15,10.4 		"/>
		<polygon class="st0" points="16,12.4 17,12.4 17,11.4 16,11.4 16,10.4 15,10.4 15,11.4 14,11.4 14,12.4 15,12.4 15,13.4 14,13.4 
			14,14.4 14,15.4 14,16.4 15,16.4 15,15.4 15,14.4 16,14.4 16,13.4 		"/>
		<polygon class="st0" points="16,15.4 16,16.4 17,16.4 18,16.4 18,15.4 17,15.4 17,14.4 16,14.4 		"/>
		<rect x="17" y="10.4" class="st0" width="1" height="1"/>
		<polygon class="st0" points="18,12.4 18,13.4 17,13.4 17,14.4 18,14.4 19,14.4 19,13.4 20,13.4 20,12.4 19,12.4 19,11.4 18,11.4 
					"/>
		<rect x="19" y="10.4" class="st0" width="1" height="1"/>
		<rect x="19" y="15.4" class="st0" width="1" height="1"/>
	</g>
</g>
</svg>
