<?xml version="1.0" encoding="utf-8"?>
<!-- Generator: Adobe Illustrator 21.1.0, SVG Export Plug-In . SVG Version: 6.00 Build 0)  -->
<svg version="1.1" id="Layer_1" xmlns="http://www.w3.org/2000/svg" xmlns:xlink="http://www.w3.org/1999/xlink" x="0px" y="0px"
	 viewBox="0 0 29 29" style="enable-background:new 0 0 29 29;" xml:space="preserve">
<style type="text/css">
	.st0{fill:#1A9ED4;}
</style>
<g>
	<path class="st0" d="M14.5,0C11.5,0,9,2.5,9,5.5s2.5,5.5,5.5,5.5c3,0,5.5-2.5,5.5-5.5S17.5,0,14.5,0z M17.6,7.2
		c0.2,0.2,0.2,0.6,0,0.8l-0.5,0.5c-0.2,0.2-0.6,0.2-0.8,0l-1.8-1.8l-1.8,1.8c-0.2,0.2-0.6,0.2-0.8,0l-0.5-0.5
		c-0.2-0.2-0.2-0.6,0-0.8l1.8-1.8l-1.8-1.7c-0.2-0.2-0.2-0.6,0-0.8l0.5-0.5c0.2-0.2,0.6-0.2,0.8,0l1.8,1.8l1.8-1.8
		c0.2-0.2,0.6-0.2,0.8,0l0.5,0.5c0.2,0.2,0.2,0.6,0,0.8l-1.8,1.8L17.6,7.2z"/>
	<g>
		<path class="st0" d="M18,12.2c-1,0.8-2.2,1.3-3.5,1.3S12,13,11,12.2c-4.1,0.9-7,3.4-7,6.3c0,0,4.7,4.7,10.5,4.7S25,18.5,25,18.5
			C25,15.6,22.1,13.2,18,12.2z"/>
	</g>
</g>
</svg>
