<?xml version="1.0" encoding="utf-8"?>
<!-- Generator: Adobe Illustrator 21.1.0, SVG Export Plug-In . SVG Version: 6.00 Build 0)  -->
<svg version="1.1" id="Layer_1" xmlns="http://www.w3.org/2000/svg" xmlns:xlink="http://www.w3.org/1999/xlink" x="0px" y="0px"
	 viewBox="0 0 80 40" style="enable-background:new 0 0 80 40;" xml:space="preserve">
<style type="text/css">
	.st0{fill:#FFFFFF;}
	.st1{fill:#E5E5E5;}
	.st2{fill:#1A9ED4;}
</style>
<g>
	<g>
		<path class="st0" d="M45,39.5c-2.5,0-4.5-2-4.5-4.5V5c0-2.5,2-4.5,4.5-4.5h30c2.5,0,4.5,2,4.5,4.5v30c0,2.5-2,4.5-4.5,4.5H45z"/>
		<path class="st1" d="M75,1c2.2,0,4,1.8,4,4v30c0,2.2-1.8,4-4,4H45c-2.2,0-4-1.8-4-4V5c0-2.2,1.8-4,4-4H75 M75,0H45
			c-2.8,0-5,2.2-5,5v30c0,2.8,2.2,5,5,5h30c2.8,0,5-2.2,5-5V5C80,2.2,77.8,0,75,0L75,0z"/>
	</g>
	<path class="st2" d="M75.6,11.4l-2.7-2.7c-0.6-0.4-1.3-0.4-1.9,0L56.4,23.2l-5.5-5.5c-0.6-0.4-1.3-0.4-1.9,0l-2.8,2.8
		c-0.4,0.6-0.4,1.4,0,1.9l6.3,6.3l0,0l2.8,2.7c0.6,0.4,1.3,0.4,1.9,0l2.7-2.7l0,0L75.6,13c0.4-0.3,0.6-0.9,0.2-1.4
		C75.8,11.5,75.7,11.4,75.6,11.4z"/>
	<g>
		<path class="st0" d="M5,39.5c-2.5,0-4.5-2-4.5-4.5V5c0-2.5,2-4.5,4.5-4.5h30c2.5,0,4.5,2,4.5,4.5v30c0,2.5-2,4.5-4.5,4.5H5z"/>
		<path class="st1" d="M35,1c2.2,0,4,1.8,4,4v30c0,2.2-1.8,4-4,4H5c-2.2,0-4-1.8-4-4V5c0-2.2,1.8-4,4-4H35 M35,0H5C2.2,0,0,2.2,0,5
			v30c0,2.8,2.2,5,5,5h30c2.8,0,5-2.2,5-5V5C40,2.2,37.8,0,35,0L35,0z"/>
	</g>
</g>
</svg>
