<?xml version="1.0" encoding="utf-8"?>
<!-- Generator: Adobe Illustrator 20.1.0, SVG Export Plug-In . SVG Version: 6.00 Build 0)  -->
<svg version="1.1" id="Layer_1" xmlns="http://www.w3.org/2000/svg" xmlns:xlink="http://www.w3.org/1999/xlink" x="0px" y="0px"
	 viewBox="0 0 29 29" style="enable-background:new 0 0 29 29;" xml:space="preserve">
<style type="text/css">
	.st0{fill:#1A9ED4;}
</style>
<g>
	<path class="st0" d="M21.7,20H7.3c-1.6,0-2.8-1.3-2.8-2.8V2.8C4.5,1.3,5.8,0,7.3,0h14.3c1.6,0,2.8,1.3,2.8,2.8v14.3
		C24.5,18.7,23.2,20,21.7,20z M7.3,1.9c-0.5,0-1,0.4-1,1v14.3c0,0.5,0.4,1,1,1h14.3c0.5,0,1-0.4,1-1V2.8c0-0.5-0.4-1-1-1H7.3z"/>
</g>
<path class="st0" d="M21.4,5.9l-1.3-1.3c-0.2-0.2-0.6-0.2-0.9,0l-6.9,6.9L9.7,8.9c-0.2-0.2-0.6-0.2-0.9,0l-1.3,1.3
	c-0.2,0.2-0.2,0.6,0,0.9l3,3c0,0,0,0,0,0l1.3,1.3c0.2,0.2,0.6,0.2,0.9,0l1.3-1.3c0,0,0,0,0,0l7.4-7.4C21.7,6.5,21.7,6.1,21.4,5.9z"
	/>
</svg>
