<?xml version="1.0" encoding="utf-8"?>
<!-- Generator: Adobe Illustrator 21.0.2, SVG Export Plug-In . SVG Version: 6.00 Build 0)  -->
<svg version="1.2" baseProfile="tiny" id="Layer_1" xmlns="http://www.w3.org/2000/svg" xmlns:xlink="http://www.w3.org/1999/xlink"
	 x="0px" y="0px" viewBox="0 0 29 26.6" xml:space="preserve">
<g>
	<g>
		<rect x="14" y="3" fill="#1A9ED4" width="1" height="1"/>
		<path fill="#1A9ED4" d="M19,3h-1h-1h-1v1v1v1v1h1h1h1h1V6V5V4V3H19z M19,5v1h-1h-1V5V4h1h1V5z"/>
		<rect x="9" y="8" fill="#1A9ED4" width="1" height="1"/>
		<path fill="#1A9ED4" d="M11,7h1h1V6V5V4V3h-1h-1h-1H9v1v1v1v1h1H11z M10,5V4h1h1v1v1h-1h-1V5z"/>
		<rect x="11" y="8" fill="#1A9ED4" width="1" height="1"/>
		<path fill="#1A9ED4" d="M11,10h-1H9v1v1v1v1h1h1h1h1v-1v-1v-1v-1h-1H11z M12,12v1h-1h-1v-1v-1h1h1V12z"/>
		<rect x="13" y="8" fill="#1A9ED4" width="1" height="1"/>
		<polygon fill="#1A9ED4" points="15,7 15,6 15,5 14,5 14,6 14,7 14,8 15,8 		"/>
		<polygon fill="#1A9ED4" points="16,10 17,10 17,9 16,9 16,8 15,8 15,9 14,9 14,10 15,10 15,11 14,11 14,12 14,13 14,14 15,14 
			15,13 15,12 16,12 16,11 		"/>
		<polygon fill="#1A9ED4" points="16,13 16,14 17,14 18,14 18,13 17,13 17,12 16,12 		"/>
		<rect x="17" y="8" fill="#1A9ED4" width="1" height="1"/>
		<polygon fill="#1A9ED4" points="18,10 18,11 17,11 17,12 18,12 19,12 19,11 20,11 20,10 19,10 19,9 18,9 		"/>
		<rect x="19" y="8" fill="#1A9ED4" width="1" height="1"/>
		<rect x="19" y="13" fill="#1A9ED4" width="1" height="1"/>
	</g>
</g>
<g>
	<path fill="#1A9ED4" d="M21.5,26.6h-14c-0.3,0-0.5-0.2-0.5-0.5V0.5C7,0.2,7.2,0,7.5,0h14C21.8,0,22,0.2,22,0.5v25.6
		C22,26.4,21.8,26.6,21.5,26.6z M8,25.6h13V1H8V25.6z"/>
</g>
<rect x="11" y="22.6" fill="#1A9ED4" width="7" height="1"/>
</svg>
