<?xml version="1.0" encoding="utf-8"?>
<!-- Generator: Adobe Illustrator 21.1.0, SVG Export Plug-In . SVG Version: 6.00 Build 0)  -->
<svg version="1.1" id="Layer_1" xmlns="http://www.w3.org/2000/svg" xmlns:xlink="http://www.w3.org/1999/xlink" x="0px" y="0px"
	 viewBox="0 0 58.6 53.4" style="enable-background:new 0 0 58.6 53.4;" xml:space="preserve">
<style type="text/css">
	.st0{fill:#1A9ED4;}
</style>
<title>Artboard 1</title>
<g>
</g>
<g>
	<polygon class="st0" points="29.3,0 35.3,12.5 49.1,14.4 39,24.1 41.4,37.6 29.3,31.1 17.2,37.6 19.6,24.1 9.5,14.4 23.1,12.5 	"/>
	<polygon class="st0" points="7.6,26.8 9.9,31.6 15.2,32.3 11.3,36 12.2,41.2 7.6,38.7 2.9,41.2 3.9,36 0,32.3 5.2,31.6 	"/>
	<polygon class="st0" points="20.1,39 22.4,43.8 27.7,44.5 23.8,48.3 24.7,53.4 20.1,51 15.4,53.4 16.4,48.3 12.5,44.5 17.7,43.8 	
		"/>
	<polygon class="st0" points="51,26.8 53.3,31.6 58.6,32.3 54.8,36 55.7,41.2 51,38.7 46.4,41.2 47.3,36 43.4,32.3 48.7,31.6 	"/>
	<polygon class="st0" points="38.5,39 40.8,43.8 46.1,44.5 42.2,48.3 43.1,53.4 38.5,51 33.9,53.4 34.8,48.3 30.9,44.5 36.1,43.8 	
		"/>
</g>
</svg>
