<?xml version="1.0" encoding="utf-8"?>
<!-- Generator: Adobe Illustrator 21.1.0, SVG Export Plug-In . SVG Version: 6.00 Build 0)  -->
<svg version="1.2" baseProfile="tiny" id="Layer_1" xmlns="http://www.w3.org/2000/svg" xmlns:xlink="http://www.w3.org/1999/xlink"
	 x="0px" y="0px" viewBox="0 0 254.1 254.1" xml:space="preserve">
<path fill="#1A9ED4" d="M254.1,0H0v254.1h254.1L254.1,0z"/>
<g>
	<path fill="#FFFFFF" d="M183.4,177.6c0,16.5-6.7,31.4-17.5,42.2l-30.7-30.7c2.9-2.9,4.8-7,4.8-11.5c0-9-7.3-16.3-16.3-16.3h-16.3
		v-43.4h16.3l0,0c9,0,16.3-7.3,16.3-16.3s-7.3-16.3-16.3-16.3s-16.3,7.3-16.3,16.3v10.9H63.9c0,0,0-7.1,0-10.9
		c0-33,26.7-59.7,59.7-59.7s59.7,26.7,59.7,59.7c0,14.4-5.1,27.7-13.6,38C178.3,149.9,183.4,163.1,183.4,177.6z"/>
	<path fill="#FFFFFF" d="M182.9,48.4h-1.6v5.7c0,0.3-0.3,0.6-0.6,0.6s-0.6-0.3-0.6-0.6v-5.7h-1.6c-0.3,0-0.6-0.3-0.6-0.6
		s0.3-0.6,0.6-0.6h4.4c0.3,0,0.6,0.3,0.6,0.6C183.5,48.2,183.2,48.4,182.9,48.4z"/>
	<path fill="#FFFFFF" d="M190.2,54.2c0,0.3-0.2,0.6-0.5,0.6s-0.5-0.2-0.5-0.6v-4.3l-1.4,3.1c-0.1,0.2-0.3,0.3-0.5,0.3
		s-0.4-0.1-0.5-0.3l-1.5-3.1v4.3c0,0.3-0.3,0.5-0.6,0.5s-0.5-0.2-0.5-0.5v-6.4c0-0.3,0.3-0.5,0.6-0.5s0.5,0.1,0.6,0.4l1.9,4l2-4.1
		c0.1-0.3,0.3-0.3,0.5-0.3c0.3,0,0.6,0.2,0.6,0.5L190.2,54.2L190.2,54.2z"/>
</g>
</svg>
