<?xml version="1.0" encoding="utf-8"?>
<!-- Generator: Adobe Illustrator 21.1.0, SVG Export Plug-In . SVG Version: 6.00 Build 0)  -->
<svg version="1.1" id="Layer_1" xmlns="http://www.w3.org/2000/svg" xmlns:xlink="http://www.w3.org/1999/xlink" x="0px" y="0px"
	 viewBox="0 0 13 10" style="enable-background:new 0 0 13 10;" xml:space="preserve">
<style type="text/css">
	.st0{fill:#FF4500;}
</style>
<title>password-info-invalid</title>
<path class="st0" d="M8.5,5l2.7-2.7c0.4-0.4,0.4-0.9,0-1.3l-0.7-0.7c-0.4-0.4-0.9-0.4-1.3,0L6.5,3L3.8,0.3c-0.4-0.4-0.9-0.4-1.3,0
	L1.8,1c-0.4,0.4-0.4,0.9,0,1.3L4.5,5L1.8,7.7C1.4,8.1,1.4,8.7,1.8,9l0.7,0.7c0.4,0.4,0.9,0.4,1.3,0L6.5,7l2.7,2.7
	c0.4,0.4,0.9,0.4,1.3,0L11.2,9c0.4-0.4,0.4-0.9,0-1.3L8.5,5z"/>
</svg>
