<?xml version="1.0" encoding="utf-8"?>
<!-- Generator: Adobe Illustrator 21.1.0, SVG Export Plug-In . SVG Version: 6.00 Build 0)  -->
<svg version="1.1" id="Layer_1" xmlns="http://www.w3.org/2000/svg" xmlns:xlink="http://www.w3.org/1999/xlink" x="0px" y="0px"
	 viewBox="0 0 223.1 37.6" style="enable-background:new 0 0 223.1 37.6;" xml:space="preserve">
<style type="text/css">
	.st0{fill:#1A9ED4;}
	.st1{fill:#DCDCDC;}
</style>
<g>
	<g>
		<polygon class="st0" points="19.8,0 25.8,12.5 39.7,14.4 29.6,24.1 32,37.6 19.8,31.1 7.7,37.6 10.1,24.1 0,14.4 13.7,12.5 		"/>
		<polygon class="st0" points="65.7,0 71.7,12.5 85.5,14.4 75.4,24.1 77.8,37.6 65.7,31.1 53.6,37.6 55.9,24.1 45.9,14.4 59.5,12.5 
					"/>
		<polygon class="st0" points="111.6,0 117.5,12.5 131.4,14.4 121.3,24.1 123.7,37.6 111.6,31.1 99.4,37.6 101.8,24.1 91.7,14.4 
			105.4,12.5 		"/>
		<polygon class="st1" points="157.4,0 163.4,12.5 177.2,14.4 167.2,24.1 169.6,37.6 157.4,31.1 145.3,37.6 147.7,24.1 137.6,14.4 
			151.3,12.5 		"/>
		<polygon class="st1" points="203.3,0 209.3,12.5 223.1,14.4 213,24.1 215.4,37.6 203.3,31.1 191.1,37.6 193.5,24.1 183.5,14.4 
			197.1,12.5 		"/>
	</g>
</g>
</svg>
