<?xml version="1.0" encoding="utf-8"?>
<!-- Generator: Adobe Illustrator 21.1.0, SVG Export Plug-In . SVG Version: 6.00 Build 0)  -->
<svg version="1.1" id="Layer_1" xmlns="http://www.w3.org/2000/svg" xmlns:xlink="http://www.w3.org/1999/xlink" x="0px" y="0px"
	 viewBox="0 0 223.1 37.6" style="enable-background:new 0 0 223.1 37.6;" xml:space="preserve">
<style type="text/css">
	.st0{fill:#CC9F11;}
	.st1{fill:#FFC010;}
</style>
<g>
	<g>
		<g>
			<polygon class="st0" points="7.6,37.6 19.8,31.2 19.8,20.8 			"/>
			<polygon class="st1" points="0,14.3 13.7,12.4 19.8,0 19.8,20.8 7.6,37.6 9.9,24 			"/>
			<polygon class="st0" points="19.8,0 25.9,12.4 19.8,20.8 			"/>
			<polygon class="st1" points="39.6,14.3 25.9,12.4 19.8,20.8 			"/>
			<polygon class="st1" points="32,37.6 19.8,31.2 19.8,20.8 			"/>
			<polygon class="st0" points="29.7,24 39.6,14.3 19.8,20.8 32,37.6 			"/>
		</g>
		<g>
			<polygon class="st0" points="53.5,37.6 65.7,31.2 65.7,20.8 			"/>
			<polygon class="st1" points="45.9,14.3 59.6,12.4 65.7,0 65.7,20.8 53.5,37.6 55.8,24 			"/>
			<polygon class="st0" points="65.7,0 71.8,12.4 65.7,20.8 			"/>
			<polygon class="st1" points="85.5,14.3 71.8,12.4 65.7,20.8 			"/>
			<polygon class="st1" points="77.9,37.6 65.7,31.2 65.7,20.8 			"/>
			<polygon class="st0" points="75.6,24 85.5,14.3 65.7,20.8 77.9,37.6 			"/>
		</g>
		<g>
			<polygon class="st0" points="99.3,37.6 111.5,31.2 111.5,20.8 			"/>
			<polygon class="st1" points="91.7,14.3 105.4,12.4 111.5,0 111.5,20.8 99.3,37.6 101.6,24 			"/>
			<polygon class="st0" points="111.5,0 117.6,12.4 111.5,20.8 			"/>
			<polygon class="st1" points="131.3,14.3 117.6,12.4 111.5,20.8 			"/>
			<polygon class="st1" points="123.7,37.6 111.5,31.2 111.5,20.8 			"/>
			<polygon class="st0" points="121.4,24 131.3,14.3 111.5,20.8 123.7,37.6 			"/>
		</g>
		<g>
			<polygon class="st0" points="145.2,37.6 157.4,31.2 157.4,20.8 			"/>
			<polygon class="st1" points="137.6,14.3 151.3,12.4 157.4,0 157.4,20.8 145.2,37.6 147.5,24 			"/>
			<polygon class="st0" points="157.4,0 163.5,12.4 157.4,20.8 			"/>
			<polygon class="st1" points="177.2,14.3 163.5,12.4 157.4,20.8 			"/>
			<polygon class="st1" points="169.6,37.6 157.4,31.2 157.4,20.8 			"/>
			<polygon class="st0" points="167.3,24 177.2,14.3 157.4,20.8 169.6,37.6 			"/>
		</g>
		<g>
			<polygon class="st0" points="191.1,37.6 203.3,31.2 203.3,20.8 			"/>
			<polygon class="st1" points="183.5,14.3 197.2,12.4 203.3,0 203.3,20.8 191.1,37.6 193.4,24 			"/>
			<polygon class="st0" points="203.3,0 209.4,12.4 203.3,20.8 			"/>
			<polygon class="st1" points="223.1,14.3 209.4,12.4 203.3,20.8 			"/>
			<polygon class="st1" points="215.5,37.6 203.3,31.2 203.3,20.8 			"/>
			<polygon class="st0" points="213.2,24 223.1,14.3 203.3,20.8 215.5,37.6 			"/>
		</g>
	</g>
</g>
</svg>
